M48
;Layer_Color=9474304
;FILE_FORMAT=2:4
INCH,TZ
;TYPE=PLATED
T1F00S00C0.0200
T2F00S00C0.0300
T3F00S00C0.0354
T4F00S00C0.0394
T5F00S00C0.0472
T6F00S00C0.1181
%
T01
X14272Y5413
X12106Y6693
X11319Y8366
X10925Y10728
X10138
X9350
Y11516
Y12303
Y13091
X10138
Y15059
X9350
X10925
X8465Y14370
X7087
Y13780
X6201Y13091
Y12303
X6201Y11516
X6201Y8760
X7382Y9744
X8169
X5413Y8760
X4626
Y13091
X5413
T02
X7087Y4331
X16437Y14764
T03
X15051Y4331
X16051
X11122Y6193
Y7193
X9941
Y6193
X12492Y8563
X13492
Y9744
X12492
X12098Y18701
X13098
X984Y7587
Y6587
T04
X6102Y1181
X7087
X8071
X12992Y11614
Y13583
Y15650
Y16634
X18504Y13583
Y12598
Y11614
T05
X16535Y1575
X18504
X9744Y18110
X7776
X5807
X3150Y18110
X1181
T06
X2087Y2657
X12087
X18504Y4331
X17028Y7598
Y17598
X1181Y15354
X3740Y6594
M30
