%FSLAX25Y25*%
%MOIN*%
G70*
G01*
G75*
G04 Layer_Physical_Order=1*
G04 Layer_Color=255*
%ADD10R,0.04528X0.05315*%
G04:AMPARAMS|DCode=11|XSize=35.43mil|YSize=27.56mil|CornerRadius=6.89mil|HoleSize=0mil|Usage=FLASHONLY|Rotation=90.000|XOffset=0mil|YOffset=0mil|HoleType=Round|Shape=RoundedRectangle|*
%AMROUNDEDRECTD11*
21,1,0.03543,0.01378,0,0,90.0*
21,1,0.02165,0.02756,0,0,90.0*
1,1,0.01378,0.00689,0.01083*
1,1,0.01378,0.00689,-0.01083*
1,1,0.01378,-0.00689,-0.01083*
1,1,0.01378,-0.00689,0.01083*
%
%ADD11ROUNDEDRECTD11*%
G04:AMPARAMS|DCode=12|XSize=23.62mil|YSize=27.56mil|CornerRadius=5.91mil|HoleSize=0mil|Usage=FLASHONLY|Rotation=90.000|XOffset=0mil|YOffset=0mil|HoleType=Round|Shape=RoundedRectangle|*
%AMROUNDEDRECTD12*
21,1,0.02362,0.01575,0,0,90.0*
21,1,0.01181,0.02756,0,0,90.0*
1,1,0.01181,0.00787,0.00591*
1,1,0.01181,0.00787,-0.00591*
1,1,0.01181,-0.00787,-0.00591*
1,1,0.01181,-0.00787,0.00591*
%
%ADD12ROUNDEDRECTD12*%
%ADD13R,0.05315X0.04528*%
%ADD14R,0.03740X0.02559*%
G04:AMPARAMS|DCode=15|XSize=25.59mil|YSize=37.4mil|CornerRadius=0mil|HoleSize=0mil|Usage=FLASHONLY|Rotation=45.000|XOffset=0mil|YOffset=0mil|HoleType=Round|Shape=Rectangle|*
%AMROTATEDRECTD15*
4,1,4,0.00418,-0.02227,-0.02227,0.00418,-0.00418,0.02227,0.02227,-0.00418,0.00418,-0.02227,0.0*
%
%ADD15ROTATEDRECTD15*%

%ADD16O,0.02362X0.05709*%
%ADD17R,0.05512X0.04528*%
%ADD18R,0.06496X0.13386*%
%ADD19R,0.13386X0.06496*%
%ADD20C,0.03000*%
%ADD21C,0.02000*%
%ADD22C,0.02500*%
%ADD23C,0.05000*%
%ADD24C,0.15748*%
%ADD25O,0.07874X0.11811*%
%ADD26C,0.05906*%
%ADD27R,0.05906X0.05906*%
%ADD28O,0.05906X0.09843*%
%ADD29O,0.09843X0.05906*%
%ADD30C,0.07874*%
%ADD31R,0.05906X0.05906*%
%ADD32C,0.19685*%
%ADD33C,0.04000*%
%ADD34C,0.06000*%
G36*
X34155Y196050D02*
X33631Y195700D01*
X29694Y191763D01*
X29141Y190936D01*
X28947Y189961D01*
Y187338D01*
X27975Y186592D01*
X27184Y185561D01*
X26686Y184360D01*
X26517Y183071D01*
Y179134D01*
X26686Y177845D01*
X27184Y176644D01*
X27975Y175613D01*
X29006Y174821D01*
X30207Y174324D01*
X31496Y174154D01*
X32785Y174324D01*
X33986Y174821D01*
X35017Y175613D01*
X35809Y176644D01*
X36306Y177845D01*
X36476Y179134D01*
Y183071D01*
X36306Y184360D01*
X35809Y185561D01*
X35017Y186592D01*
X34045Y187338D01*
Y188905D01*
X36489Y191349D01*
X57087D01*
Y187921D01*
X56782Y187881D01*
X55581Y187383D01*
X54550Y186592D01*
X53758Y185561D01*
X53261Y184360D01*
X53091Y183071D01*
Y182102D01*
X63051D01*
Y183071D01*
X62881Y184360D01*
X62383Y185561D01*
X61592Y186592D01*
X60561Y187383D01*
X59360Y187881D01*
X59055Y187921D01*
Y191349D01*
X64889D01*
X67333Y188905D01*
Y175197D01*
X67527Y174221D01*
X68080Y173395D01*
X71762Y169712D01*
Y163106D01*
X71047D01*
Y156032D01*
X70435Y155338D01*
X70256Y155374D01*
X69405Y155204D01*
X68683Y154722D01*
X68201Y154001D01*
X68032Y153150D01*
Y152476D01*
X70256D01*
Y150476D01*
X68032D01*
Y149803D01*
X68201Y148952D01*
X68683Y148231D01*
X69405Y147749D01*
X70120Y147606D01*
X70435Y147163D01*
X70579Y146828D01*
X70485Y146677D01*
X70083Y146624D01*
X69353Y146321D01*
X68726Y145840D01*
X68246Y145214D01*
X67943Y144484D01*
X67840Y143701D01*
X67943Y142918D01*
X68246Y142188D01*
X68726Y141561D01*
X69183Y141211D01*
X69256Y140869D01*
Y140627D01*
X69183Y140285D01*
X68726Y139935D01*
X68246Y139308D01*
X67943Y138578D01*
X67840Y137795D01*
X67943Y137012D01*
X68246Y136282D01*
X68726Y135656D01*
X69353Y135175D01*
X70083Y134872D01*
X70485Y134819D01*
X70579Y134668D01*
X70435Y134333D01*
X70120Y133890D01*
X69405Y133747D01*
X68683Y133265D01*
X68201Y132544D01*
X68032Y131693D01*
Y129125D01*
X67232Y128794D01*
X65021Y131006D01*
X64931Y131689D01*
X64628Y132419D01*
X64557Y132512D01*
Y134039D01*
X65764D01*
Y140129D01*
X65764Y140567D01*
X65764Y141367D01*
Y143193D01*
X62008D01*
Y144193D01*
X61008D01*
Y147457D01*
X58690D01*
X58252Y147457D01*
X57452Y147457D01*
X55134D01*
Y144193D01*
X53134D01*
Y147457D01*
X50816D01*
X50378Y147457D01*
X49578Y147457D01*
X47260D01*
Y144193D01*
X46260D01*
Y143193D01*
X42504D01*
Y141367D01*
X42504Y140929D01*
X42504Y140129D01*
Y134039D01*
X43711D01*
Y132512D01*
X43639Y132419D01*
X43337Y131689D01*
X43234Y130905D01*
X43337Y130122D01*
X43639Y129393D01*
X44120Y128766D01*
X44747Y128285D01*
X45477Y127983D01*
X46260Y127880D01*
X47043Y127983D01*
X47773Y128285D01*
X48399Y128766D01*
X48880Y129393D01*
X49183Y130122D01*
X49286Y130905D01*
X49183Y131689D01*
X48880Y132419D01*
X48809Y132512D01*
Y133474D01*
X49374Y134039D01*
X50016Y134039D01*
X50785Y134039D01*
X51585Y133965D01*
Y132512D01*
X51513Y132419D01*
X51211Y131689D01*
X51108Y130905D01*
X51211Y130122D01*
X51513Y129393D01*
X51994Y128766D01*
X52621Y128285D01*
X53351Y127983D01*
X54134Y127880D01*
X54917Y127983D01*
X55647Y128285D01*
X56274Y128766D01*
X56754Y129393D01*
X57057Y130122D01*
X57160Y130905D01*
X57057Y131689D01*
X56754Y132419D01*
X56683Y132512D01*
Y133474D01*
X57249Y134039D01*
X57890Y134039D01*
X58659Y134039D01*
X59459Y133965D01*
Y132512D01*
X59387Y132419D01*
X59085Y131689D01*
X58982Y130905D01*
X59085Y130122D01*
X59387Y129393D01*
X59868Y128766D01*
X60495Y128285D01*
X60557Y128259D01*
X61989Y126828D01*
X61672Y126013D01*
X61225Y125954D01*
X60495Y125652D01*
X59868Y125171D01*
X59791Y125071D01*
X56299D01*
X56299Y125071D01*
X55519Y124916D01*
X54857Y124473D01*
X54857Y124473D01*
X54250Y123866D01*
X54134D01*
X53513Y123742D01*
X52987Y123391D01*
X52636Y122865D01*
X52512Y122244D01*
Y121063D01*
X52636Y120442D01*
X52987Y119916D01*
X53513Y119565D01*
X53827Y119502D01*
Y118687D01*
X53513Y118624D01*
X52987Y118273D01*
X52636Y117747D01*
X52512Y117126D01*
Y115945D01*
X52636Y115324D01*
X52987Y114798D01*
X53513Y114447D01*
X54134Y114323D01*
X54250D01*
X54857Y113716D01*
X54857Y113716D01*
X55519Y113274D01*
X56299Y113118D01*
X56299Y113118D01*
X59791D01*
X59868Y113018D01*
X60495Y112537D01*
X61225Y112235D01*
X62008Y112132D01*
X62791Y112235D01*
X63521Y112537D01*
X64148Y113018D01*
X64628Y113645D01*
X64931Y114374D01*
X65034Y115157D01*
X64931Y115941D01*
X64628Y116670D01*
X64148Y117297D01*
X63521Y117778D01*
X62791Y118080D01*
X62008Y118183D01*
X61225Y118080D01*
X60495Y117778D01*
X59868Y117297D01*
X59791Y117197D01*
X57316D01*
X57207Y117747D01*
X56855Y118273D01*
X56329Y118624D01*
X56015Y118687D01*
Y119502D01*
X56329Y119565D01*
X56855Y119916D01*
X57207Y120442D01*
X57316Y120992D01*
X59791D01*
X59868Y120892D01*
X60495Y120411D01*
X61225Y120109D01*
X62008Y120006D01*
X62791Y120109D01*
X63521Y120411D01*
X64148Y120892D01*
X64628Y121519D01*
X64931Y122248D01*
X64960Y122473D01*
X65732Y122781D01*
X66224Y122392D01*
Y119713D01*
X66224Y119276D01*
X66224Y118476D01*
Y112386D01*
X68696D01*
X68939Y111586D01*
X68683Y111415D01*
X68201Y110694D01*
X68032Y109843D01*
Y109169D01*
X70256D01*
Y108169D01*
X71256D01*
Y104541D01*
X71828Y104924D01*
X72311Y105645D01*
X72348Y105834D01*
X73164D01*
X73201Y105645D01*
X73683Y104924D01*
X74405Y104441D01*
X75256Y104272D01*
X75972Y104415D01*
X76685Y104042D01*
X76751Y103257D01*
X73944Y100450D01*
X73819Y100467D01*
X73036Y100364D01*
X72306Y100062D01*
X71679Y99581D01*
X71198Y98954D01*
X70896Y98224D01*
X70793Y97441D01*
X70896Y96658D01*
X71198Y95928D01*
X71679Y95301D01*
X72306Y94820D01*
X73036Y94518D01*
X73819Y94415D01*
X74602Y94518D01*
X74863Y94626D01*
X75316Y93948D01*
X73814Y92446D01*
X73372Y91784D01*
X73217Y91004D01*
Y89260D01*
X73201Y89237D01*
X73164Y89048D01*
X72348D01*
X72311Y89237D01*
X71828Y89958D01*
X71107Y90440D01*
X70256Y90610D01*
X69405Y90440D01*
X68683Y89958D01*
X68201Y89237D01*
X68032Y88386D01*
Y85039D01*
X68201Y84188D01*
X68683Y83467D01*
X69405Y82985D01*
X70256Y82815D01*
X71107Y82985D01*
X71828Y83467D01*
X72311Y84188D01*
X72348Y84377D01*
X73164D01*
X73201Y84188D01*
X73683Y83467D01*
X74405Y82985D01*
X75256Y82815D01*
X75972Y82958D01*
X76772Y82540D01*
Y80779D01*
X42252D01*
X39441Y83591D01*
Y114313D01*
X42183Y117055D01*
X43391D01*
X43566Y116794D01*
X44124Y116421D01*
X44783Y116290D01*
X46161D01*
X46820Y116421D01*
X47379Y116794D01*
X47752Y117353D01*
X47883Y118012D01*
Y120177D01*
X47752Y120836D01*
X47379Y121395D01*
X46820Y121768D01*
X46161Y121899D01*
X44783D01*
X44124Y121768D01*
X43566Y121395D01*
X43391Y121134D01*
X41339D01*
X40558Y120978D01*
X39897Y120536D01*
X39125Y119765D01*
X38386Y120071D01*
Y155512D01*
X43307Y160433D01*
X54134D01*
X59055Y165354D01*
Y174284D01*
X59360Y174324D01*
X60561Y174821D01*
X61592Y175613D01*
X62383Y176644D01*
X62881Y177845D01*
X63051Y179134D01*
Y180102D01*
X53091D01*
Y179134D01*
X53261Y177845D01*
X53758Y176644D01*
X54550Y175613D01*
X55581Y174821D01*
X56782Y174324D01*
X57087Y174284D01*
Y166339D01*
X53150Y162402D01*
X42323D01*
X36417Y156496D01*
X36417Y117057D01*
X35960Y116599D01*
X35518Y115938D01*
X35362Y115157D01*
Y83591D01*
X23622Y71850D01*
X14569D01*
X13795Y71913D01*
X13795Y72650D01*
Y74866D01*
X5890D01*
Y72650D01*
X5116Y71850D01*
X0D01*
Y196850D01*
X33912D01*
X34155Y196050D01*
D02*
G37*
G36*
X185039Y86614D02*
X185039Y64961D01*
X181102Y61024D01*
X145669Y61024D01*
X142190Y57544D01*
X140601Y59133D01*
X140771Y59303D01*
X136712Y63362D01*
X133488Y60139D01*
X137547Y56080D01*
X137717Y56250D01*
X139306Y54660D01*
X135827Y51181D01*
X135827Y15748D01*
X131890Y11811D01*
X110236D01*
X106299Y15748D01*
Y37402D01*
X122047Y53150D01*
X122047Y64090D01*
X122576Y64309D01*
X123086Y64700D01*
X123932Y64574D01*
X124301Y64036D01*
Y64036D01*
X128360Y59977D01*
X131584Y63201D01*
X127525Y67260D01*
X127355Y67090D01*
X126074Y68371D01*
X126019Y68932D01*
X126977Y69890D01*
X129024D01*
X129591Y69326D01*
X133650Y65267D01*
X136873Y68490D01*
X132814Y72549D01*
X132644Y72379D01*
X131653Y73371D01*
X131639Y73380D01*
X131554Y74162D01*
X132150Y74803D01*
X143701D01*
X159449Y90551D01*
X181102D01*
X185039Y86614D01*
D02*
G37*
G36*
X125000Y196285D02*
Y191735D01*
X124937Y190961D01*
X124200Y190961D01*
X121984D01*
Y187008D01*
Y183055D01*
X124200D01*
X125000Y182281D01*
Y175197D01*
X112205Y162402D01*
X102362Y162402D01*
X98425Y166339D01*
X98425Y174284D01*
X98730Y174324D01*
X99931Y174821D01*
X100962Y175613D01*
X101753Y176644D01*
X102251Y177845D01*
X102421Y179134D01*
Y180102D01*
X92461D01*
Y179134D01*
X92631Y177845D01*
X93129Y176644D01*
X93920Y175613D01*
X94951Y174821D01*
X96152Y174324D01*
X96457Y174284D01*
Y165333D01*
X101378Y160411D01*
X112205D01*
X117126Y155490D01*
X117126Y85119D01*
X116758Y84840D01*
X115839Y85103D01*
X115810Y85174D01*
X115329Y85801D01*
X114702Y86282D01*
X113972Y86584D01*
X113189Y86687D01*
X112406Y86584D01*
X111676Y86282D01*
X111049Y85801D01*
X110568Y85174D01*
X110266Y84445D01*
X110163Y83661D01*
X110180Y83536D01*
X107423Y80779D01*
X78740D01*
Y82540D01*
X79256Y82809D01*
Y86713D01*
Y90616D01*
X78826Y90840D01*
X78761Y91625D01*
X81567Y94432D01*
X81693Y94415D01*
X82476Y94518D01*
X83206Y94820D01*
X83833Y95301D01*
X84313Y95928D01*
X84616Y96658D01*
X84719Y97441D01*
X84616Y98224D01*
X84313Y98954D01*
X83833Y99581D01*
X83206Y100062D01*
X82476Y100364D01*
X81693Y100467D01*
X80910Y100364D01*
X80649Y100256D01*
X80196Y100934D01*
X81698Y102436D01*
X82140Y103098D01*
X82295Y103878D01*
X82295Y103878D01*
Y105622D01*
X82310Y105645D01*
X82348Y105834D01*
X83164D01*
X83201Y105645D01*
X83683Y104924D01*
X84405Y104441D01*
X85256Y104272D01*
X86107Y104441D01*
X86828Y104924D01*
X87310Y105645D01*
X87480Y106496D01*
Y109064D01*
X88280Y109395D01*
X90491Y107184D01*
X90581Y106500D01*
X90883Y105771D01*
X90955Y105677D01*
Y104150D01*
X89748D01*
Y98060D01*
X89748Y97622D01*
X89748Y96822D01*
Y94996D01*
X93504D01*
Y93996D01*
X94504D01*
Y90732D01*
X96822D01*
X97260Y90732D01*
X98060Y90732D01*
X100378D01*
Y93996D01*
X102378D01*
Y90732D01*
X104696D01*
X105134Y90732D01*
X105934Y90732D01*
X108252D01*
Y93996D01*
X109252D01*
Y94996D01*
X113008D01*
Y96822D01*
X113008Y97260D01*
X113008Y98060D01*
Y104150D01*
X111801D01*
Y105677D01*
X111872Y105771D01*
X112175Y106500D01*
X112278Y107283D01*
X112175Y108067D01*
X111872Y108796D01*
X111392Y109423D01*
X110765Y109904D01*
X110035Y110206D01*
X109252Y110309D01*
X108469Y110206D01*
X107739Y109904D01*
X107112Y109423D01*
X106632Y108796D01*
X106329Y108067D01*
X106226Y107283D01*
X106329Y106500D01*
X106632Y105771D01*
X106703Y105677D01*
Y104715D01*
X106137Y104150D01*
X105496Y104150D01*
X104727Y104150D01*
X103927Y104224D01*
Y105677D01*
X103998Y105771D01*
X104301Y106500D01*
X104404Y107283D01*
X104301Y108067D01*
X103998Y108796D01*
X103518Y109423D01*
X102891Y109904D01*
X102161Y110206D01*
X101378Y110309D01*
X100595Y110206D01*
X99865Y109904D01*
X99238Y109423D01*
X98757Y108796D01*
X98455Y108067D01*
X98352Y107283D01*
X98455Y106500D01*
X98757Y105771D01*
X98829Y105677D01*
Y104715D01*
X98263Y104150D01*
X97622Y104150D01*
X96853Y104150D01*
X96053Y104224D01*
Y105677D01*
X96124Y105771D01*
X96427Y106500D01*
X96530Y107283D01*
X96427Y108067D01*
X96124Y108796D01*
X95644Y109423D01*
X95017Y109904D01*
X94955Y109930D01*
X93523Y111361D01*
X93840Y112176D01*
X94287Y112235D01*
X95017Y112537D01*
X95644Y113018D01*
X95872Y113315D01*
X107071D01*
Y113075D01*
X112811D01*
Y117634D01*
X107071D01*
Y117394D01*
X103559D01*
Y121374D01*
X102728D01*
Y123720D01*
X102728Y123721D01*
X102573Y124501D01*
X102131Y125162D01*
X99881Y127413D01*
X100334Y128091D01*
X100595Y127983D01*
X101378Y127880D01*
X101504Y127896D01*
X107071Y122329D01*
Y120555D01*
X112811D01*
Y125114D01*
X110053D01*
X104387Y130780D01*
X104404Y130905D01*
X104301Y131689D01*
X103998Y132419D01*
X103518Y133045D01*
X103264Y133239D01*
X103536Y134039D01*
X105134Y134039D01*
X105934Y134039D01*
X108252D01*
Y137303D01*
X109252D01*
Y138303D01*
X113008D01*
Y140129D01*
X113008Y140567D01*
X113008Y141367D01*
Y147457D01*
X111801D01*
Y148984D01*
X111872Y149078D01*
X112175Y149807D01*
X112278Y150591D01*
X112175Y151374D01*
X111872Y152103D01*
X111392Y152730D01*
X110765Y153211D01*
X110035Y153513D01*
X109252Y153616D01*
X108469Y153513D01*
X107739Y153211D01*
X107112Y152730D01*
X106632Y152103D01*
X106329Y151374D01*
X106226Y150591D01*
X106329Y149807D01*
X106632Y149078D01*
X106703Y148984D01*
Y148022D01*
X106137Y147457D01*
X105496Y147457D01*
X104727Y147457D01*
X103927Y147531D01*
Y148984D01*
X103998Y149078D01*
X104301Y149807D01*
X104404Y150591D01*
X104301Y151374D01*
X103998Y152103D01*
X103518Y152730D01*
X102891Y153211D01*
X102161Y153513D01*
X101378Y153616D01*
X100595Y153513D01*
X99865Y153211D01*
X99238Y152730D01*
X98757Y152103D01*
X98455Y151374D01*
X98352Y150591D01*
X98455Y149807D01*
X98757Y149078D01*
X98829Y148984D01*
Y148022D01*
X98263Y147457D01*
X97622Y147457D01*
X96853Y147457D01*
X96053Y147531D01*
Y148984D01*
X96124Y149078D01*
X96427Y149807D01*
X96530Y150591D01*
X96427Y151374D01*
X96124Y152103D01*
X95644Y152730D01*
X95017Y153211D01*
X94287Y153513D01*
X93504Y153616D01*
X92721Y153513D01*
X91991Y153211D01*
X91364Y152730D01*
X90883Y152103D01*
X90581Y151374D01*
X90478Y150591D01*
X90581Y149807D01*
X90883Y149078D01*
X90955Y148984D01*
Y147457D01*
X89748D01*
Y141367D01*
X89748Y140929D01*
X89748Y140129D01*
Y138303D01*
X93504D01*
Y136303D01*
X89748D01*
Y134039D01*
X91346D01*
X91617Y133239D01*
X91364Y133045D01*
X90883Y132419D01*
X90581Y131689D01*
X90478Y130905D01*
X90581Y130122D01*
X90883Y129393D01*
X91364Y128766D01*
X91991Y128285D01*
X92721Y127983D01*
X93504Y127880D01*
X93629Y127896D01*
X95001Y126524D01*
X94548Y125846D01*
X94287Y125954D01*
X93504Y126057D01*
X92721Y125954D01*
X91991Y125652D01*
X91364Y125171D01*
X90910Y124578D01*
X89287D01*
Y125803D01*
X86815D01*
X86573Y126603D01*
X86828Y126774D01*
X87310Y127496D01*
X87480Y128347D01*
Y131693D01*
X87310Y132544D01*
X86828Y133265D01*
X86107Y133747D01*
X85256Y133917D01*
X84405Y133747D01*
X83683Y133265D01*
X83201Y132544D01*
X83164Y132355D01*
X82348D01*
X82310Y132544D01*
X81828Y133265D01*
X81256Y133648D01*
Y130020D01*
X79256D01*
Y133923D01*
X78740Y134192D01*
Y145591D01*
X79540Y145923D01*
X81636Y143826D01*
X81620Y143701D01*
X81723Y142918D01*
X82025Y142188D01*
X82506Y141561D01*
X83133Y141080D01*
X83863Y140778D01*
X84646Y140675D01*
X85429Y140778D01*
X86159Y141080D01*
X86785Y141561D01*
X87266Y142188D01*
X87568Y142918D01*
X87672Y143701D01*
X87568Y144484D01*
X87266Y145214D01*
X86785Y145840D01*
X86159Y146321D01*
X85429Y146624D01*
X85027Y146677D01*
X84933Y146828D01*
X85077Y147163D01*
X85392Y147606D01*
X86107Y147749D01*
X86828Y148231D01*
X87310Y148952D01*
X87480Y149803D01*
Y153150D01*
X87310Y154001D01*
X86828Y154722D01*
X86107Y155204D01*
X85256Y155374D01*
X85077Y155338D01*
X84465Y156032D01*
Y163106D01*
X83750D01*
Y173721D01*
X83556Y174696D01*
X83003Y175523D01*
X81988Y176539D01*
X82068Y176644D01*
X82566Y177845D01*
X82736Y179134D01*
Y183071D01*
X82566Y184360D01*
X82068Y185561D01*
X81277Y186592D01*
X80246Y187383D01*
X79045Y187881D01*
X78740Y187921D01*
Y196829D01*
X96457D01*
Y187921D01*
X96152Y187881D01*
X94951Y187383D01*
X93920Y186592D01*
X93129Y185561D01*
X92631Y184360D01*
X92461Y183071D01*
Y182102D01*
X102421D01*
Y183071D01*
X102251Y184360D01*
X101753Y185561D01*
X100962Y186592D01*
X99931Y187383D01*
X98730Y187881D01*
X98425Y187921D01*
X98425Y196851D01*
X124434D01*
X125000Y196285D01*
D02*
G37*
G36*
X98650Y122876D02*
Y121374D01*
X97819D01*
Y117394D01*
X95518D01*
X95017Y117778D01*
X94287Y118080D01*
X93504Y118183D01*
X92721Y118080D01*
X91991Y117778D01*
X91364Y117297D01*
X90883Y116670D01*
X90581Y115941D01*
X90552Y115716D01*
X89780Y115408D01*
X89287Y115797D01*
Y118476D01*
X89287Y118913D01*
X89287Y119700D01*
X89319Y120500D01*
X91875D01*
X91991Y120411D01*
X92721Y120109D01*
X93504Y120006D01*
X94287Y120109D01*
X95017Y120411D01*
X95644Y120892D01*
X96124Y121519D01*
X96427Y122248D01*
X96530Y123031D01*
X96427Y123815D01*
X96319Y124076D01*
X96997Y124529D01*
X98650Y122876D01*
D02*
G37*
G36*
X165354Y119094D02*
X165354Y108268D01*
X169291Y104331D01*
X192913D01*
X196851Y100394D01*
X196851Y0D01*
X96457Y-0D01*
X92520Y3937D01*
Y27559D01*
X88583Y31496D01*
X77756D01*
X73819Y35433D01*
Y40584D01*
X74360Y41290D01*
X74763Y42263D01*
X74901Y43307D01*
X74763Y44351D01*
X74360Y45324D01*
X73819Y46030D01*
Y51181D01*
X77756Y55118D01*
X100394Y55118D01*
X104331Y51181D01*
Y14811D01*
X109252Y9843D01*
X132874D01*
X137795Y14764D01*
Y50197D01*
X139721Y52122D01*
X140519Y52070D01*
X140577Y51994D01*
X141204Y51513D01*
X141933Y51211D01*
X142717Y51108D01*
X143500Y51211D01*
X144229Y51513D01*
X144856Y51994D01*
X145337Y52621D01*
X145639Y53351D01*
X145742Y54134D01*
X145639Y54917D01*
X145337Y55647D01*
X144856Y56274D01*
X144781Y56331D01*
X144728Y57130D01*
X146653Y59055D01*
X182087D01*
X187008Y63977D01*
Y87599D01*
X182063Y92544D01*
X145693D01*
X141756Y96481D01*
X141753Y99504D01*
X141837Y99613D01*
X142189Y100464D01*
X142310Y101378D01*
Y119672D01*
X145092Y122454D01*
X161995D01*
X165354Y119094D01*
D02*
G37*
G36*
X76772Y145591D02*
Y135905D01*
X75972Y135574D01*
X73875Y137670D01*
X73892Y137795D01*
X73789Y138578D01*
X73487Y139308D01*
X73006Y139935D01*
X72549Y140285D01*
X72476Y140627D01*
Y140869D01*
X72549Y141211D01*
X73006Y141561D01*
X73487Y142188D01*
X73789Y142918D01*
X73892Y143701D01*
X73875Y143826D01*
X75972Y145923D01*
X76772Y145591D01*
D02*
G37*
G36*
X39897Y77298D02*
X40558Y76856D01*
X41339Y76701D01*
X108268D01*
X109048Y76856D01*
X109710Y77298D01*
X110167Y77756D01*
X114173D01*
X115192Y78775D01*
X123428Y70539D01*
X123395Y69722D01*
X122790Y69386D01*
X122576Y69550D01*
X121846Y69852D01*
X121063Y69955D01*
X120280Y69852D01*
X119550Y69550D01*
X118923Y69069D01*
X118442Y68442D01*
X118140Y67712D01*
X118037Y66929D01*
X118140Y66146D01*
X118442Y65416D01*
X118923Y64789D01*
X119550Y64309D01*
X120079Y64090D01*
X120079Y54134D01*
X107038Y41093D01*
X106299Y41400D01*
X106299Y52165D01*
X101378Y57087D01*
X76772D01*
X71850Y52165D01*
Y47819D01*
X71249Y47291D01*
X70866Y47342D01*
X69822Y47204D01*
X68936Y46837D01*
X63992D01*
Y51000D01*
X55496D01*
Y35614D01*
X63992D01*
Y39777D01*
X68936D01*
X69822Y39410D01*
X70866Y39273D01*
X71249Y39323D01*
X71850Y38796D01*
Y34449D01*
X76772Y29527D01*
X87599Y29528D01*
X90551Y26575D01*
Y2953D01*
X92765Y739D01*
X92459Y-0D01*
X0Y0D01*
X-0Y69316D01*
X566Y69882D01*
X7269D01*
X7540Y69082D01*
X7023Y68685D01*
X6390Y67860D01*
X5991Y66898D01*
X5987Y66866D01*
X13698D01*
X13693Y66898D01*
X13295Y67860D01*
X12662Y68685D01*
X12145Y69082D01*
X12416Y69882D01*
X24606D01*
X35960Y81235D01*
X39897Y77298D01*
D02*
G37*
G36*
X76772Y187921D02*
X76467Y187881D01*
X75266Y187383D01*
X74235Y186592D01*
X73443Y185561D01*
X73231Y185047D01*
X72431Y185207D01*
Y189961D01*
X72237Y190936D01*
X71684Y191763D01*
X67747Y195700D01*
X67223Y196050D01*
X67466Y196850D01*
X76772D01*
Y187921D01*
D02*
G37*
G36*
X196850Y196850D02*
Y104392D01*
X196111Y104086D01*
X193898Y106299D01*
X170276D01*
X167323Y109252D01*
Y116994D01*
X168062Y117300D01*
X171716Y113646D01*
X172448Y113084D01*
X173299Y112732D01*
X174213Y112612D01*
X181264D01*
X182039Y112291D01*
X183071Y112155D01*
X187008D01*
X188040Y112291D01*
X189001Y112689D01*
X189827Y113323D01*
X190461Y114148D01*
X190859Y115110D01*
X190995Y116142D01*
X190859Y117174D01*
X190461Y118135D01*
X189827Y118961D01*
X189001Y119595D01*
X188040Y119993D01*
X187008Y120129D01*
X183071D01*
X182039Y119993D01*
X181264Y119672D01*
X175675D01*
X166866Y128481D01*
X166135Y129042D01*
X165284Y129394D01*
X164370Y129515D01*
X142717D01*
X141803Y129394D01*
X140951Y129042D01*
X140220Y128481D01*
X136283Y124543D01*
X135722Y123812D01*
X135370Y122961D01*
X135249Y122047D01*
Y118270D01*
X134449Y118111D01*
X134234Y118631D01*
X133442Y119663D01*
X132411Y120454D01*
X131210Y120952D01*
X129921Y121121D01*
X128632Y120952D01*
X127431Y120454D01*
X126400Y119663D01*
X125609Y118631D01*
X125111Y117430D01*
X124942Y116142D01*
X125111Y114853D01*
X125609Y113652D01*
X126400Y112621D01*
X127431Y111829D01*
X128632Y111332D01*
X129921Y111162D01*
X131210Y111332D01*
X132411Y111829D01*
X133442Y112621D01*
X134234Y113652D01*
X134449Y114172D01*
X135249Y114013D01*
Y102840D01*
X133568Y101159D01*
X132928Y100894D01*
X132102Y100260D01*
X131468Y99434D01*
X131070Y98473D01*
X130934Y97441D01*
X131070Y96409D01*
X131468Y95447D01*
X132102Y94622D01*
X132928Y93988D01*
X133889Y93590D01*
X134921Y93454D01*
X135953Y93590D01*
X136915Y93988D01*
X137740Y94622D01*
X138374Y95447D01*
X138751Y96356D01*
X139025Y96631D01*
X139764Y96324D01*
Y95472D01*
X144685Y90551D01*
X155451Y90551D01*
X155757Y89812D01*
X142717Y76772D01*
X130905D01*
X128102Y73968D01*
X125766D01*
X118076Y81659D01*
X119095Y82677D01*
Y156496D01*
X114173Y161417D01*
X126969Y174213D01*
Y184434D01*
X127769Y184706D01*
X128165Y184189D01*
X128991Y183555D01*
X129952Y183157D01*
X129984Y183153D01*
Y187008D01*
Y190863D01*
X129952Y190859D01*
X128991Y190461D01*
X128165Y189827D01*
X127769Y189310D01*
X126969Y189582D01*
Y196285D01*
X127534Y196850D01*
X196850Y196850D01*
D02*
G37*
%LPC*%
G36*
X37402Y74862D02*
X35662Y74691D01*
X33989Y74183D01*
X32448Y73359D01*
X31096Y72250D01*
X29987Y70899D01*
X29163Y69357D01*
X28656Y67685D01*
X28485Y65945D01*
X28656Y64205D01*
X29163Y62533D01*
X29987Y60991D01*
X31096Y59640D01*
X32448Y58531D01*
X33989Y57707D01*
X35662Y57199D01*
X37402Y57028D01*
X39141Y57199D01*
X40814Y57707D01*
X42356Y58531D01*
X43707Y59640D01*
X44816Y60991D01*
X45640Y62533D01*
X46147Y64205D01*
X46319Y65945D01*
X46147Y67685D01*
X45640Y69357D01*
X44816Y70899D01*
X43707Y72250D01*
X42356Y73359D01*
X40814Y74183D01*
X39141Y74691D01*
X37402Y74862D01*
D02*
G37*
G36*
X99410Y65916D02*
X98378Y65780D01*
X97416Y65382D01*
X96590Y64748D01*
X95957Y63923D01*
X95558Y62961D01*
X95423Y61929D01*
X95558Y60897D01*
X95957Y59936D01*
X96590Y59110D01*
X97416Y58476D01*
X98378Y58078D01*
X99410Y57942D01*
X100441Y58078D01*
X101403Y58476D01*
X102229Y59110D01*
X102862Y59936D01*
X103261Y60897D01*
X103396Y61929D01*
X103261Y62961D01*
X102862Y63923D01*
X102229Y64748D01*
X101403Y65382D01*
X100441Y65780D01*
X99410Y65916D01*
D02*
G37*
G36*
X80988Y51000D02*
X77740D01*
Y44307D01*
X80988D01*
Y51000D01*
D02*
G37*
G36*
X86236D02*
X82988D01*
Y44307D01*
X86236D01*
Y51000D01*
D02*
G37*
G36*
X13795Y79819D02*
X10842D01*
Y76866D01*
X13795D01*
Y79819D01*
D02*
G37*
G36*
X8843D02*
X5890D01*
Y76866D01*
X8843D01*
Y79819D01*
D02*
G37*
G36*
X170276Y86860D02*
X168574Y86726D01*
X166915Y86328D01*
X165338Y85675D01*
X163883Y84783D01*
X162585Y83675D01*
X161477Y82377D01*
X160585Y80922D01*
X159932Y79345D01*
X159534Y77686D01*
X159400Y75984D01*
X159534Y74283D01*
X159932Y72623D01*
X160585Y71047D01*
X161477Y69591D01*
X162585Y68294D01*
X163883Y67185D01*
X165338Y66294D01*
X166915Y65641D01*
X168574Y65242D01*
X170276Y65108D01*
X171977Y65242D01*
X173636Y65641D01*
X175213Y66294D01*
X176668Y67185D01*
X177966Y68294D01*
X179075Y69591D01*
X179966Y71047D01*
X180619Y72623D01*
X181018Y74283D01*
X181152Y75984D01*
X181018Y77686D01*
X180619Y79345D01*
X179966Y80922D01*
X179075Y82377D01*
X177966Y83675D01*
X176668Y84783D01*
X175213Y85675D01*
X173636Y86328D01*
X171977Y86726D01*
X170276Y86860D01*
D02*
G37*
G36*
X103362Y75882D02*
X95457D01*
Y67976D01*
X103362D01*
Y75882D01*
D02*
G37*
G36*
X115173D02*
X107268D01*
Y67976D01*
X115173D01*
Y75882D01*
D02*
G37*
G36*
X111221Y65916D02*
X110189Y65780D01*
X109227Y65382D01*
X108401Y64748D01*
X107768Y63923D01*
X107369Y62961D01*
X107234Y61929D01*
X107369Y60897D01*
X107768Y59936D01*
X108401Y59110D01*
X109227Y58476D01*
X110189Y58078D01*
X111221Y57942D01*
X112252Y58078D01*
X113214Y58476D01*
X114040Y59110D01*
X114673Y59936D01*
X115071Y60897D01*
X115207Y61929D01*
X115071Y62961D01*
X114673Y63923D01*
X114040Y64748D01*
X113214Y65382D01*
X112252Y65780D01*
X111221Y65916D01*
D02*
G37*
G36*
X8843Y64866D02*
X5987D01*
X5991Y64834D01*
X6390Y63873D01*
X7023Y63047D01*
X7849Y62413D01*
X8811Y62015D01*
X8843Y62011D01*
Y64866D01*
D02*
G37*
G36*
X13698D02*
X10842D01*
Y62011D01*
X10874Y62015D01*
X11836Y62413D01*
X12662Y63047D01*
X13295Y63873D01*
X13693Y64834D01*
X13698Y64866D01*
D02*
G37*
G36*
X154465Y47260D02*
X151512D01*
Y44307D01*
X154465D01*
Y47260D01*
D02*
G37*
G36*
X185039Y22696D02*
X183750Y22526D01*
X182550Y22029D01*
X181518Y21238D01*
X180727Y20206D01*
X180229Y19005D01*
X180060Y17717D01*
Y13780D01*
X180229Y12491D01*
X180727Y11290D01*
X181518Y10259D01*
X182550Y9467D01*
X183750Y8970D01*
X185039Y8800D01*
X186328Y8970D01*
X187529Y9467D01*
X188560Y10259D01*
X189352Y11290D01*
X189849Y12491D01*
X190019Y13780D01*
Y17717D01*
X189849Y19005D01*
X189352Y20206D01*
X188560Y21238D01*
X187529Y22029D01*
X186328Y22526D01*
X185039Y22696D01*
D02*
G37*
G36*
X160512Y47294D02*
X159480Y47158D01*
X158518Y46760D01*
X157693Y46126D01*
X157059Y45300D01*
X156661Y44339D01*
X156525Y43307D01*
X156661Y42275D01*
X156982Y41501D01*
Y20591D01*
X157102Y19677D01*
X157455Y18825D01*
X158016Y18094D01*
X160375Y15735D01*
Y13780D01*
X160544Y12491D01*
X161042Y11290D01*
X161833Y10259D01*
X162864Y9467D01*
X164066Y8970D01*
X165354Y8800D01*
X166643Y8970D01*
X167844Y9467D01*
X168876Y10259D01*
X169667Y11290D01*
X170164Y12491D01*
X170334Y13780D01*
Y17717D01*
X170164Y19005D01*
X169667Y20206D01*
X168876Y21238D01*
X167844Y22029D01*
X166643Y22526D01*
X165354Y22696D01*
X164842Y22629D01*
X164042Y23330D01*
Y41501D01*
X164363Y42275D01*
X164499Y43307D01*
X164363Y44339D01*
X163964Y45300D01*
X163331Y46126D01*
X162505Y46760D01*
X161544Y47158D01*
X160512Y47294D01*
D02*
G37*
G36*
X71866Y17635D02*
Y12811D01*
X74853D01*
Y13780D01*
X74717Y14811D01*
X74319Y15773D01*
X73685Y16599D01*
X72860Y17232D01*
X71898Y17631D01*
X71866Y17635D01*
D02*
G37*
G36*
X69866D02*
X69834Y17631D01*
X68873Y17232D01*
X68047Y16599D01*
X67414Y15773D01*
X67015Y14811D01*
X66879Y13780D01*
Y12811D01*
X69866D01*
Y17635D01*
D02*
G37*
G36*
X80709Y17766D02*
X79677Y17631D01*
X78715Y17232D01*
X77890Y16599D01*
X77256Y15773D01*
X76858Y14811D01*
X76722Y13780D01*
Y9843D01*
X76858Y8811D01*
X77256Y7849D01*
X77890Y7023D01*
X78715Y6390D01*
X79677Y5992D01*
X80709Y5856D01*
X81741Y5992D01*
X82702Y6390D01*
X83528Y7023D01*
X84161Y7849D01*
X84560Y8811D01*
X84696Y9843D01*
Y13780D01*
X84560Y14811D01*
X84161Y15773D01*
X83528Y16599D01*
X82702Y17232D01*
X81741Y17631D01*
X80709Y17766D01*
D02*
G37*
G36*
X61024D02*
X59992Y17631D01*
X59030Y17232D01*
X58205Y16599D01*
X57571Y15773D01*
X57173Y14811D01*
X57037Y13780D01*
Y9843D01*
X57173Y8811D01*
X57571Y7849D01*
X58205Y7023D01*
X59030Y6390D01*
X59992Y5992D01*
X61024Y5856D01*
X62056Y5992D01*
X63017Y6390D01*
X63843Y7023D01*
X64476Y7849D01*
X64875Y8811D01*
X65010Y9843D01*
Y13780D01*
X64875Y14811D01*
X64476Y15773D01*
X63843Y16599D01*
X63017Y17232D01*
X62056Y17631D01*
X61024Y17766D01*
D02*
G37*
G36*
X74853Y10811D02*
X71866D01*
Y5987D01*
X71898Y5992D01*
X72860Y6390D01*
X73685Y7023D01*
X74319Y7849D01*
X74717Y8811D01*
X74853Y9843D01*
Y10811D01*
D02*
G37*
G36*
X69866D02*
X66879D01*
Y9843D01*
X67015Y8811D01*
X67414Y7849D01*
X68047Y7023D01*
X68873Y6390D01*
X69834Y5992D01*
X69866Y5987D01*
Y10811D01*
D02*
G37*
G36*
X149512Y42307D02*
X146559D01*
Y39354D01*
X149512D01*
Y42307D01*
D02*
G37*
G36*
X86236Y42307D02*
X82988D01*
Y35614D01*
X86236D01*
Y42307D01*
D02*
G37*
G36*
X149512Y47260D02*
X146559D01*
Y44307D01*
X149512D01*
Y47260D01*
D02*
G37*
G36*
X154465Y42307D02*
X151512D01*
Y39354D01*
X154465D01*
Y42307D01*
D02*
G37*
G36*
X120866Y37451D02*
X119165Y37317D01*
X117505Y36919D01*
X115929Y36266D01*
X114473Y35374D01*
X113176Y34265D01*
X112067Y32968D01*
X111176Y31512D01*
X110522Y29936D01*
X110124Y28276D01*
X109990Y26575D01*
X110124Y24873D01*
X110522Y23214D01*
X111176Y21637D01*
X112067Y20182D01*
X113176Y18884D01*
X114473Y17776D01*
X115929Y16884D01*
X117505Y16231D01*
X119165Y15833D01*
X120866Y15699D01*
X122568Y15833D01*
X124227Y16231D01*
X125804Y16884D01*
X127259Y17776D01*
X128557Y18884D01*
X129665Y20182D01*
X130557Y21637D01*
X131210Y23214D01*
X131608Y24873D01*
X131742Y26575D01*
X131608Y28276D01*
X131210Y29936D01*
X130557Y31512D01*
X129665Y32968D01*
X128557Y34265D01*
X127259Y35374D01*
X125804Y36266D01*
X124227Y36919D01*
X122568Y37317D01*
X120866Y37451D01*
D02*
G37*
G36*
X20866D02*
X19165Y37317D01*
X17505Y36919D01*
X15929Y36266D01*
X14473Y35374D01*
X13176Y34265D01*
X12067Y32968D01*
X11176Y31512D01*
X10522Y29936D01*
X10124Y28276D01*
X9990Y26575D01*
X10124Y24873D01*
X10522Y23214D01*
X11176Y21637D01*
X12067Y20182D01*
X13176Y18884D01*
X14473Y17776D01*
X15929Y16884D01*
X17505Y16231D01*
X19165Y15833D01*
X20866Y15699D01*
X22568Y15833D01*
X24227Y16231D01*
X25804Y16884D01*
X27259Y17776D01*
X28557Y18884D01*
X29665Y20182D01*
X30557Y21637D01*
X31210Y23214D01*
X31608Y24873D01*
X31742Y26575D01*
X31608Y28276D01*
X31210Y29936D01*
X30557Y31512D01*
X29665Y32968D01*
X28557Y34265D01*
X27259Y35374D01*
X25804Y36266D01*
X24227Y36919D01*
X22568Y37317D01*
X20866Y37451D01*
D02*
G37*
G36*
X80988Y42307D02*
X77740D01*
Y35614D01*
X80988D01*
Y42307D01*
D02*
G37*
G36*
X185039Y52224D02*
X183300Y52053D01*
X181627Y51545D01*
X180085Y50721D01*
X178734Y49612D01*
X177625Y48261D01*
X176801Y46720D01*
X176294Y45047D01*
X176122Y43307D01*
X176294Y41568D01*
X176801Y39895D01*
X177625Y38353D01*
X178734Y37002D01*
X180085Y35893D01*
X181627Y35069D01*
X183300Y34561D01*
X185039Y34390D01*
X186779Y34561D01*
X188452Y35069D01*
X189993Y35893D01*
X191345Y37002D01*
X192454Y38353D01*
X193278Y39895D01*
X193785Y41568D01*
X193956Y43307D01*
X193785Y45047D01*
X193278Y46720D01*
X192454Y48261D01*
X191345Y49612D01*
X189993Y50721D01*
X188452Y51545D01*
X186779Y52053D01*
X185039Y52224D01*
D02*
G37*
G36*
X113008Y136303D02*
X110252D01*
Y134039D01*
X113008D01*
Y136303D01*
D02*
G37*
G36*
X164370Y151672D02*
X163326Y151535D01*
X162353Y151132D01*
X161517Y150491D01*
X160876Y149655D01*
X160718Y149274D01*
X152799Y141354D01*
X145851D01*
Y132858D01*
X161236D01*
Y139807D01*
X165133Y143704D01*
X165414Y143741D01*
X166387Y144144D01*
X167223Y144785D01*
X167864Y145621D01*
X168267Y146594D01*
X168405Y147638D01*
X168267Y148682D01*
X167864Y149655D01*
X167223Y150491D01*
X166387Y151132D01*
X165414Y151535D01*
X164370Y151672D01*
D02*
G37*
G36*
X45260Y147457D02*
X42504D01*
Y145193D01*
X45260D01*
Y147457D01*
D02*
G37*
G36*
X11811Y162460D02*
X10071Y162289D01*
X8399Y161782D01*
X6857Y160958D01*
X5506Y159849D01*
X4397Y158497D01*
X3573Y156956D01*
X3065Y155283D01*
X2894Y153543D01*
X3065Y151804D01*
X3573Y150131D01*
X4397Y148589D01*
X5506Y147238D01*
X6857Y146129D01*
X8399Y145305D01*
X10071Y144798D01*
X11811Y144626D01*
X13551Y144798D01*
X15223Y145305D01*
X16765Y146129D01*
X18116Y147238D01*
X19225Y148589D01*
X20049Y150131D01*
X20557Y151804D01*
X20728Y153543D01*
X20557Y155283D01*
X20049Y156956D01*
X19225Y158497D01*
X18116Y159849D01*
X16765Y160958D01*
X15223Y161782D01*
X13551Y162289D01*
X11811Y162460D01*
D02*
G37*
G36*
X187008Y129971D02*
X186039D01*
Y126984D01*
X190863D01*
X190859Y127016D01*
X190461Y127978D01*
X189827Y128803D01*
X189001Y129437D01*
X188040Y129835D01*
X187008Y129971D01*
D02*
G37*
G36*
X184039D02*
X183071D01*
X182039Y129835D01*
X181078Y129437D01*
X180252Y128803D01*
X179618Y127978D01*
X179220Y127016D01*
X179216Y126984D01*
X184039D01*
Y129971D01*
D02*
G37*
G36*
X187008Y139814D02*
X183071D01*
X182039Y139678D01*
X181078Y139279D01*
X180252Y138646D01*
X179618Y137820D01*
X179220Y136859D01*
X179084Y135827D01*
X179220Y134795D01*
X179618Y133833D01*
X180252Y133008D01*
X181078Y132374D01*
X182039Y131976D01*
X183071Y131840D01*
X187008D01*
X188040Y131976D01*
X189001Y132374D01*
X189827Y133008D01*
X190461Y133833D01*
X190859Y134795D01*
X190995Y135827D01*
X190859Y136859D01*
X190461Y137820D01*
X189827Y138646D01*
X189001Y139279D01*
X188040Y139678D01*
X187008Y139814D01*
D02*
G37*
G36*
X131890Y160483D02*
X127953D01*
X126921Y160347D01*
X125959Y159949D01*
X125134Y159315D01*
X124500Y158490D01*
X124102Y157528D01*
X123966Y156496D01*
X124102Y155464D01*
X124500Y154503D01*
X125134Y153677D01*
X125959Y153043D01*
X126391Y152865D01*
Y139336D01*
X125609Y138317D01*
X125111Y137116D01*
X124942Y135827D01*
X125111Y134538D01*
X125609Y133337D01*
X126400Y132306D01*
X127431Y131514D01*
X128632Y131017D01*
X129921Y130847D01*
X131210Y131017D01*
X132411Y131514D01*
X133442Y132306D01*
X134234Y133337D01*
X134731Y134538D01*
X134901Y135827D01*
X134731Y137116D01*
X134234Y138317D01*
X133451Y139336D01*
Y152865D01*
X133883Y153043D01*
X134709Y153677D01*
X135343Y154503D01*
X135741Y155464D01*
X135877Y156496D01*
X135741Y157528D01*
X135343Y158490D01*
X134709Y159315D01*
X133883Y159949D01*
X132922Y160347D01*
X131890Y160483D01*
D02*
G37*
G36*
X134839Y186008D02*
X131984D01*
Y183153D01*
X132016Y183157D01*
X132978Y183555D01*
X133803Y184189D01*
X134437Y185014D01*
X134835Y185976D01*
X134839Y186008D01*
D02*
G37*
G36*
X119984D02*
X117032D01*
Y183055D01*
X119984D01*
Y186008D01*
D02*
G37*
G36*
X131984Y190863D02*
Y188008D01*
X134839D01*
X134835Y188040D01*
X134437Y189001D01*
X133803Y189827D01*
X132978Y190461D01*
X132016Y190859D01*
X131984Y190863D01*
D02*
G37*
G36*
X119984Y190961D02*
X117032D01*
Y188008D01*
X119984D01*
Y190961D01*
D02*
G37*
G36*
X131890Y170325D02*
X127953D01*
X126921Y170190D01*
X125959Y169791D01*
X125134Y169158D01*
X124500Y168332D01*
X124102Y167370D01*
X123966Y166339D01*
X124102Y165307D01*
X124500Y164345D01*
X125134Y163519D01*
X125959Y162886D01*
X126921Y162488D01*
X127953Y162352D01*
X131890D01*
X132922Y162488D01*
X133883Y162886D01*
X134709Y163519D01*
X135343Y164345D01*
X135741Y165307D01*
X135877Y166339D01*
X135741Y167370D01*
X135343Y168332D01*
X134709Y169158D01*
X133883Y169791D01*
X132922Y170190D01*
X131890Y170325D01*
D02*
G37*
G36*
X63008Y147457D02*
Y145193D01*
X65764D01*
Y147457D01*
X63008D01*
D02*
G37*
G36*
X11811Y188050D02*
X10522Y187881D01*
X9321Y187383D01*
X8290Y186592D01*
X7499Y185561D01*
X7001Y184360D01*
X6831Y183071D01*
Y179134D01*
X7001Y177845D01*
X7499Y176644D01*
X8290Y175613D01*
X9321Y174821D01*
X10522Y174324D01*
X11811Y174154D01*
X13100Y174324D01*
X14301Y174821D01*
X15332Y175613D01*
X16124Y176644D01*
X16621Y177845D01*
X16791Y179134D01*
Y183071D01*
X16621Y184360D01*
X16124Y185561D01*
X15332Y186592D01*
X14301Y187383D01*
X13100Y187881D01*
X11811Y188050D01*
D02*
G37*
G36*
X170276Y186860D02*
X168574Y186726D01*
X166915Y186328D01*
X165338Y185675D01*
X163883Y184783D01*
X162585Y183675D01*
X161477Y182377D01*
X160585Y180922D01*
X159932Y179345D01*
X159534Y177686D01*
X159400Y175984D01*
X159534Y174283D01*
X159932Y172623D01*
X160585Y171047D01*
X161477Y169591D01*
X162585Y168294D01*
X163883Y167185D01*
X165338Y166294D01*
X166915Y165641D01*
X168574Y165242D01*
X170276Y165108D01*
X171977Y165242D01*
X173636Y165641D01*
X175213Y166294D01*
X176668Y167185D01*
X177966Y168294D01*
X179075Y169591D01*
X179966Y171047D01*
X180619Y172623D01*
X181018Y174283D01*
X181152Y175984D01*
X181018Y177686D01*
X180619Y179345D01*
X179966Y180922D01*
X179075Y182377D01*
X177966Y183675D01*
X176668Y184783D01*
X175213Y185675D01*
X173636Y186328D01*
X171977Y186726D01*
X170276Y186860D01*
D02*
G37*
G36*
X128874Y101394D02*
X120968D01*
Y93488D01*
X128874D01*
Y101394D01*
D02*
G37*
G36*
X113008Y92996D02*
X110252D01*
Y90732D01*
X113008D01*
Y92996D01*
D02*
G37*
G36*
X63008Y104150D02*
Y101886D01*
X65764D01*
Y104150D01*
X63008D01*
D02*
G37*
G36*
X45260D02*
X42504D01*
Y101886D01*
X45260D01*
Y104150D01*
D02*
G37*
G36*
X128874Y89583D02*
X120968D01*
Y81677D01*
X128874D01*
Y89583D01*
D02*
G37*
G36*
X134921Y89617D02*
X133889Y89481D01*
X132928Y89083D01*
X132102Y88449D01*
X131468Y87623D01*
X131070Y86662D01*
X130934Y85630D01*
X131070Y84598D01*
X131468Y83636D01*
X132102Y82811D01*
X132928Y82177D01*
X133889Y81779D01*
X134921Y81643D01*
X135953Y81779D01*
X136915Y82177D01*
X137740Y82811D01*
X138374Y83636D01*
X138772Y84598D01*
X138908Y85630D01*
X138772Y86662D01*
X138374Y87623D01*
X137740Y88449D01*
X136915Y89083D01*
X135953Y89481D01*
X134921Y89617D01*
D02*
G37*
G36*
X92504Y92996D02*
X89748D01*
Y90732D01*
X92504D01*
Y92996D01*
D02*
G37*
G36*
X85256Y90610D02*
X84405Y90440D01*
X83683Y89958D01*
X83201Y89237D01*
X83164Y89048D01*
X82348D01*
X82310Y89237D01*
X81828Y89958D01*
X81256Y90341D01*
Y86713D01*
Y83084D01*
X81828Y83467D01*
X82310Y84188D01*
X82348Y84377D01*
X83164D01*
X83201Y84188D01*
X83683Y83467D01*
X84405Y82985D01*
X85256Y82815D01*
X86107Y82985D01*
X86828Y83467D01*
X87310Y84188D01*
X87480Y85039D01*
Y88386D01*
X87310Y89237D01*
X86828Y89958D01*
X86107Y90440D01*
X85256Y90610D01*
D02*
G37*
G36*
X161236Y119110D02*
X154543D01*
Y115862D01*
X161236D01*
Y119110D01*
D02*
G37*
G36*
X152543D02*
X145851D01*
Y115862D01*
X152543D01*
Y119110D01*
D02*
G37*
G36*
X190863Y124984D02*
X186039D01*
Y121997D01*
X187008D01*
X188040Y122133D01*
X189001Y122532D01*
X189827Y123165D01*
X190461Y123991D01*
X190859Y124952D01*
X190863Y124984D01*
D02*
G37*
G36*
X184039D02*
X179216D01*
X179220Y124952D01*
X179618Y123991D01*
X180252Y123165D01*
X181078Y122532D01*
X182039Y122133D01*
X183071Y121997D01*
X184039D01*
Y124984D01*
D02*
G37*
G36*
X69256Y107169D02*
X68032D01*
Y106496D01*
X68201Y105645D01*
X68683Y104924D01*
X69256Y104541D01*
Y107169D01*
D02*
G37*
G36*
X58252Y104150D02*
X57452Y104150D01*
X55134D01*
Y100886D01*
X53134D01*
Y104150D01*
X50816D01*
X50378Y104150D01*
X49578Y104150D01*
X47260D01*
Y100886D01*
X46260D01*
Y99886D01*
X42504D01*
Y98060D01*
X42504Y97622D01*
X42504Y96822D01*
Y90732D01*
X43711D01*
Y89205D01*
X43639Y89111D01*
X43337Y88382D01*
X43234Y87598D01*
X43337Y86815D01*
X43639Y86085D01*
X44120Y85459D01*
X44747Y84978D01*
X45477Y84676D01*
X46260Y84572D01*
X47043Y84676D01*
X47773Y84978D01*
X48399Y85459D01*
X48880Y86085D01*
X49183Y86815D01*
X49286Y87598D01*
X49183Y88382D01*
X48880Y89111D01*
X48809Y89205D01*
Y90167D01*
X49374Y90732D01*
X50016Y90732D01*
X50785Y90732D01*
X51585Y90658D01*
Y89205D01*
X51513Y89111D01*
X51211Y88382D01*
X51108Y87598D01*
X51211Y86815D01*
X51513Y86085D01*
X51994Y85459D01*
X52621Y84978D01*
X53351Y84676D01*
X54134Y84572D01*
X54917Y84676D01*
X55647Y84978D01*
X56274Y85459D01*
X56754Y86085D01*
X57057Y86815D01*
X57160Y87598D01*
X57057Y88382D01*
X56754Y89111D01*
X56683Y89205D01*
Y90167D01*
X57249Y90732D01*
X57890Y90732D01*
X58659Y90732D01*
X59459Y90658D01*
Y89205D01*
X59387Y89111D01*
X59085Y88382D01*
X58982Y87598D01*
X59085Y86815D01*
X59387Y86085D01*
X59868Y85459D01*
X60495Y84978D01*
X61225Y84676D01*
X62008Y84572D01*
X62791Y84676D01*
X63521Y84978D01*
X64148Y85459D01*
X64628Y86085D01*
X64931Y86815D01*
X65034Y87598D01*
X64931Y88382D01*
X64628Y89111D01*
X64557Y89205D01*
Y90732D01*
X65764D01*
Y96822D01*
X65764Y97260D01*
X65764Y98060D01*
Y99886D01*
X62008D01*
Y100886D01*
X61008D01*
Y104150D01*
X58690D01*
X58252Y104150D01*
D02*
G37*
G36*
X161236Y113862D02*
X154543D01*
Y110614D01*
X161236D01*
Y113862D01*
D02*
G37*
G36*
X152543D02*
X145851D01*
Y110614D01*
X152543D01*
Y113862D01*
D02*
G37*
%LPD*%
D10*
X74311Y159449D02*
D03*
X81201D02*
D03*
D11*
X45472Y119095D02*
D03*
D12*
X54921Y116535D02*
D03*
Y121653D02*
D03*
D13*
X85630Y115650D02*
D03*
Y122539D02*
D03*
X69882Y115650D02*
D03*
Y122539D02*
D03*
X77756Y115650D02*
D03*
Y122539D02*
D03*
D14*
X100689Y119095D02*
D03*
X109941Y115354D02*
D03*
Y122835D02*
D03*
D15*
X127943Y63619D02*
D03*
X133232Y68908D02*
D03*
X137129Y59721D02*
D03*
D16*
X70256Y86713D02*
D03*
X75256D02*
D03*
X70256Y108169D02*
D03*
X85256Y86713D02*
D03*
X80256D02*
D03*
X75256Y108169D02*
D03*
X80256D02*
D03*
X85256D02*
D03*
X70256Y130020D02*
D03*
Y151476D02*
D03*
X75256D02*
D03*
X85256Y130020D02*
D03*
X75256D02*
D03*
X80256D02*
D03*
Y151476D02*
D03*
X85256D02*
D03*
D17*
X46260Y93996D02*
D03*
Y100886D02*
D03*
X109252Y93996D02*
D03*
Y100886D02*
D03*
X46260Y137303D02*
D03*
Y144193D02*
D03*
X109252Y137303D02*
D03*
Y144193D02*
D03*
X54134Y93996D02*
D03*
Y100886D02*
D03*
X101378Y93996D02*
D03*
Y100886D02*
D03*
X54134Y137303D02*
D03*
Y144193D02*
D03*
X101378Y137303D02*
D03*
Y144193D02*
D03*
X62008Y93996D02*
D03*
Y100886D02*
D03*
X93504Y93996D02*
D03*
Y100886D02*
D03*
X62008Y137303D02*
D03*
Y144193D02*
D03*
X93504Y137303D02*
D03*
Y144193D02*
D03*
D18*
X59744Y43307D02*
D03*
X81988D02*
D03*
D19*
X153543Y114862D02*
D03*
Y137106D02*
D03*
D20*
X62008Y130413D02*
X69882Y122539D01*
X62008Y130905D02*
X62008Y130905D01*
X69882Y115650D02*
X77756D01*
X46260Y137303D02*
X46260Y137303D01*
X46260Y130905D02*
Y137303D01*
X54134Y130905D02*
Y137303D01*
X62008Y130905D02*
Y137303D01*
X93504Y144193D02*
Y150591D01*
X101378Y144193D02*
Y150591D01*
X101378Y150591D02*
X101378Y150591D01*
X46260Y87598D02*
Y93996D01*
X46260Y87598D02*
X46260Y87598D01*
X54134Y87598D02*
Y93996D01*
X62008Y87598D02*
Y93996D01*
X62008Y87598D02*
X62008Y87598D01*
X93504Y100886D02*
Y107283D01*
X101378Y100886D02*
Y107283D01*
X101378Y107283D02*
X101378Y107283D01*
X109252Y100886D02*
Y107283D01*
X85630Y115650D02*
X93504Y107776D01*
X77756Y177165D02*
X81201Y173721D01*
Y159449D02*
Y173721D01*
X77756Y177165D02*
Y181102D01*
X74311Y159449D02*
Y170768D01*
X69882Y175197D02*
X74311Y170768D01*
X31496Y181102D02*
Y189961D01*
X35433Y193898D01*
X65945D01*
X69882Y189961D01*
Y175197D02*
Y189961D01*
X46260Y144193D02*
X54134D01*
X62008D01*
X46260Y100886D02*
X54134D01*
X62008D01*
X109252Y144193D02*
Y150591D01*
D21*
X75256Y113150D02*
X77756Y115650D01*
X75256Y108169D02*
Y113150D01*
X109449Y122835D02*
X109941D01*
X93701Y115354D02*
X109941D01*
X93504Y115157D02*
X93701Y115354D01*
X80256Y103878D02*
Y108169D01*
X73819Y97441D02*
X80256Y103878D01*
X75256Y91004D02*
X81693Y97441D01*
X75256Y86713D02*
Y91004D01*
X74311Y159449D02*
X75256Y158504D01*
X70866Y143701D02*
Y143701D01*
X75256Y148091D01*
Y151476D02*
Y158504D01*
Y148091D02*
Y151476D01*
X121063Y66929D02*
X124632D01*
X127943Y63619D01*
X124921Y96535D02*
Y97441D01*
X137129Y59721D02*
Y59721D01*
Y59721D02*
X142717Y54134D01*
X54921Y116535D02*
X56299Y115157D01*
X62008D01*
X100689Y119095D02*
Y123721D01*
X56299Y123031D02*
X62008D01*
X54921Y121653D02*
X56299Y123031D01*
X113189Y83661D02*
Y83661D01*
X101378Y130905D02*
X109449Y122835D01*
X93504Y130905D02*
X100689Y123721D01*
X85630Y122539D02*
X93012D01*
X93504Y123031D01*
X70866Y137795D02*
X75256Y133405D01*
Y130020D02*
Y133405D01*
X41339Y119095D02*
X45472D01*
X80256Y148091D02*
X84646Y143701D01*
X80256Y148091D02*
Y151476D01*
X77756Y122539D02*
X80256Y125039D01*
Y130020D01*
X108268Y78740D02*
X113189Y83661D01*
X41339Y78740D02*
X108268D01*
X37402Y82677D02*
X41339Y78740D01*
X37402Y82677D02*
Y115157D01*
X41339Y119095D01*
X113189Y83661D02*
X124921Y71929D01*
X130211D01*
X133232Y68908D01*
D22*
X101378Y137303D02*
X109252D01*
X93504Y93996D02*
X101378D01*
X109252D01*
X93504Y137303D02*
X101378D01*
D23*
X129921Y135827D02*
Y156496D01*
X160512Y20591D02*
Y43307D01*
Y20591D02*
X165354Y15748D01*
X59744Y43307D02*
X70866D01*
X70866Y43307D01*
X153543Y137106D02*
X164075Y147638D01*
X164370D01*
X134921Y97441D02*
Y97520D01*
X138779Y101378D01*
Y122047D01*
X174213Y116142D02*
X185039D01*
X164370Y125984D02*
X174213Y116142D01*
X138779Y122047D02*
X142717Y125984D01*
X164370D01*
D24*
X11811Y153543D02*
D03*
X185039Y43307D02*
D03*
X37402Y65945D02*
D03*
D25*
X31496Y181102D02*
D03*
X11811D02*
D03*
X77756Y181102D02*
D03*
X97441D02*
D03*
X58071D02*
D03*
X165354Y15748D02*
D03*
X185039D02*
D03*
D26*
X160512Y43307D02*
D03*
X130984Y187008D02*
D03*
X111221Y61929D02*
D03*
X134921Y85630D02*
D03*
X9843Y65866D02*
D03*
X99410Y61929D02*
D03*
X134921Y97441D02*
D03*
D27*
X150512Y43307D02*
D03*
X120984Y187008D02*
D03*
X124921Y85630D02*
D03*
Y97441D02*
D03*
D28*
X61024Y11811D02*
D03*
X70866D02*
D03*
X80709D02*
D03*
D29*
X185039Y116142D02*
D03*
Y125984D02*
D03*
Y135827D02*
D03*
X129921Y156496D02*
D03*
Y166339D02*
D03*
D30*
Y116142D02*
D03*
Y135827D02*
D03*
D31*
X111221Y71929D02*
D03*
X9843Y75866D02*
D03*
X99410Y71929D02*
D03*
D32*
X170276Y175984D02*
D03*
Y75984D02*
D03*
X20866Y26575D02*
D03*
X120866D02*
D03*
D33*
X70866Y143701D02*
D03*
X46260Y130905D02*
D03*
X54134D02*
D03*
X62008D02*
D03*
X93504Y150591D02*
D03*
X101378D02*
D03*
X46260Y87598D02*
D03*
X54134D02*
D03*
X62008D02*
D03*
X93504Y107283D02*
D03*
X101378D02*
D03*
X109252D02*
D03*
X93504Y115157D02*
D03*
X73819Y97441D02*
D03*
X81693D02*
D03*
X109252Y150591D02*
D03*
X121063Y66929D02*
D03*
X142717Y54134D02*
D03*
X62008Y115157D02*
D03*
X62008Y123031D02*
D03*
X113189Y83661D02*
D03*
X101378Y130905D02*
D03*
X93504D02*
D03*
Y123031D02*
D03*
X70866Y137795D02*
D03*
X84646Y143701D02*
D03*
D34*
X70866Y43307D02*
D03*
X164370Y147638D02*
D03*
M02*
