%FSLAX25Y25*%
%MOIN*%
G70*
G01*
G75*
G04 Layer_Color=32896*
%ADD10R,0.04528X0.05315*%
G04:AMPARAMS|DCode=11|XSize=35.43mil|YSize=27.56mil|CornerRadius=6.89mil|HoleSize=0mil|Usage=FLASHONLY|Rotation=90.000|XOffset=0mil|YOffset=0mil|HoleType=Round|Shape=RoundedRectangle|*
%AMROUNDEDRECTD11*
21,1,0.03543,0.01378,0,0,90.0*
21,1,0.02165,0.02756,0,0,90.0*
1,1,0.01378,0.00689,0.01083*
1,1,0.01378,0.00689,-0.01083*
1,1,0.01378,-0.00689,-0.01083*
1,1,0.01378,-0.00689,0.01083*
%
%ADD11ROUNDEDRECTD11*%
G04:AMPARAMS|DCode=12|XSize=23.62mil|YSize=27.56mil|CornerRadius=5.91mil|HoleSize=0mil|Usage=FLASHONLY|Rotation=90.000|XOffset=0mil|YOffset=0mil|HoleType=Round|Shape=RoundedRectangle|*
%AMROUNDEDRECTD12*
21,1,0.02362,0.01575,0,0,90.0*
21,1,0.01181,0.02756,0,0,90.0*
1,1,0.01181,0.00787,0.00591*
1,1,0.01181,0.00787,-0.00591*
1,1,0.01181,-0.00787,-0.00591*
1,1,0.01181,-0.00787,0.00591*
%
%ADD12ROUNDEDRECTD12*%
%ADD13R,0.05315X0.04528*%
%ADD14R,0.03740X0.02559*%
G04:AMPARAMS|DCode=15|XSize=25.59mil|YSize=37.4mil|CornerRadius=0mil|HoleSize=0mil|Usage=FLASHONLY|Rotation=45.000|XOffset=0mil|YOffset=0mil|HoleType=Round|Shape=Rectangle|*
%AMROTATEDRECTD15*
4,1,4,0.00418,-0.02227,-0.02227,0.00418,-0.00418,0.02227,0.02227,-0.00418,0.00418,-0.02227,0.0*
%
%ADD15ROTATEDRECTD15*%

%ADD16O,0.02362X0.05709*%
%ADD17R,0.05512X0.04528*%
%ADD18R,0.06496X0.13386*%
%ADD19R,0.13386X0.06496*%
%ADD20C,0.03000*%
%ADD21C,0.02000*%
%ADD22C,0.02500*%
%ADD23C,0.05000*%
%ADD24C,0.15748*%
%ADD25O,0.07874X0.11811*%
%ADD26C,0.05906*%
%ADD27R,0.05906X0.05906*%
%ADD28O,0.05906X0.09843*%
%ADD29O,0.09843X0.05906*%
%ADD30C,0.07874*%
%ADD31R,0.05906X0.05906*%
%ADD32C,0.19685*%
%ADD33C,0.04000*%
%ADD34C,0.06000*%
%ADD35C,0.01969*%
%ADD36C,0.00984*%
%ADD37C,0.01000*%
%ADD38C,0.02362*%
%ADD39C,0.00787*%
%ADD40R,0.05328X0.06115*%
G04:AMPARAMS|DCode=41|XSize=43.43mil|YSize=35.56mil|CornerRadius=10.89mil|HoleSize=0mil|Usage=FLASHONLY|Rotation=90.000|XOffset=0mil|YOffset=0mil|HoleType=Round|Shape=RoundedRectangle|*
%AMROUNDEDRECTD41*
21,1,0.04343,0.01378,0,0,90.0*
21,1,0.02165,0.03556,0,0,90.0*
1,1,0.02178,0.00689,0.01083*
1,1,0.02178,0.00689,-0.01083*
1,1,0.02178,-0.00689,-0.01083*
1,1,0.02178,-0.00689,0.01083*
%
%ADD41ROUNDEDRECTD41*%
G04:AMPARAMS|DCode=42|XSize=31.62mil|YSize=35.56mil|CornerRadius=9.91mil|HoleSize=0mil|Usage=FLASHONLY|Rotation=90.000|XOffset=0mil|YOffset=0mil|HoleType=Round|Shape=RoundedRectangle|*
%AMROUNDEDRECTD42*
21,1,0.03162,0.01575,0,0,90.0*
21,1,0.01181,0.03556,0,0,90.0*
1,1,0.01981,0.00787,0.00591*
1,1,0.01981,0.00787,-0.00591*
1,1,0.01981,-0.00787,-0.00591*
1,1,0.01981,-0.00787,0.00591*
%
%ADD42ROUNDEDRECTD42*%
%ADD43R,0.06115X0.05328*%
%ADD44R,0.04540X0.03359*%
G04:AMPARAMS|DCode=45|XSize=33.59mil|YSize=45.4mil|CornerRadius=0mil|HoleSize=0mil|Usage=FLASHONLY|Rotation=45.000|XOffset=0mil|YOffset=0mil|HoleType=Round|Shape=Rectangle|*
%AMROTATEDRECTD45*
4,1,4,0.00418,-0.02793,-0.02793,0.00418,-0.00418,0.02793,0.02793,-0.00418,0.00418,-0.02793,0.0*
%
%ADD45ROTATEDRECTD45*%

%ADD46O,0.03162X0.06509*%
%ADD47R,0.06312X0.05328*%
%ADD48R,0.07296X0.14186*%
%ADD49R,0.14186X0.07296*%
%ADD50C,0.16548*%
%ADD51O,0.08674X0.12611*%
%ADD52C,0.06706*%
%ADD53R,0.06706X0.06706*%
%ADD54O,0.06706X0.10642*%
%ADD55O,0.10642X0.06706*%
%ADD56C,0.08674*%
%ADD57R,0.06706X0.06706*%
%ADD58C,0.20485*%
%ADD59C,0.04800*%
%ADD60C,0.06800*%
%ADD61C,0.02953*%
G36*
X145280Y96286D02*
X142831Y95687D01*
X145280Y94965D01*
Y93959D01*
X142831Y93207D01*
X145280Y92592D01*
Y91402D01*
X141732Y92484D01*
Y93713D01*
X144121Y94420D01*
X141732Y95142D01*
Y96348D01*
X145280Y97453D01*
Y96286D01*
D02*
G37*
G36*
X20472Y7531D02*
X20593Y7525D01*
X20702Y7514D01*
X20800Y7502D01*
X20886Y7485D01*
X20921Y7479D01*
X20950Y7474D01*
X20973Y7468D01*
X20990D01*
X21002Y7462D01*
X21007D01*
X21123Y7433D01*
X21220Y7405D01*
X21301Y7382D01*
X21370Y7359D01*
X21428Y7341D01*
X21468Y7324D01*
X21491Y7318D01*
X21497Y7312D01*
Y6535D01*
X21422D01*
X21267Y6627D01*
X21197Y6667D01*
X21128Y6702D01*
X21071Y6725D01*
X21025Y6742D01*
X20996Y6754D01*
X20984Y6759D01*
X20892Y6788D01*
X20811Y6811D01*
X20731Y6829D01*
X20662Y6840D01*
X20604Y6846D01*
X20564Y6852D01*
X20524D01*
X20420Y6846D01*
X20333Y6829D01*
X20258Y6811D01*
X20195Y6788D01*
X20143Y6759D01*
X20109Y6742D01*
X20086Y6725D01*
X20080Y6719D01*
X20028Y6667D01*
X19988Y6604D01*
X19965Y6540D01*
X19942Y6483D01*
X19930Y6431D01*
X19924Y6385D01*
Y6356D01*
Y6345D01*
X19930Y6270D01*
X19942Y6195D01*
X19965Y6126D01*
X19982Y6062D01*
X20005Y6011D01*
X20028Y5970D01*
X20040Y5947D01*
X20045Y5936D01*
X20097Y5855D01*
X20161Y5774D01*
X20230Y5694D01*
X20293Y5619D01*
X20356Y5550D01*
X20408Y5498D01*
X20443Y5463D01*
X20449Y5458D01*
X20454Y5452D01*
X20529Y5377D01*
X20616Y5302D01*
X20696Y5227D01*
X20777Y5158D01*
X20852Y5095D01*
X20909Y5049D01*
X20932Y5026D01*
X20950Y5014D01*
X20956Y5008D01*
X20961Y5003D01*
X21076Y4905D01*
X21192Y4818D01*
X21301Y4732D01*
X21393Y4663D01*
X21474Y4599D01*
X21537Y4553D01*
X21560Y4536D01*
X21577Y4524D01*
X21583Y4513D01*
X21589D01*
Y3937D01*
X18830D01*
Y4611D01*
X20408D01*
X20368Y4640D01*
X20322Y4674D01*
X20224Y4749D01*
X20178Y4784D01*
X20137Y4812D01*
X20114Y4836D01*
X20103Y4841D01*
X19942Y4968D01*
X19873Y5031D01*
X19804Y5089D01*
X19752Y5135D01*
X19705Y5175D01*
X19682Y5198D01*
X19671Y5210D01*
X19550Y5325D01*
X19446Y5440D01*
X19354Y5544D01*
X19285Y5636D01*
X19228Y5717D01*
X19187Y5774D01*
X19176Y5798D01*
X19164Y5815D01*
X19158Y5821D01*
Y5826D01*
X19101Y5942D01*
X19060Y6057D01*
X19032Y6160D01*
X19014Y6258D01*
X18997Y6345D01*
X18991Y6408D01*
Y6431D01*
Y6448D01*
Y6460D01*
Y6466D01*
X18997Y6558D01*
X19009Y6644D01*
X19026Y6731D01*
X19043Y6805D01*
X19072Y6875D01*
X19101Y6938D01*
X19135Y7001D01*
X19164Y7053D01*
X19199Y7099D01*
X19233Y7140D01*
X19262Y7174D01*
X19285Y7203D01*
X19308Y7226D01*
X19325Y7243D01*
X19337Y7249D01*
X19343Y7255D01*
X19412Y7307D01*
X19487Y7347D01*
X19561Y7387D01*
X19648Y7416D01*
X19815Y7468D01*
X19976Y7502D01*
X20051Y7514D01*
X20120Y7520D01*
X20184Y7531D01*
X20241D01*
X20287Y7537D01*
X20351D01*
X20472Y7531D01*
D02*
G37*
G36*
X185137Y24757D02*
X165257D01*
Y28943D01*
X185137D01*
Y24757D01*
D02*
G37*
G36*
X145088Y86548D02*
X145227Y86532D01*
X145342Y86510D01*
X145442Y86479D01*
X145526Y86448D01*
X145588Y86425D01*
X145626Y86410D01*
X145641Y86402D01*
X145749Y86340D01*
X145841Y86271D01*
X145918Y86195D01*
X145987Y86125D01*
X146041Y86064D01*
X146087Y86010D01*
X146110Y85980D01*
X146118Y85964D01*
X146217Y85780D01*
X146256Y85695D01*
X146294Y85611D01*
X146317Y85534D01*
X146333Y85480D01*
X146348Y85442D01*
Y85427D01*
X146379Y85304D01*
X146394Y85181D01*
X146409Y85050D01*
X146425Y84935D01*
Y84828D01*
X146432Y84743D01*
Y84712D01*
Y84689D01*
Y84674D01*
Y84666D01*
Y82677D01*
X141732D01*
Y83891D01*
X143261D01*
Y84643D01*
X143268Y84828D01*
X143284Y84996D01*
X143307Y85142D01*
X143330Y85265D01*
X143353Y85365D01*
X143376Y85442D01*
X143391Y85488D01*
X143399Y85503D01*
X143460Y85626D01*
X143529Y85749D01*
X143598Y85849D01*
X143668Y85941D01*
X143729Y86018D01*
X143775Y86079D01*
X143806Y86110D01*
X143821Y86125D01*
X143898Y86202D01*
X143983Y86264D01*
X144067Y86317D01*
X144144Y86364D01*
X144213Y86394D01*
X144274Y86417D01*
X144305Y86433D01*
X144320Y86440D01*
X144436Y86479D01*
X144551Y86510D01*
X144651Y86525D01*
X144750Y86540D01*
X144827Y86548D01*
X144889Y86556D01*
X144942D01*
X145088Y86548D01*
D02*
G37*
G36*
X143660Y90972D02*
X143806Y90956D01*
X143952Y90933D01*
X144082Y90903D01*
X144205Y90856D01*
X144320Y90818D01*
X144428Y90772D01*
X144520Y90726D01*
X144605Y90672D01*
X144674Y90626D01*
X144735Y90588D01*
X144789Y90549D01*
X144827Y90511D01*
X144858Y90488D01*
X144873Y90472D01*
X144881Y90465D01*
X144973Y90365D01*
X145050Y90257D01*
X145119Y90142D01*
X145173Y90027D01*
X145227Y89912D01*
X145265Y89789D01*
X145326Y89559D01*
X145350Y89451D01*
X145365Y89351D01*
X145373Y89267D01*
X145380Y89190D01*
X145388Y89128D01*
Y89075D01*
Y89044D01*
Y89036D01*
X145380Y88867D01*
X145365Y88714D01*
X145342Y88560D01*
X145311Y88422D01*
X145273Y88291D01*
X145227Y88176D01*
X145181Y88068D01*
X145134Y87976D01*
X145088Y87884D01*
X145042Y87815D01*
X144996Y87746D01*
X144958Y87692D01*
X144927Y87654D01*
X144904Y87623D01*
X144889Y87608D01*
X144881Y87600D01*
X144781Y87508D01*
X144681Y87431D01*
X144566Y87362D01*
X144451Y87308D01*
X144336Y87255D01*
X144228Y87216D01*
X144006Y87155D01*
X143898Y87139D01*
X143806Y87124D01*
X143721Y87108D01*
X143645Y87101D01*
X143583Y87093D01*
X143499D01*
X143337Y87101D01*
X143192Y87116D01*
X143053Y87139D01*
X142915Y87170D01*
X142792Y87208D01*
X142685Y87255D01*
X142577Y87300D01*
X142485Y87347D01*
X142401Y87393D01*
X142331Y87439D01*
X142270Y87485D01*
X142216Y87523D01*
X142178Y87554D01*
X142147Y87577D01*
X142132Y87592D01*
X142124Y87600D01*
X142040Y87700D01*
X141963Y87807D01*
X141894Y87923D01*
X141832Y88038D01*
X141786Y88161D01*
X141748Y88276D01*
X141686Y88506D01*
X141663Y88614D01*
X141648Y88714D01*
X141640Y88806D01*
X141632Y88883D01*
X141625Y88944D01*
Y88998D01*
Y89029D01*
Y89036D01*
X141632Y89205D01*
X141648Y89359D01*
X141671Y89512D01*
X141702Y89651D01*
X141740Y89773D01*
X141786Y89896D01*
X141824Y90004D01*
X141878Y90096D01*
X141924Y90180D01*
X141963Y90257D01*
X142009Y90319D01*
X142047Y90373D01*
X142078Y90411D01*
X142101Y90442D01*
X142116Y90457D01*
X142124Y90465D01*
X142224Y90557D01*
X142331Y90634D01*
X142439Y90703D01*
X142554Y90764D01*
X142669Y90810D01*
X142784Y90856D01*
X142999Y90918D01*
X143107Y90933D01*
X143199Y90948D01*
X143284Y90964D01*
X143353Y90972D01*
X143414Y90979D01*
X143499D01*
X143660Y90972D01*
D02*
G37*
G36*
X143837Y101608D02*
X143975Y101601D01*
X144105Y101578D01*
X144228Y101547D01*
X144336Y101516D01*
X144443Y101478D01*
X144536Y101439D01*
X144620Y101401D01*
X144697Y101355D01*
X144758Y101316D01*
X144820Y101278D01*
X144858Y101247D01*
X144896Y101217D01*
X144920Y101194D01*
X144935Y101186D01*
X144942Y101178D01*
X145019Y101094D01*
X145088Y100994D01*
X145150Y100894D01*
X145204Y100794D01*
X145242Y100687D01*
X145280Y100579D01*
X145334Y100364D01*
X145350Y100264D01*
X145365Y100172D01*
X145373Y100095D01*
X145380Y100019D01*
X145388Y99965D01*
Y99919D01*
Y99888D01*
Y99880D01*
X145380Y99711D01*
X145365Y99550D01*
X145342Y99397D01*
X145311Y99258D01*
X145265Y99120D01*
X145227Y99005D01*
X145181Y98890D01*
X145134Y98790D01*
X145081Y98705D01*
X145035Y98628D01*
X144996Y98559D01*
X144958Y98506D01*
X144920Y98460D01*
X144896Y98429D01*
X144881Y98413D01*
X144873Y98406D01*
X144774Y98314D01*
X144666Y98229D01*
X144551Y98160D01*
X144436Y98099D01*
X144320Y98045D01*
X144205Y97999D01*
X144098Y97960D01*
X143983Y97937D01*
X143883Y97914D01*
X143790Y97899D01*
X143706Y97884D01*
X143629Y97876D01*
X143568Y97868D01*
X143483D01*
X143322Y97876D01*
X143168Y97891D01*
X143030Y97922D01*
X142892Y97953D01*
X142769Y97999D01*
X142662Y98045D01*
X142554Y98099D01*
X142470Y98152D01*
X142385Y98198D01*
X142316Y98252D01*
X142254Y98298D01*
X142208Y98344D01*
X142170Y98375D01*
X142139Y98406D01*
X142124Y98421D01*
X142116Y98429D01*
X142032Y98544D01*
X141963Y98659D01*
X141894Y98790D01*
X141840Y98928D01*
X141794Y99059D01*
X141755Y99197D01*
X141702Y99458D01*
X141679Y99581D01*
X141663Y99696D01*
X141656Y99804D01*
X141648Y99888D01*
X141640Y99965D01*
Y100019D01*
Y100049D01*
Y100065D01*
Y100218D01*
X141648Y100356D01*
X141663Y100487D01*
X141679Y100595D01*
X141686Y100687D01*
X141702Y100756D01*
X141709Y100802D01*
Y100817D01*
X141740Y100948D01*
X141771Y101071D01*
X141809Y101194D01*
X141848Y101309D01*
X141878Y101409D01*
X141909Y101478D01*
X141917Y101508D01*
X141924Y101532D01*
X141932Y101539D01*
Y101547D01*
X142846D01*
Y101416D01*
X142792Y101340D01*
X142738Y101247D01*
X142692Y101155D01*
X142646Y101071D01*
X142608Y100994D01*
X142585Y100933D01*
X142569Y100894D01*
X142562Y100886D01*
Y100879D01*
X142516Y100748D01*
X142485Y100625D01*
X142462Y100510D01*
X142446Y100403D01*
X142439Y100311D01*
X142431Y100241D01*
Y100195D01*
Y100188D01*
Y100180D01*
X142439Y99980D01*
X142462Y99804D01*
X142500Y99658D01*
X142539Y99535D01*
X142577Y99443D01*
X142615Y99374D01*
X142639Y99335D01*
X142646Y99320D01*
X142738Y99220D01*
X142838Y99151D01*
X142946Y99089D01*
X143053Y99051D01*
X143145Y99028D01*
X143222Y99013D01*
X143253D01*
X143276Y99005D01*
X143291D01*
Y101616D01*
X143683D01*
X143837Y101608D01*
D02*
G37*
G36*
X144267Y117944D02*
X144466Y117913D01*
X144635Y117867D01*
X144774Y117813D01*
X144835Y117782D01*
X144881Y117752D01*
X144927Y117729D01*
X144966Y117706D01*
X144989Y117690D01*
X145012Y117675D01*
X145027Y117660D01*
X145088Y117598D01*
X145142Y117537D01*
X145227Y117399D01*
X145288Y117253D01*
X145326Y117107D01*
X145357Y116984D01*
X145365Y116930D01*
Y116876D01*
X145373Y116838D01*
Y116807D01*
Y116792D01*
Y116784D01*
X145365Y116669D01*
X145350Y116554D01*
X145319Y116454D01*
X145288Y116354D01*
X145257Y116270D01*
X145227Y116208D01*
X145211Y116170D01*
X145204Y116154D01*
X145134Y116031D01*
X145065Y115916D01*
X144989Y115801D01*
X144920Y115701D01*
X144850Y115617D01*
X144797Y115555D01*
X144766Y115509D01*
X144750Y115501D01*
Y115494D01*
X144858Y115432D01*
X144950Y115363D01*
X145035Y115294D01*
X145096Y115225D01*
X145150Y115164D01*
X145181Y115118D01*
X145204Y115087D01*
X145211Y115071D01*
X145265Y114972D01*
X145303Y114864D01*
X145334Y114757D01*
X145350Y114664D01*
X145365Y114580D01*
X145373Y114518D01*
Y114472D01*
Y114465D01*
Y114457D01*
X145365Y114342D01*
X145350Y114227D01*
X145334Y114127D01*
X145311Y114042D01*
X145280Y113965D01*
X145265Y113912D01*
X145250Y113881D01*
X145242Y113866D01*
X145188Y113766D01*
X145134Y113666D01*
X145073Y113574D01*
X145012Y113482D01*
X144958Y113412D01*
X144920Y113359D01*
X144889Y113320D01*
X144881Y113305D01*
X145280D01*
Y112168D01*
X141732D01*
Y113305D01*
X144236D01*
X144290Y113397D01*
X144336Y113489D01*
X144359Y113528D01*
X144367Y113558D01*
X144382Y113574D01*
Y113582D01*
X144420Y113704D01*
X144443Y113804D01*
X144451Y113850D01*
Y113881D01*
Y113904D01*
Y113912D01*
Y113988D01*
X144443Y114050D01*
X144436Y114104D01*
X144428Y114150D01*
X144413Y114188D01*
X144405Y114211D01*
X144397Y114227D01*
Y114234D01*
X144351Y114311D01*
X144290Y114365D01*
X144244Y114403D01*
X144236Y114411D01*
X144228D01*
X144136Y114442D01*
X144036Y114465D01*
X143990Y114472D01*
X143959Y114480D01*
X143929D01*
X143790Y114488D01*
X143714Y114495D01*
X141732D01*
Y115632D01*
X144236D01*
X144313Y115763D01*
X144336Y115824D01*
X144359Y115870D01*
X144374Y115909D01*
X144390Y115939D01*
X144397Y115955D01*
Y115962D01*
X144428Y116062D01*
X144443Y116154D01*
X144451Y116185D01*
Y116216D01*
Y116231D01*
Y116239D01*
Y116316D01*
X144443Y116385D01*
X144436Y116438D01*
X144428Y116484D01*
X144413Y116523D01*
X144405Y116546D01*
X144397Y116561D01*
Y116569D01*
X144351Y116646D01*
X144290Y116700D01*
X144244Y116730D01*
X144236Y116738D01*
X144228D01*
X144136Y116776D01*
X144036Y116799D01*
X143998D01*
X143967Y116807D01*
X143936D01*
X143867Y116815D01*
X143790D01*
X143721Y116823D01*
X141732D01*
Y117959D01*
X144036D01*
X144267Y117944D01*
D02*
G37*
G36*
X143706Y122713D02*
X143852Y122705D01*
X143990Y122690D01*
X144113Y122659D01*
X144236Y122636D01*
X144343Y122606D01*
X144443Y122567D01*
X144536Y122536D01*
X144612Y122498D01*
X144681Y122467D01*
X144743Y122429D01*
X144789Y122406D01*
X144827Y122383D01*
X144858Y122360D01*
X144873Y122352D01*
X144881Y122344D01*
X144966Y122275D01*
X145042Y122191D01*
X145112Y122114D01*
X145165Y122029D01*
X145211Y121945D01*
X145250Y121861D01*
X145311Y121692D01*
X145350Y121546D01*
X145357Y121476D01*
X145365Y121423D01*
X145373Y121377D01*
Y121346D01*
Y121323D01*
Y121315D01*
X145365Y121185D01*
X145350Y121062D01*
X145334Y120954D01*
X145311Y120862D01*
X145280Y120785D01*
X145265Y120724D01*
X145250Y120693D01*
X145242Y120678D01*
X145196Y120578D01*
X145134Y120478D01*
X145081Y120394D01*
X145027Y120309D01*
X144981Y120248D01*
X144942Y120194D01*
X144912Y120163D01*
X144904Y120148D01*
X145280D01*
Y119011D01*
X140434D01*
Y120148D01*
X141909D01*
X141832Y120309D01*
X141794Y120378D01*
X141771Y120447D01*
X141748Y120501D01*
X141740Y120540D01*
X141725Y120570D01*
Y120578D01*
X141702Y120662D01*
X141686Y120747D01*
X141679Y120839D01*
X141671Y120916D01*
X141663Y120985D01*
Y121046D01*
Y121077D01*
Y121092D01*
X141671Y121215D01*
X141686Y121331D01*
X141702Y121431D01*
X141725Y121523D01*
X141748Y121599D01*
X141771Y121661D01*
X141778Y121692D01*
X141786Y121707D01*
X141840Y121815D01*
X141894Y121914D01*
X141955Y121999D01*
X142016Y122076D01*
X142070Y122145D01*
X142116Y122191D01*
X142147Y122222D01*
X142155Y122229D01*
X142247Y122306D01*
X142347Y122375D01*
X142446Y122436D01*
X142539Y122490D01*
X142623Y122529D01*
X142685Y122559D01*
X142731Y122575D01*
X142746Y122582D01*
X142884Y122628D01*
X143023Y122659D01*
X143161Y122690D01*
X143284Y122705D01*
X143391Y122713D01*
X143476Y122721D01*
X143552D01*
X143706Y122713D01*
D02*
G37*
G36*
X11158Y5475D02*
X11054D01*
X10939Y5498D01*
X10881Y5509D01*
X10829Y5521D01*
X10783Y5533D01*
X10749Y5538D01*
X10720Y5544D01*
X10714D01*
X10564Y5567D01*
X10495Y5573D01*
X10432Y5579D01*
X10380Y5584D01*
X10300D01*
X10184Y5579D01*
X10132Y5573D01*
X10081D01*
X10035Y5567D01*
X10000Y5561D01*
X9977Y5556D01*
X9971D01*
X9908Y5544D01*
X9844Y5533D01*
X9793Y5515D01*
X9747Y5498D01*
X9712Y5481D01*
X9683Y5463D01*
X9666Y5458D01*
X9660Y5452D01*
X9602Y5406D01*
X9556Y5360D01*
X9528Y5325D01*
X9516Y5314D01*
Y5308D01*
X9482Y5239D01*
X9464Y5170D01*
X9459Y5141D01*
Y5118D01*
Y5100D01*
Y5095D01*
Y5037D01*
X9464Y4991D01*
X9470Y4951D01*
X9482Y4916D01*
X9487Y4893D01*
X9499Y4876D01*
X9505Y4864D01*
Y4859D01*
X9539Y4801D01*
X9579Y4755D01*
X9614Y4720D01*
X9620Y4715D01*
X9625Y4709D01*
X9666Y4674D01*
X9712Y4651D01*
X9804Y4611D01*
X9844Y4599D01*
X9879Y4588D01*
X9902Y4582D01*
X9908D01*
X10029Y4565D01*
X10086Y4559D01*
X10132D01*
X10173Y4553D01*
X10230D01*
X10323Y4559D01*
X10415Y4565D01*
X10495Y4576D01*
X10570Y4594D01*
X10633Y4611D01*
X10685Y4622D01*
X10714Y4628D01*
X10720Y4634D01*
X10726D01*
X10818Y4668D01*
X10904Y4703D01*
X10979Y4743D01*
X11054Y4778D01*
X11112Y4807D01*
X11152Y4830D01*
X11181Y4847D01*
X11192Y4853D01*
X11290D01*
Y4070D01*
X11215Y4041D01*
X11140Y4012D01*
X11060Y3989D01*
X10985Y3972D01*
X10916Y3954D01*
X10864Y3943D01*
X10829Y3931D01*
X10818D01*
X10703Y3908D01*
X10582Y3897D01*
X10461Y3879D01*
X10346Y3874D01*
X10248Y3868D01*
X10207D01*
X10167Y3862D01*
X10098D01*
X9965Y3868D01*
X9844Y3874D01*
X9735Y3891D01*
X9637Y3908D01*
X9562Y3920D01*
X9505Y3937D01*
X9482Y3943D01*
X9464D01*
X9459Y3949D01*
X9453D01*
X9349Y3983D01*
X9251Y4029D01*
X9165Y4070D01*
X9096Y4116D01*
X9032Y4150D01*
X8992Y4185D01*
X8963Y4208D01*
X8952Y4214D01*
X8883Y4277D01*
X8819Y4346D01*
X8767Y4415D01*
X8721Y4479D01*
X8692Y4536D01*
X8664Y4576D01*
X8652Y4605D01*
X8646Y4617D01*
X8612Y4709D01*
X8589Y4795D01*
X8566Y4882D01*
X8554Y4962D01*
X8548Y5031D01*
X8543Y5083D01*
Y5118D01*
Y5124D01*
Y5129D01*
X8548Y5244D01*
X8560Y5348D01*
X8583Y5440D01*
X8606Y5521D01*
X8629Y5579D01*
X8652Y5625D01*
X8664Y5654D01*
X8669Y5665D01*
X8715Y5740D01*
X8773Y5809D01*
X8831Y5867D01*
X8883Y5918D01*
X8929Y5959D01*
X8969Y5988D01*
X8992Y6005D01*
X9003Y6011D01*
X9067Y6045D01*
X9136Y6074D01*
X9205Y6103D01*
X9263Y6126D01*
X9320Y6143D01*
X9361Y6155D01*
X9389Y6166D01*
X9401D01*
X9487Y6183D01*
X9579Y6201D01*
X9666Y6212D01*
X9747Y6218D01*
X9821Y6224D01*
X10052D01*
X10081Y6218D01*
X10121D01*
X10196Y6212D01*
X10253D01*
X10276Y6207D01*
X10305D01*
Y6788D01*
X8646D01*
Y7462D01*
X11158D01*
Y5475D01*
D02*
G37*
G36*
X145280Y104949D02*
Y104903D01*
Y104872D01*
Y104857D01*
X145288Y104803D01*
Y104757D01*
Y104727D01*
Y104719D01*
X145280Y104634D01*
X145273Y104542D01*
X145257Y104458D01*
X145234Y104381D01*
X145211Y104312D01*
X145196Y104258D01*
X145188Y104227D01*
X145181Y104212D01*
X145134Y104104D01*
X145073Y103997D01*
X145004Y103882D01*
X144935Y103782D01*
X144866Y103690D01*
X144812Y103621D01*
X144774Y103575D01*
X144766Y103567D01*
X144758Y103559D01*
X145280D01*
Y102422D01*
X141732D01*
Y103559D01*
X144098D01*
X144144Y103713D01*
X144167Y103782D01*
X144182Y103843D01*
X144190Y103889D01*
X144198Y103928D01*
X144205Y103951D01*
Y103958D01*
X144228Y104104D01*
X144236Y104174D01*
Y104243D01*
X144244Y104304D01*
Y104350D01*
Y104381D01*
Y104388D01*
Y104473D01*
X144236Y104565D01*
Y104604D01*
X144228Y104634D01*
Y104650D01*
Y104657D01*
X144221Y104711D01*
X144213Y104765D01*
Y104803D01*
X144205Y104834D01*
X144198Y104872D01*
X144190Y104888D01*
Y104995D01*
X145273D01*
X145280Y104949D01*
D02*
G37*
G36*
X144259Y111116D02*
X144367Y111109D01*
X144474Y111085D01*
X144566Y111055D01*
X144651Y111024D01*
X144728Y110986D01*
X144797Y110947D01*
X144858Y110909D01*
X144958Y110824D01*
X145035Y110755D01*
X145058Y110724D01*
X145073Y110702D01*
X145088Y110694D01*
Y110686D01*
X145142Y110602D01*
X145188Y110502D01*
X145227Y110394D01*
X145265Y110287D01*
X145319Y110056D01*
X145350Y109826D01*
X145365Y109719D01*
X145373Y109619D01*
X145380Y109527D01*
Y109450D01*
X145388Y109380D01*
Y109335D01*
Y109296D01*
Y109288D01*
Y109135D01*
X145380Y108989D01*
X145365Y108851D01*
X145357Y108728D01*
X145342Y108628D01*
X145326Y108543D01*
Y108513D01*
X145319Y108490D01*
Y108482D01*
Y108474D01*
X145296Y108336D01*
X145273Y108213D01*
X145257Y108113D01*
X145242Y108036D01*
X145227Y107975D01*
X145219Y107929D01*
X145211Y107906D01*
Y107898D01*
X144367D01*
Y107998D01*
X144390Y108060D01*
X144413Y108129D01*
X144466Y108275D01*
X144489Y108344D01*
X144505Y108397D01*
X144512Y108436D01*
X144520Y108451D01*
X144551Y108566D01*
X144582Y108682D01*
X144597Y108782D01*
X144605Y108874D01*
X144612Y108943D01*
X144620Y109004D01*
Y109035D01*
Y109050D01*
X144612Y109212D01*
X144605Y109358D01*
X144582Y109480D01*
X144559Y109580D01*
X144536Y109657D01*
X144520Y109711D01*
X144505Y109749D01*
X144497Y109757D01*
X144443Y109834D01*
X144382Y109895D01*
X144313Y109933D01*
X144244Y109964D01*
X144182Y109980D01*
X144128Y109995D01*
X144067D01*
X144052Y109811D01*
X144036Y109634D01*
X144021Y109473D01*
X144013Y109327D01*
X143998Y109204D01*
X143990Y109150D01*
X143983Y109112D01*
Y109073D01*
X143975Y109050D01*
Y109035D01*
Y109027D01*
X143952Y108858D01*
X143921Y108712D01*
X143883Y108582D01*
X143852Y108467D01*
X143821Y108375D01*
X143798Y108305D01*
X143783Y108267D01*
X143775Y108252D01*
X143714Y108144D01*
X143652Y108044D01*
X143591Y107960D01*
X143522Y107891D01*
X143468Y107829D01*
X143422Y107791D01*
X143391Y107768D01*
X143384Y107760D01*
X143284Y107706D01*
X143184Y107660D01*
X143076Y107630D01*
X142976Y107614D01*
X142884Y107599D01*
X142815Y107591D01*
X142746D01*
X142654Y107599D01*
X142569Y107606D01*
X142416Y107645D01*
X142278Y107699D01*
X142162Y107760D01*
X142070Y107822D01*
X142001Y107875D01*
X141963Y107914D01*
X141955Y107929D01*
X141947D01*
X141848Y108060D01*
X141771Y108205D01*
X141717Y108344D01*
X141679Y108482D01*
X141656Y108597D01*
X141648Y108643D01*
Y108689D01*
X141640Y108728D01*
Y108751D01*
Y108766D01*
Y108774D01*
X141648Y108920D01*
X141656Y108989D01*
X141663Y109043D01*
Y109089D01*
X141671Y109127D01*
X141679Y109150D01*
Y109158D01*
X141709Y109288D01*
X141725Y109350D01*
X141740Y109404D01*
X141755Y109450D01*
X141771Y109480D01*
X141778Y109503D01*
Y109511D01*
X141832Y109603D01*
X141878Y109680D01*
X141901Y109719D01*
X141917Y109741D01*
X141932Y109757D01*
Y109765D01*
X142001Y109857D01*
X142055Y109933D01*
X142086Y109980D01*
X142101Y109987D01*
Y109995D01*
X141732D01*
Y111124D01*
X144144D01*
X144259Y111116D01*
D02*
G37*
G36*
X144297Y170054D02*
X144497Y170046D01*
X144674Y170031D01*
X144827Y170008D01*
X144896Y170000D01*
X144950Y169985D01*
X145004Y169977D01*
X145050Y169970D01*
X145081Y169962D01*
X145104D01*
X145119Y169954D01*
X145127D01*
X145288Y169908D01*
X145442Y169854D01*
X145572Y169801D01*
X145680Y169747D01*
X145772Y169693D01*
X145841Y169655D01*
X145879Y169624D01*
X145895Y169616D01*
X146002Y169524D01*
X146102Y169424D01*
X146187Y169325D01*
X146248Y169232D01*
X146302Y169148D01*
X146340Y169079D01*
X146363Y169033D01*
X146371Y169025D01*
Y169017D01*
X146425Y168871D01*
X146463Y168718D01*
X146494Y168572D01*
X146509Y168426D01*
X146525Y168303D01*
Y168249D01*
X146532Y168203D01*
Y168165D01*
Y168134D01*
Y168119D01*
Y168111D01*
X146525Y167927D01*
X146509Y167758D01*
X146478Y167604D01*
X146456Y167474D01*
X146425Y167366D01*
X146394Y167289D01*
X146386Y167259D01*
X146379Y167236D01*
X146371Y167228D01*
Y167220D01*
X146310Y167090D01*
X146233Y166967D01*
X146156Y166867D01*
X146087Y166775D01*
X146018Y166706D01*
X145964Y166652D01*
X145926Y166621D01*
X145910Y166613D01*
X145787Y166529D01*
X145657Y166460D01*
X145526Y166399D01*
X145411Y166352D01*
X145303Y166314D01*
X145219Y166291D01*
X145188Y166283D01*
X145165Y166276D01*
X145150Y166268D01*
X145142D01*
X144966Y166237D01*
X144789Y166214D01*
X144605Y166191D01*
X144443Y166183D01*
X144297Y166176D01*
X144236Y166168D01*
X144082D01*
X143867Y166176D01*
X143668Y166183D01*
X143483Y166199D01*
X143330Y166222D01*
X143261Y166229D01*
X143199Y166237D01*
X143145Y166245D01*
X143107Y166253D01*
X143069Y166260D01*
X143046D01*
X143030Y166268D01*
X143023D01*
X142861Y166314D01*
X142708Y166368D01*
X142577Y166421D01*
X142470Y166475D01*
X142377Y166529D01*
X142308Y166567D01*
X142270Y166598D01*
X142254Y166606D01*
X142147Y166698D01*
X142055Y166798D01*
X141970Y166898D01*
X141909Y166990D01*
X141855Y167074D01*
X141817Y167143D01*
X141794Y167190D01*
X141786Y167197D01*
Y167205D01*
X141732Y167351D01*
X141694Y167504D01*
X141671Y167658D01*
X141656Y167796D01*
X141640Y167927D01*
Y167981D01*
X141632Y168019D01*
Y168057D01*
Y168088D01*
Y168103D01*
Y168111D01*
X141640Y168303D01*
X141656Y168480D01*
X141679Y168633D01*
X141709Y168764D01*
X141740Y168864D01*
X141763Y168948D01*
X141771Y168971D01*
X141778Y168994D01*
X141786Y169002D01*
Y169010D01*
X141848Y169140D01*
X141924Y169263D01*
X142001Y169363D01*
X142078Y169455D01*
X142139Y169524D01*
X142193Y169570D01*
X142232Y169609D01*
X142247Y169616D01*
X142370Y169701D01*
X142493Y169770D01*
X142623Y169824D01*
X142746Y169870D01*
X142854Y169908D01*
X142938Y169931D01*
X142969Y169947D01*
X142992D01*
X143007Y169954D01*
X143015D01*
X143199Y169993D01*
X143384Y170016D01*
X143560Y170039D01*
X143729Y170046D01*
X143867Y170054D01*
X143929Y170062D01*
X144082D01*
X144297Y170054D01*
D02*
G37*
G36*
X168341Y3115D02*
X162368D01*
Y6648D01*
X168341D01*
Y3115D01*
D02*
G37*
G36*
X62971Y189561D02*
X53171D01*
Y193743D01*
X62971D01*
Y189561D01*
D02*
G37*
G36*
X15402Y190202D02*
X8220D01*
Y193735D01*
X15402D01*
Y190202D01*
D02*
G37*
G36*
X33276Y190234D02*
X29717D01*
Y193701D01*
X33276D01*
Y190234D01*
D02*
G37*
G36*
X29537Y167950D02*
X13770D01*
Y172093D01*
X29537D01*
Y167950D01*
D02*
G37*
G36*
X188630Y3115D02*
X181448D01*
Y6648D01*
X188630D01*
Y3115D01*
D02*
G37*
G36*
X142554Y161883D02*
X146448D01*
Y160838D01*
X146317Y160815D01*
X146264Y160800D01*
X146217Y160784D01*
X146179Y160769D01*
X146148Y160754D01*
X146133Y160746D01*
X146125Y160738D01*
X146079Y160708D01*
X146041Y160669D01*
X145979Y160585D01*
X145956Y160554D01*
X145941Y160523D01*
X145926Y160500D01*
Y160493D01*
X145879Y160377D01*
X145856Y160270D01*
X145841Y160224D01*
Y160185D01*
X145833Y160155D01*
Y160147D01*
X145818Y159993D01*
Y159916D01*
X145810Y159855D01*
Y159801D01*
Y159755D01*
Y159724D01*
Y159717D01*
X145042D01*
Y160708D01*
X142554D01*
Y159717D01*
X141732D01*
Y162850D01*
X142554D01*
Y161883D01*
D02*
G37*
G36*
X142976Y164056D02*
X141732D01*
Y165239D01*
X142976D01*
Y164056D01*
D02*
G37*
G36*
X145280Y157613D02*
X142823Y156799D01*
X145280Y155969D01*
Y154771D01*
X141732Y156123D01*
Y157413D01*
X145280Y158788D01*
Y157613D01*
D02*
G37*
G36*
X82282Y189561D02*
X73230D01*
Y193747D01*
X82282D01*
Y189561D01*
D02*
G37*
G36*
X101855D02*
X93027D01*
Y193743D01*
X101855D01*
Y189561D01*
D02*
G37*
G36*
X30217Y4859D02*
X30206Y4686D01*
X30183Y4530D01*
X30160Y4467D01*
X30143Y4404D01*
X30120Y4346D01*
X30097Y4300D01*
X30079Y4254D01*
X30056Y4214D01*
X30033Y4185D01*
X30016Y4156D01*
X30004Y4139D01*
X29993Y4121D01*
X29981Y4116D01*
Y4110D01*
X29935Y4064D01*
X29884Y4029D01*
X29774Y3966D01*
X29665Y3920D01*
X29555Y3891D01*
X29452Y3868D01*
X29411Y3862D01*
X29377D01*
X29342Y3856D01*
X29302D01*
X29204Y3862D01*
X29112Y3874D01*
X29037Y3885D01*
X28968Y3903D01*
X28910Y3920D01*
X28870Y3937D01*
X28847Y3943D01*
X28835Y3949D01*
X28760Y3989D01*
X28685Y4029D01*
X28611Y4075D01*
X28541Y4121D01*
X28484Y4156D01*
X28438Y4190D01*
X28409Y4214D01*
X28397Y4219D01*
Y3937D01*
X27545D01*
Y6598D01*
X28397D01*
Y4703D01*
X28490Y4651D01*
X28536Y4634D01*
X28576Y4617D01*
X28611Y4605D01*
X28634Y4594D01*
X28651Y4588D01*
X28657D01*
X28749Y4565D01*
X28789Y4559D01*
X28829Y4553D01*
X28858Y4548D01*
X28956D01*
X29008Y4553D01*
X29054Y4559D01*
X29089Y4571D01*
X29117Y4576D01*
X29140Y4582D01*
X29152Y4588D01*
X29158D01*
X29215Y4622D01*
X29261Y4668D01*
X29284Y4703D01*
X29296Y4709D01*
Y4715D01*
X29325Y4784D01*
X29342Y4859D01*
X29348Y4887D01*
X29354Y4910D01*
Y4928D01*
Y4933D01*
X29359Y4985D01*
Y5043D01*
Y5100D01*
X29365Y5158D01*
Y5204D01*
Y5239D01*
Y5262D01*
Y5273D01*
Y6598D01*
X30217D01*
Y4859D01*
D02*
G37*
G36*
X156853Y107788D02*
X155266D01*
Y110357D01*
X148622D01*
Y112482D01*
X155266D01*
Y115051D01*
X156853D01*
Y107788D01*
D02*
G37*
G36*
X16993Y7531D02*
X17119Y7520D01*
X17234Y7497D01*
X17332Y7479D01*
X17413Y7456D01*
X17471Y7433D01*
X17494Y7428D01*
X17511Y7422D01*
X17517Y7416D01*
X17523D01*
X17620Y7370D01*
X17713Y7312D01*
X17787Y7255D01*
X17857Y7203D01*
X17908Y7151D01*
X17949Y7111D01*
X17972Y7082D01*
X17977Y7070D01*
X18041Y6978D01*
X18093Y6880D01*
X18139Y6782D01*
X18173Y6696D01*
X18202Y6615D01*
X18219Y6552D01*
X18225Y6529D01*
X18231Y6512D01*
X18237Y6500D01*
Y6494D01*
X18260Y6362D01*
X18277Y6230D01*
X18294Y6091D01*
X18300Y5970D01*
X18306Y5861D01*
X18312Y5815D01*
Y5774D01*
Y5746D01*
Y5723D01*
Y5705D01*
Y5700D01*
X18306Y5538D01*
X18300Y5389D01*
X18289Y5250D01*
X18271Y5135D01*
X18266Y5083D01*
X18260Y5037D01*
X18254Y4997D01*
X18248Y4968D01*
X18243Y4939D01*
Y4922D01*
X18237Y4910D01*
Y4905D01*
X18202Y4784D01*
X18162Y4668D01*
X18122Y4571D01*
X18081Y4490D01*
X18041Y4421D01*
X18012Y4369D01*
X17989Y4340D01*
X17983Y4329D01*
X17914Y4248D01*
X17839Y4179D01*
X17764Y4116D01*
X17695Y4070D01*
X17632Y4029D01*
X17580Y4000D01*
X17546Y3983D01*
X17540Y3977D01*
X17534D01*
X17425Y3937D01*
X17309Y3908D01*
X17194Y3891D01*
X17090Y3879D01*
X16993Y3868D01*
X16952D01*
X16924Y3862D01*
X16854D01*
X16710Y3868D01*
X16578Y3879D01*
X16463Y3897D01*
X16365Y3920D01*
X16290Y3943D01*
X16227Y3960D01*
X16209Y3966D01*
X16192Y3972D01*
X16186Y3977D01*
X16180D01*
X16082Y4023D01*
X15990Y4081D01*
X15915Y4139D01*
X15846Y4196D01*
X15795Y4242D01*
X15760Y4283D01*
X15731Y4311D01*
X15725Y4323D01*
X15662Y4415D01*
X15610Y4507D01*
X15570Y4605D01*
X15535Y4697D01*
X15507Y4778D01*
X15489Y4841D01*
X15478Y4864D01*
Y4882D01*
X15472Y4893D01*
Y4899D01*
X15443Y5037D01*
X15426Y5175D01*
X15409Y5308D01*
X15403Y5435D01*
X15397Y5538D01*
X15391Y5584D01*
Y5625D01*
Y5659D01*
Y5682D01*
Y5694D01*
Y5700D01*
X15397Y5861D01*
X15403Y6011D01*
X15414Y6143D01*
X15432Y6258D01*
X15437Y6310D01*
X15449Y6351D01*
X15455Y6391D01*
X15460Y6425D01*
X15466Y6448D01*
Y6466D01*
X15472Y6477D01*
Y6483D01*
X15507Y6604D01*
X15547Y6719D01*
X15587Y6817D01*
X15628Y6898D01*
X15668Y6967D01*
X15697Y7019D01*
X15720Y7047D01*
X15725Y7059D01*
X15795Y7140D01*
X15869Y7214D01*
X15944Y7278D01*
X16013Y7324D01*
X16077Y7364D01*
X16129Y7393D01*
X16163Y7410D01*
X16169Y7416D01*
X16175D01*
X16284Y7456D01*
X16399Y7485D01*
X16509Y7508D01*
X16618Y7520D01*
X16710Y7531D01*
X16751D01*
X16785Y7537D01*
X16854D01*
X16993Y7531D01*
D02*
G37*
G36*
X156853Y121588D02*
X153841D01*
Y118454D01*
X156853D01*
Y116329D01*
X148622D01*
Y118454D01*
X152253D01*
Y121588D01*
X148622D01*
Y123713D01*
X156853D01*
Y121588D01*
D02*
G37*
G36*
Y92079D02*
X148622D01*
Y98037D01*
X150209D01*
Y94204D01*
X152253D01*
Y97755D01*
X153841D01*
Y94204D01*
X155266D01*
Y98037D01*
X156853D01*
Y92079D01*
D02*
G37*
G36*
Y104372D02*
Y101938D01*
X148622Y98898D01*
Y101036D01*
X150303Y101628D01*
Y104628D01*
X148622Y105206D01*
Y107425D01*
X156853Y104372D01*
D02*
G37*
G36*
X13675Y7376D02*
X13686Y7335D01*
X13698Y7301D01*
X13709Y7272D01*
X13721Y7249D01*
X13727Y7237D01*
X13732Y7232D01*
X13756Y7197D01*
X13784Y7168D01*
X13848Y7122D01*
X13871Y7105D01*
X13894Y7094D01*
X13911Y7082D01*
X13917D01*
X14003Y7047D01*
X14084Y7030D01*
X14118Y7019D01*
X14147D01*
X14170Y7013D01*
X14176D01*
X14291Y7001D01*
X14349D01*
X14395Y6996D01*
X14499D01*
Y6420D01*
X13756D01*
Y4553D01*
X14499D01*
Y3937D01*
X12148D01*
Y4553D01*
X12874D01*
Y7474D01*
X13658D01*
X13675Y7376D01*
D02*
G37*
G36*
X153087Y141857D02*
X153437Y141817D01*
X153760Y141763D01*
X154056Y141696D01*
X154338Y141602D01*
X154594Y141507D01*
X154836Y141400D01*
X155051Y141306D01*
X155239Y141198D01*
X155401Y141091D01*
X155549Y140996D01*
X155656Y140902D01*
X155751Y140835D01*
X155818Y140781D01*
X155858Y140741D01*
X155872Y140727D01*
X156073Y140512D01*
X156248Y140270D01*
X156410Y140015D01*
X156544Y139759D01*
X156652Y139503D01*
X156746Y139248D01*
X156826Y138992D01*
X156880Y138750D01*
X156934Y138508D01*
X156961Y138293D01*
X156988Y138105D01*
X157015Y137930D01*
Y137795D01*
X157028Y137701D01*
Y137634D01*
Y137607D01*
X157015Y137244D01*
X156974Y136908D01*
X156921Y136585D01*
X156853Y136275D01*
X156759Y136006D01*
X156665Y135751D01*
X156558Y135509D01*
X156450Y135307D01*
X156342Y135119D01*
X156235Y134944D01*
X156141Y134809D01*
X156046Y134688D01*
X155979Y134608D01*
X155925Y134540D01*
X155885Y134500D01*
X155872Y134487D01*
X155643Y134285D01*
X155401Y134123D01*
X155159Y133976D01*
X154890Y133841D01*
X154634Y133733D01*
X154365Y133639D01*
X154110Y133572D01*
X153868Y133505D01*
X153626Y133464D01*
X153410Y133424D01*
X153222Y133411D01*
X153060Y133384D01*
X152913D01*
X152819Y133370D01*
X152724D01*
X152361Y133384D01*
X152025Y133424D01*
X151702Y133478D01*
X151406Y133545D01*
X151137Y133626D01*
X150868Y133720D01*
X150640Y133827D01*
X150424Y133935D01*
X150236Y134029D01*
X150075Y134137D01*
X149927Y134231D01*
X149819Y134312D01*
X149725Y134379D01*
X149658Y134433D01*
X149617Y134473D01*
X149604Y134487D01*
X149402Y134702D01*
X149227Y134944D01*
X149066Y135199D01*
X148931Y135455D01*
X148824Y135711D01*
X148730Y135966D01*
X148649Y136222D01*
X148595Y136477D01*
X148541Y136706D01*
X148514Y136921D01*
X148488Y137109D01*
X148461Y137284D01*
Y137419D01*
X148447Y137526D01*
Y137580D01*
Y137607D01*
X148461Y137970D01*
X148501Y138320D01*
X148555Y138643D01*
X148622Y138938D01*
X148716Y139221D01*
X148810Y139477D01*
X148918Y139719D01*
X149025Y139920D01*
X149133Y140109D01*
X149241Y140284D01*
X149335Y140418D01*
X149429Y140539D01*
X149496Y140620D01*
X149550Y140687D01*
X149591Y140727D01*
X149604Y140741D01*
X149832Y140943D01*
X150075Y141117D01*
X150317Y141265D01*
X150586Y141400D01*
X150841Y141507D01*
X151097Y141602D01*
X151352Y141669D01*
X151594Y141736D01*
X151823Y141777D01*
X152038Y141817D01*
X152240Y141830D01*
X152401Y141857D01*
X152536D01*
X152644Y141871D01*
X152724D01*
X153087Y141857D01*
D02*
G37*
G36*
X156853Y148582D02*
X151702D01*
X151393Y148569D01*
X151124Y148528D01*
X150909Y148461D01*
X150720Y148394D01*
X150586Y148327D01*
X150492Y148259D01*
X150424Y148219D01*
X150411Y148206D01*
X150276Y148044D01*
X150182Y147856D01*
X150101Y147668D01*
X150061Y147479D01*
X150034Y147291D01*
X150021Y147157D01*
X150007Y147103D01*
Y147062D01*
Y147035D01*
Y147022D01*
X150021Y146739D01*
X150075Y146497D01*
X150142Y146296D01*
X150223Y146134D01*
X150290Y146013D01*
X150357Y145919D01*
X150411Y145865D01*
X150424Y145852D01*
X150599Y145731D01*
X150801Y145637D01*
X151016Y145583D01*
X151218Y145529D01*
X151406Y145502D01*
X151568Y145489D01*
X156853D01*
Y143364D01*
X151581D01*
X151299Y143377D01*
X151043Y143404D01*
X150801Y143444D01*
X150572Y143511D01*
X150371Y143579D01*
X150182Y143659D01*
X150007Y143740D01*
X149846Y143834D01*
X149712Y143915D01*
X149591Y143996D01*
X149483Y144076D01*
X149402Y144144D01*
X149335Y144211D01*
X149295Y144251D01*
X149268Y144278D01*
X149254Y144292D01*
X149106Y144480D01*
X148985Y144682D01*
X148878Y144883D01*
X148783Y145112D01*
X148716Y145341D01*
X148649Y145569D01*
X148555Y146000D01*
X148514Y146215D01*
X148488Y146403D01*
X148474Y146578D01*
X148461Y146726D01*
X148447Y146847D01*
Y146941D01*
Y147009D01*
Y147022D01*
X148461Y147358D01*
X148488Y147668D01*
X148528Y147950D01*
X148568Y148219D01*
X148635Y148461D01*
X148703Y148690D01*
X148770Y148891D01*
X148851Y149080D01*
X148931Y149241D01*
X148999Y149376D01*
X149066Y149497D01*
X149133Y149591D01*
X149173Y149672D01*
X149214Y149725D01*
X149241Y149752D01*
X149254Y149766D01*
X149416Y149927D01*
X149591Y150075D01*
X149765Y150196D01*
X149967Y150317D01*
X150155Y150398D01*
X150344Y150479D01*
X150545Y150546D01*
X150734Y150586D01*
X150909Y150627D01*
X151070Y150654D01*
X151218Y150680D01*
X151339Y150694D01*
X151447Y150707D01*
X156853D01*
Y148582D01*
D02*
G37*
G36*
X32717Y6811D02*
X31911D01*
Y5406D01*
Y5331D01*
Y5262D01*
X31917Y5198D01*
Y5152D01*
Y5112D01*
X31923Y5077D01*
Y5060D01*
Y5054D01*
X31934Y4956D01*
X31945Y4916D01*
X31951Y4876D01*
X31963Y4847D01*
X31974Y4824D01*
X31980Y4807D01*
Y4801D01*
X32003Y4761D01*
X32032Y4720D01*
X32101Y4663D01*
X32130Y4645D01*
X32153Y4628D01*
X32170Y4622D01*
X32176Y4617D01*
X32228Y4594D01*
X32291Y4582D01*
X32355Y4571D01*
X32418Y4559D01*
X32470D01*
X32516Y4553D01*
X32625D01*
X32683Y4559D01*
X32740Y4565D01*
X32787Y4571D01*
X32821Y4576D01*
X32850Y4582D01*
X32867Y4588D01*
X32873D01*
X32959Y4617D01*
X33034Y4640D01*
X33069Y4651D01*
X33092Y4663D01*
X33103Y4668D01*
X33190D01*
Y3949D01*
X33063Y3931D01*
X33000Y3926D01*
X32942Y3920D01*
X32890Y3914D01*
X32850D01*
X32827Y3908D01*
X32815D01*
X32648Y3897D01*
X32573Y3891D01*
X32504D01*
X32441Y3885D01*
X32355D01*
X32222Y3891D01*
X32107Y3897D01*
X32003Y3908D01*
X31917Y3926D01*
X31848Y3943D01*
X31796Y3954D01*
X31761Y3960D01*
X31750Y3966D01*
X31663Y4000D01*
X31583Y4035D01*
X31514Y4075D01*
X31450Y4110D01*
X31404Y4144D01*
X31364Y4173D01*
X31341Y4190D01*
X31335Y4196D01*
X31277Y4248D01*
X31225Y4306D01*
X31185Y4363D01*
X31151Y4421D01*
X31122Y4467D01*
X31105Y4501D01*
X31093Y4524D01*
X31087Y4536D01*
X31058Y4611D01*
X31036Y4692D01*
X31024Y4761D01*
X31012Y4830D01*
X31007Y4887D01*
X31001Y4928D01*
Y4956D01*
Y4968D01*
Y7462D01*
X32717D01*
Y6811D01*
D02*
G37*
G36*
X153155Y170035D02*
X153558Y169981D01*
X153908Y169900D01*
X154069Y169860D01*
X154204Y169820D01*
X154338Y169766D01*
X154459Y169726D01*
X154553Y169685D01*
X154634Y169645D01*
X154701Y169605D01*
X154755Y169591D01*
X154782Y169564D01*
X154796D01*
X155105Y169362D01*
X155387Y169147D01*
X155630Y168932D01*
X155831Y168717D01*
X155993Y168515D01*
X156100Y168367D01*
X156141Y168300D01*
X156167Y168260D01*
X156194Y168233D01*
Y168219D01*
X156302Y168017D01*
X156396Y167816D01*
X156490Y167614D01*
X156558Y167426D01*
X156611Y167251D01*
X156652Y167116D01*
X156665Y167062D01*
Y167022D01*
X156679Y167009D01*
Y166995D01*
X156732Y166713D01*
X156786Y166417D01*
X156813Y166121D01*
X156826Y165852D01*
X156840Y165623D01*
X156853Y165516D01*
Y165435D01*
Y165354D01*
Y165301D01*
Y165274D01*
Y165260D01*
Y162274D01*
X148622D01*
Y165180D01*
Y165529D01*
X148649Y165865D01*
X148662Y166148D01*
X148689Y166390D01*
X148716Y166592D01*
X148730Y166686D01*
Y166753D01*
X148743Y166807D01*
X148757Y166847D01*
Y166861D01*
Y166874D01*
X148824Y167143D01*
X148905Y167385D01*
X148985Y167614D01*
X149066Y167816D01*
X149147Y167977D01*
X149214Y168098D01*
X149254Y168179D01*
X149268Y168206D01*
X149469Y168488D01*
X149685Y168744D01*
X149913Y168972D01*
X150142Y169161D01*
X150344Y169322D01*
X150505Y169430D01*
X150572Y169470D01*
X150613Y169497D01*
X150640Y169524D01*
X150653D01*
X151003Y169699D01*
X151366Y169833D01*
X151716Y169927D01*
X152038Y169995D01*
X152173Y170021D01*
X152307Y170035D01*
X152428Y170048D01*
X152536D01*
X152617Y170062D01*
X152724D01*
X153155Y170035D01*
D02*
G37*
G36*
X156853Y158226D02*
X152132D01*
X156853Y155213D01*
Y152684D01*
X148622D01*
Y154635D01*
X154271D01*
X148622Y158118D01*
Y160176D01*
X156853D01*
Y158226D01*
D02*
G37*
G36*
X151514Y132388D02*
X151783Y132335D01*
X152011Y132254D01*
X152213Y132173D01*
X152361Y132092D01*
X152482Y132012D01*
X152550Y131958D01*
X152576Y131945D01*
X152765Y131756D01*
X152939Y131541D01*
X153087Y131312D01*
X153208Y131084D01*
X153303Y130868D01*
X153330Y130788D01*
X153370Y130707D01*
X153397Y130640D01*
X153410Y130586D01*
X153424Y130559D01*
Y130546D01*
X153478Y130371D01*
X153531Y130210D01*
X153572Y130061D01*
X153612Y129927D01*
X153639Y129819D01*
X153652Y129725D01*
X153666Y129672D01*
Y129658D01*
X153733Y129349D01*
X153773Y129201D01*
X153800Y129066D01*
X153814Y128945D01*
X153841Y128865D01*
X153854Y128811D01*
Y128784D01*
X153908Y128542D01*
X153962Y128340D01*
X154016Y128179D01*
X154069Y128058D01*
X154110Y127950D01*
X154150Y127896D01*
X154163Y127856D01*
X154177Y127842D01*
X154244Y127762D01*
X154325Y127708D01*
X154405Y127654D01*
X154486Y127627D01*
X154567Y127614D01*
X154621Y127600D01*
X154674D01*
X154755Y127614D01*
X154823Y127627D01*
X154944Y127681D01*
X155024Y127721D01*
X155038Y127748D01*
X155051D01*
X155159Y127869D01*
X155239Y128004D01*
X155266Y128044D01*
X155293Y128084D01*
X155307Y128111D01*
Y128125D01*
X155374Y128300D01*
X155414Y128461D01*
X155428Y128528D01*
Y128582D01*
X155441Y128609D01*
Y128622D01*
X155468Y128824D01*
X155482Y128986D01*
Y129053D01*
Y129107D01*
Y129133D01*
Y129147D01*
X155468Y129429D01*
X155441Y129698D01*
X155401Y129940D01*
X155347Y130169D01*
X155293Y130357D01*
X155253Y130505D01*
X155239Y130559D01*
X155226Y130599D01*
X155213Y130613D01*
Y130626D01*
X155105Y130882D01*
X154997Y131124D01*
X154890Y131339D01*
X154782Y131514D01*
X154688Y131649D01*
X154621Y131756D01*
X154567Y131824D01*
X154553Y131850D01*
Y132079D01*
X156437D01*
X156517Y131850D01*
X156598Y131608D01*
X156665Y131380D01*
X156732Y131164D01*
X156773Y130976D01*
X156813Y130828D01*
X156826Y130774D01*
Y130734D01*
X156840Y130707D01*
Y130694D01*
X156894Y130398D01*
X156934Y130115D01*
X156961Y129833D01*
X156988Y129591D01*
Y129389D01*
X157001Y129308D01*
Y129228D01*
Y129174D01*
Y129133D01*
Y129107D01*
Y129093D01*
X156988Y128797D01*
X156974Y128515D01*
X156934Y128246D01*
X156880Y128004D01*
X156826Y127762D01*
X156773Y127546D01*
X156705Y127345D01*
X156638Y127170D01*
X156558Y126995D01*
X156490Y126860D01*
X156437Y126739D01*
X156383Y126632D01*
X156329Y126551D01*
X156289Y126497D01*
X156275Y126457D01*
X156262Y126444D01*
X156127Y126269D01*
X155979Y126107D01*
X155818Y125973D01*
X155670Y125852D01*
X155508Y125758D01*
X155347Y125677D01*
X155199Y125610D01*
X155051Y125556D01*
X154796Y125475D01*
X154674Y125448D01*
X154580Y125435D01*
X154500D01*
X154446Y125421D01*
X154392D01*
X154083Y125435D01*
X153800Y125488D01*
X153558Y125556D01*
X153356Y125650D01*
X153182Y125731D01*
X153060Y125798D01*
X152980Y125852D01*
X152966Y125865D01*
X152953D01*
X152845Y125959D01*
X152751Y126067D01*
X152563Y126295D01*
X152415Y126538D01*
X152280Y126793D01*
X152173Y127022D01*
X152132Y127116D01*
X152106Y127197D01*
X152079Y127277D01*
X152052Y127331D01*
X152038Y127358D01*
Y127372D01*
X151944Y127708D01*
X151904Y127869D01*
X151864Y128017D01*
X151837Y128138D01*
X151810Y128246D01*
X151796Y128300D01*
Y128326D01*
X151756Y128515D01*
X151729Y128703D01*
X151689Y128878D01*
X151662Y129026D01*
X151635Y129147D01*
X151608Y129241D01*
X151594Y129295D01*
Y129322D01*
X151554Y129470D01*
X151500Y129604D01*
X151447Y129725D01*
X151406Y129819D01*
X151352Y129887D01*
X151326Y129940D01*
X151299Y129967D01*
X151285Y129981D01*
X151218Y130061D01*
X151137Y130115D01*
X151057Y130169D01*
X150989Y130196D01*
X150922Y130210D01*
X150868Y130223D01*
X150720D01*
X150640Y130196D01*
X150559Y130169D01*
X150492Y130142D01*
X150451Y130115D01*
X150411Y130088D01*
X150398Y130075D01*
X150384Y130061D01*
X150276Y129927D01*
X150196Y129806D01*
X150169Y129739D01*
X150142Y129698D01*
X150128Y129672D01*
Y129658D01*
X150075Y129497D01*
X150048Y129322D01*
X150034Y129241D01*
X150021Y129187D01*
Y129147D01*
Y129133D01*
X150007Y128932D01*
Y128838D01*
X149994Y128770D01*
Y128717D01*
Y128676D01*
Y128649D01*
Y128636D01*
X150007Y128353D01*
X150034Y128071D01*
X150075Y127802D01*
X150128Y127573D01*
X150182Y127358D01*
X150196Y127277D01*
X150223Y127197D01*
X150236Y127143D01*
X150250Y127102D01*
X150263Y127076D01*
Y127062D01*
X150384Y126766D01*
X150505Y126497D01*
X150653Y126242D01*
X150774Y126026D01*
X150895Y125852D01*
X150989Y125717D01*
X151030Y125663D01*
X151057Y125623D01*
X151083Y125610D01*
Y125596D01*
Y125367D01*
X149106D01*
X148918Y125865D01*
X148837Y126107D01*
X148770Y126322D01*
X148716Y126511D01*
X148676Y126659D01*
X148662Y126713D01*
Y126753D01*
X148649Y126766D01*
Y126780D01*
X148595Y127076D01*
X148555Y127385D01*
X148514Y127681D01*
X148501Y127963D01*
X148488Y128205D01*
X148474Y128313D01*
Y128394D01*
Y128474D01*
Y128528D01*
Y128555D01*
Y128569D01*
X148488Y128891D01*
X148501Y129201D01*
X148541Y129483D01*
X148595Y129752D01*
X148649Y129994D01*
X148716Y130223D01*
X148783Y130438D01*
X148851Y130626D01*
X148918Y130801D01*
X148985Y130949D01*
X149052Y131070D01*
X149106Y131178D01*
X149160Y131259D01*
X149200Y131312D01*
X149214Y131353D01*
X149227Y131366D01*
X149375Y131554D01*
X149537Y131702D01*
X149698Y131850D01*
X149859Y131971D01*
X150021Y132066D01*
X150196Y132146D01*
X150344Y132213D01*
X150505Y132267D01*
X150653Y132321D01*
X150787Y132348D01*
X150895Y132375D01*
X151003Y132388D01*
X151083Y132402D01*
X151204D01*
X151514Y132388D01*
D02*
G37*
G36*
X143837Y136383D02*
X143975Y136376D01*
X144105Y136353D01*
X144228Y136322D01*
X144336Y136291D01*
X144443Y136253D01*
X144536Y136214D01*
X144620Y136176D01*
X144697Y136130D01*
X144758Y136092D01*
X144820Y136053D01*
X144858Y136022D01*
X144896Y135992D01*
X144920Y135969D01*
X144935Y135961D01*
X144942Y135953D01*
X145019Y135869D01*
X145088Y135769D01*
X145150Y135669D01*
X145204Y135569D01*
X145242Y135462D01*
X145280Y135354D01*
X145334Y135139D01*
X145350Y135039D01*
X145365Y134947D01*
X145373Y134871D01*
X145380Y134794D01*
X145388Y134740D01*
Y134694D01*
Y134663D01*
Y134655D01*
X145380Y134486D01*
X145365Y134325D01*
X145342Y134172D01*
X145311Y134033D01*
X145265Y133895D01*
X145227Y133780D01*
X145181Y133665D01*
X145134Y133565D01*
X145081Y133480D01*
X145035Y133404D01*
X144996Y133335D01*
X144958Y133281D01*
X144920Y133235D01*
X144896Y133204D01*
X144881Y133188D01*
X144873Y133181D01*
X144774Y133089D01*
X144666Y133004D01*
X144551Y132935D01*
X144436Y132874D01*
X144320Y132820D01*
X144205Y132774D01*
X144098Y132735D01*
X143983Y132712D01*
X143883Y132689D01*
X143790Y132674D01*
X143706Y132659D01*
X143629Y132651D01*
X143568Y132643D01*
X143483D01*
X143322Y132651D01*
X143168Y132666D01*
X143030Y132697D01*
X142892Y132728D01*
X142769Y132774D01*
X142662Y132820D01*
X142554Y132874D01*
X142470Y132927D01*
X142385Y132974D01*
X142316Y133027D01*
X142254Y133073D01*
X142208Y133119D01*
X142170Y133150D01*
X142139Y133181D01*
X142124Y133196D01*
X142116Y133204D01*
X142032Y133319D01*
X141963Y133434D01*
X141894Y133565D01*
X141840Y133703D01*
X141794Y133834D01*
X141755Y133972D01*
X141702Y134233D01*
X141679Y134356D01*
X141663Y134471D01*
X141656Y134579D01*
X141648Y134663D01*
X141640Y134740D01*
Y134794D01*
Y134824D01*
Y134840D01*
Y134993D01*
X141648Y135132D01*
X141663Y135262D01*
X141679Y135370D01*
X141686Y135462D01*
X141702Y135531D01*
X141709Y135577D01*
Y135592D01*
X141740Y135723D01*
X141771Y135846D01*
X141809Y135969D01*
X141848Y136084D01*
X141878Y136184D01*
X141909Y136253D01*
X141917Y136284D01*
X141924Y136307D01*
X141932Y136314D01*
Y136322D01*
X142846D01*
Y136191D01*
X142792Y136115D01*
X142738Y136022D01*
X142692Y135930D01*
X142646Y135846D01*
X142608Y135769D01*
X142585Y135708D01*
X142569Y135669D01*
X142562Y135661D01*
Y135654D01*
X142516Y135523D01*
X142485Y135400D01*
X142462Y135285D01*
X142446Y135178D01*
X142439Y135085D01*
X142431Y135016D01*
Y134970D01*
Y134963D01*
Y134955D01*
X142439Y134755D01*
X142462Y134579D01*
X142500Y134433D01*
X142539Y134310D01*
X142577Y134218D01*
X142615Y134149D01*
X142639Y134110D01*
X142646Y134095D01*
X142738Y133995D01*
X142838Y133926D01*
X142946Y133864D01*
X143053Y133826D01*
X143145Y133803D01*
X143222Y133788D01*
X143253D01*
X143276Y133780D01*
X143291D01*
Y136391D01*
X143683D01*
X143837Y136383D01*
D02*
G37*
G36*
X146648Y130662D02*
X145787D01*
Y131860D01*
X146648D01*
Y130662D01*
D02*
G37*
G36*
X145280Y125747D02*
X141732D01*
Y126883D01*
X145280D01*
Y125747D01*
D02*
G37*
G36*
Y130693D02*
X141732D01*
Y131829D01*
X145280D01*
Y130693D01*
D02*
G37*
G36*
X146632Y130140D02*
X146648Y130017D01*
Y129971D01*
X146655Y129932D01*
Y129902D01*
Y129894D01*
X146670Y129733D01*
Y129656D01*
X146678Y129587D01*
Y129525D01*
Y129479D01*
Y129448D01*
Y129433D01*
Y129310D01*
X146663Y129187D01*
X146648Y129080D01*
X146625Y128972D01*
X146601Y128880D01*
X146571Y128796D01*
X146548Y128719D01*
X146517Y128650D01*
X146486Y128588D01*
X146456Y128534D01*
X146425Y128488D01*
X146402Y128450D01*
X146379Y128427D01*
X146363Y128404D01*
X146356Y128396D01*
X146348Y128389D01*
X146286Y128327D01*
X146217Y128273D01*
X146056Y128189D01*
X145895Y128127D01*
X145741Y128089D01*
X145595Y128058D01*
X145534Y128051D01*
X145480D01*
X145434Y128043D01*
X145280D01*
Y127559D01*
X144512D01*
Y128043D01*
X141732D01*
Y129180D01*
X144512D01*
Y130024D01*
X145280D01*
Y129141D01*
X145303D01*
X145426Y129149D01*
X145519Y129156D01*
X145603Y129180D01*
X145665Y129203D01*
X145711Y129218D01*
X145741Y129241D01*
X145757Y129249D01*
X145764Y129256D01*
X145803Y129310D01*
X145833Y129379D01*
X145856Y129456D01*
X145872Y129533D01*
X145879Y129602D01*
X145887Y129656D01*
Y129694D01*
Y129709D01*
X145879Y129809D01*
X145872Y129894D01*
X145864Y129924D01*
Y129948D01*
X145856Y129963D01*
Y129971D01*
X145833Y130055D01*
X145826Y130116D01*
X145810Y130155D01*
Y130170D01*
Y130262D01*
X146609D01*
X146632Y130140D01*
D02*
G37*
G36*
X25080Y6662D02*
X25166Y6650D01*
X25247Y6639D01*
X25316Y6621D01*
X25373Y6598D01*
X25414Y6587D01*
X25442Y6575D01*
X25454Y6569D01*
X25535Y6529D01*
X25610Y6489D01*
X25684Y6443D01*
X25748Y6402D01*
X25805Y6362D01*
X25846Y6327D01*
X25875Y6304D01*
X25886Y6299D01*
Y6598D01*
X26739D01*
Y3937D01*
X25886D01*
Y5815D01*
X25788Y5867D01*
X25742Y5890D01*
X25702Y5907D01*
X25673Y5918D01*
X25650Y5930D01*
X25633Y5936D01*
X25627D01*
X25540Y5959D01*
X25466Y5970D01*
X25431Y5976D01*
X25333D01*
X25281Y5970D01*
X25235Y5965D01*
X25201Y5959D01*
X25172Y5947D01*
X25155Y5942D01*
X25143Y5936D01*
X25137D01*
X25074Y5895D01*
X25028Y5855D01*
X25005Y5821D01*
X24993Y5809D01*
Y5803D01*
X24982Y5774D01*
X24964Y5734D01*
X24947Y5659D01*
X24941Y5625D01*
Y5596D01*
X24936Y5573D01*
Y5567D01*
X24924Y5452D01*
Y5400D01*
X24918Y5348D01*
Y5308D01*
Y5279D01*
Y5256D01*
Y5250D01*
Y3937D01*
X24066D01*
Y5665D01*
Y5757D01*
X24077Y5838D01*
X24106Y5993D01*
X24124Y6057D01*
X24147Y6120D01*
X24164Y6178D01*
X24187Y6224D01*
X24210Y6270D01*
X24233Y6310D01*
X24256Y6339D01*
X24273Y6368D01*
X24291Y6385D01*
X24302Y6402D01*
X24308Y6414D01*
X24314D01*
X24360Y6460D01*
X24411Y6500D01*
X24521Y6558D01*
X24630Y6604D01*
X24740Y6639D01*
X24838Y6656D01*
X24878Y6662D01*
X24918D01*
X24947Y6667D01*
X24987D01*
X25080Y6662D01*
D02*
G37*
G36*
X146648Y123535D02*
X141732D01*
Y124671D01*
X146648D01*
Y123535D01*
D02*
G37*
G36*
Y125716D02*
X145787D01*
Y126914D01*
X146648D01*
Y125716D01*
D02*
G37*
G36*
X145280Y139724D02*
Y139678D01*
Y139647D01*
Y139632D01*
X145288Y139578D01*
Y139532D01*
Y139502D01*
Y139494D01*
X145280Y139409D01*
X145273Y139317D01*
X145257Y139233D01*
X145234Y139156D01*
X145211Y139087D01*
X145196Y139033D01*
X145188Y139002D01*
X145181Y138987D01*
X145134Y138879D01*
X145073Y138772D01*
X145004Y138657D01*
X144935Y138557D01*
X144866Y138465D01*
X144812Y138396D01*
X144774Y138349D01*
X144766Y138342D01*
X144758Y138334D01*
X145280D01*
Y137197D01*
X141732D01*
Y138334D01*
X144098D01*
X144144Y138488D01*
X144167Y138557D01*
X144182Y138618D01*
X144190Y138664D01*
X144198Y138703D01*
X144205Y138726D01*
Y138733D01*
X144228Y138879D01*
X144236Y138949D01*
Y139018D01*
X144244Y139079D01*
Y139125D01*
Y139156D01*
Y139164D01*
Y139248D01*
X144236Y139340D01*
Y139379D01*
X144228Y139409D01*
Y139425D01*
Y139432D01*
X144221Y139486D01*
X144213Y139540D01*
Y139578D01*
X144205Y139609D01*
X144198Y139647D01*
X144190Y139663D01*
Y139770D01*
X145273D01*
X145280Y139724D01*
D02*
G37*
G36*
X153155Y90438D02*
X153558Y90384D01*
X153908Y90303D01*
X154069Y90263D01*
X154204Y90223D01*
X154338Y90169D01*
X154459Y90128D01*
X154553Y90088D01*
X154634Y90048D01*
X154701Y90007D01*
X154755Y89994D01*
X154782Y89967D01*
X154796D01*
X155105Y89765D01*
X155387Y89550D01*
X155630Y89335D01*
X155831Y89120D01*
X155993Y88918D01*
X156100Y88770D01*
X156141Y88703D01*
X156167Y88662D01*
X156194Y88635D01*
Y88622D01*
X156302Y88420D01*
X156396Y88219D01*
X156490Y88017D01*
X156558Y87828D01*
X156611Y87654D01*
X156652Y87519D01*
X156665Y87465D01*
Y87425D01*
X156679Y87412D01*
Y87398D01*
X156732Y87116D01*
X156786Y86820D01*
X156813Y86524D01*
X156826Y86255D01*
X156840Y86026D01*
X156853Y85919D01*
Y85838D01*
Y85757D01*
Y85703D01*
Y85676D01*
Y85663D01*
Y82677D01*
X148622D01*
Y85582D01*
Y85932D01*
X148649Y86268D01*
X148662Y86551D01*
X148689Y86793D01*
X148716Y86995D01*
X148730Y87089D01*
Y87156D01*
X148743Y87210D01*
X148757Y87250D01*
Y87264D01*
Y87277D01*
X148824Y87546D01*
X148905Y87788D01*
X148985Y88017D01*
X149066Y88219D01*
X149147Y88380D01*
X149214Y88501D01*
X149254Y88582D01*
X149268Y88609D01*
X149469Y88891D01*
X149685Y89147D01*
X149913Y89375D01*
X150142Y89564D01*
X150344Y89725D01*
X150505Y89833D01*
X150572Y89873D01*
X150613Y89900D01*
X150640Y89927D01*
X150653D01*
X151003Y90102D01*
X151366Y90236D01*
X151716Y90330D01*
X152038Y90398D01*
X152173Y90424D01*
X152307Y90438D01*
X152428Y90451D01*
X152536D01*
X152617Y90465D01*
X152724D01*
X153155Y90438D01*
D02*
G37*
%LPC*%
G36*
X165431Y5308D02*
X165068D01*
Y4674D01*
Y4671D01*
Y4663D01*
Y4648D01*
Y4628D01*
Y4605D01*
Y4579D01*
X165065Y4522D01*
Y4458D01*
X165059Y4401D01*
Y4375D01*
X165056Y4352D01*
X165053Y4332D01*
X165050Y4317D01*
Y4314D01*
X165048Y4306D01*
X165042Y4294D01*
X165033Y4280D01*
X165010Y4248D01*
X164996Y4231D01*
X164979Y4216D01*
X164976Y4214D01*
X164970Y4211D01*
X164955Y4205D01*
X164941Y4199D01*
X164921Y4190D01*
X164898Y4185D01*
X164872Y4182D01*
X164843Y4179D01*
X164829D01*
X164811Y4182D01*
X164788Y4185D01*
X164762Y4190D01*
X164734Y4199D01*
X164708Y4211D01*
X164679Y4228D01*
X164676Y4231D01*
X164667Y4236D01*
X164653Y4248D01*
X164639Y4262D01*
X164621Y4283D01*
X164604Y4303D01*
X164590Y4329D01*
X164578Y4355D01*
Y4358D01*
X164572Y4372D01*
Y4380D01*
X164569Y4395D01*
X164567Y4412D01*
X164564Y4430D01*
X164561Y4453D01*
X164558Y4479D01*
X164555Y4510D01*
Y4545D01*
X164552Y4582D01*
X164549Y4625D01*
Y4674D01*
Y4726D01*
Y5308D01*
X164187D01*
Y3937D01*
X164523D01*
Y4141D01*
X164526Y4136D01*
X164538Y4124D01*
X164552Y4104D01*
X164575Y4078D01*
X164604Y4049D01*
X164639Y4021D01*
X164679Y3992D01*
X164722Y3966D01*
X164728Y3963D01*
X164742Y3957D01*
X164768Y3946D01*
X164800Y3934D01*
X164837Y3923D01*
X164881Y3911D01*
X164929Y3905D01*
X164979Y3903D01*
X165001D01*
X165027Y3905D01*
X165062Y3911D01*
X165100Y3917D01*
X165140Y3928D01*
X165183Y3943D01*
X165226Y3963D01*
X165232Y3966D01*
X165243Y3974D01*
X165264Y3989D01*
X165287Y4006D01*
X165313Y4032D01*
X165339Y4061D01*
X165364Y4095D01*
X165385Y4133D01*
X165387Y4139D01*
X165390Y4153D01*
X165399Y4179D01*
X165408Y4214D01*
X165416Y4257D01*
X165422Y4309D01*
X165428Y4369D01*
X165431Y4438D01*
Y5308D01*
D02*
G37*
G36*
X166640Y5861D02*
X166623D01*
X166600Y5858D01*
X166571D01*
X166537Y5852D01*
X166496Y5847D01*
X166450Y5838D01*
X166401Y5829D01*
X166347Y5815D01*
X166295Y5798D01*
X166237Y5774D01*
X166182Y5751D01*
X166128Y5720D01*
X166073Y5685D01*
X166021Y5645D01*
X165972Y5599D01*
X165969Y5596D01*
X165961Y5587D01*
X165949Y5573D01*
X165932Y5550D01*
X165914Y5524D01*
X165892Y5492D01*
X165871Y5455D01*
X165845Y5412D01*
X165822Y5363D01*
X165799Y5308D01*
X165779Y5250D01*
X165762Y5187D01*
X165745Y5118D01*
X165733Y5043D01*
X165724Y4962D01*
X165721Y4879D01*
Y4873D01*
Y4859D01*
X165724Y4836D01*
Y4804D01*
X165730Y4764D01*
X165736Y4720D01*
X165742Y4668D01*
X165753Y4617D01*
X165765Y4559D01*
X165782Y4501D01*
X165802Y4441D01*
X165828Y4380D01*
X165857Y4323D01*
X165889Y4265D01*
X165929Y4211D01*
X165972Y4159D01*
X165975Y4156D01*
X165984Y4147D01*
X165998Y4136D01*
X166018Y4118D01*
X166041Y4098D01*
X166073Y4078D01*
X166107Y4055D01*
X166148Y4032D01*
X166194Y4006D01*
X166243Y3983D01*
X166297Y3963D01*
X166358Y3943D01*
X166421Y3926D01*
X166488Y3914D01*
X166560Y3905D01*
X166637Y3903D01*
X166655D01*
X166678Y3905D01*
X166707D01*
X166741Y3911D01*
X166784Y3917D01*
X166830Y3923D01*
X166879Y3934D01*
X166931Y3949D01*
X166986Y3966D01*
X167041Y3986D01*
X167095Y4012D01*
X167153Y4041D01*
X167205Y4075D01*
X167257Y4113D01*
X167306Y4159D01*
X167308Y4162D01*
X167317Y4170D01*
X167329Y4185D01*
X167343Y4205D01*
X167363Y4231D01*
X167383Y4262D01*
X167406Y4300D01*
X167429Y4343D01*
X167452Y4392D01*
X167475Y4444D01*
X167496Y4501D01*
X167516Y4565D01*
X167530Y4634D01*
X167542Y4706D01*
X167550Y4784D01*
X167553Y4867D01*
Y4870D01*
Y4882D01*
Y4896D01*
Y4916D01*
X167550Y4942D01*
X167548Y4971D01*
Y5003D01*
X167542Y5037D01*
X167533Y5115D01*
X167519Y5196D01*
X167499Y5276D01*
X167470Y5354D01*
Y5357D01*
X167467Y5360D01*
X167458Y5377D01*
X167444Y5406D01*
X167424Y5440D01*
X167398Y5481D01*
X167369Y5524D01*
X167331Y5570D01*
X167294Y5613D01*
X167288Y5619D01*
X167274Y5633D01*
X167251Y5654D01*
X167222Y5677D01*
X167185Y5705D01*
X167144Y5734D01*
X167098Y5760D01*
X167049Y5783D01*
X167046D01*
X167041Y5786D01*
X167032Y5792D01*
X167017Y5795D01*
X167000Y5800D01*
X166980Y5809D01*
X166957Y5815D01*
X166931Y5823D01*
X166871Y5835D01*
X166802Y5849D01*
X166724Y5858D01*
X166640Y5861D01*
D02*
G37*
G36*
X22137Y169182D02*
X21654D01*
Y168737D01*
X22137D01*
Y169182D01*
D02*
G37*
G36*
X23458Y171306D02*
X23416D01*
X23393Y171302D01*
X23366Y171298D01*
X23305Y171291D01*
X23232Y171279D01*
X23151Y171260D01*
X23067Y171233D01*
X22982Y171195D01*
X22978D01*
X22971Y171191D01*
X22959Y171183D01*
X22944Y171171D01*
X22905Y171145D01*
X22855Y171110D01*
X22798Y171064D01*
X22740Y171006D01*
X22686Y170937D01*
X22637Y170861D01*
Y170857D01*
X22633Y170849D01*
X22625Y170837D01*
X22617Y170822D01*
X22610Y170799D01*
X22602Y170776D01*
X22591Y170745D01*
X22579Y170711D01*
X22560Y170634D01*
X22541Y170542D01*
X22525Y170438D01*
X22521Y170327D01*
Y170323D01*
Y170315D01*
Y170304D01*
X22525Y170284D01*
Y170265D01*
X22529Y170238D01*
X22537Y170177D01*
X22548Y170104D01*
X22571Y170027D01*
X22598Y169943D01*
X22637Y169858D01*
Y169854D01*
X22640Y169847D01*
X22648Y169835D01*
X22660Y169820D01*
X22686Y169781D01*
X22725Y169731D01*
X22771Y169674D01*
X22829Y169616D01*
X22894Y169563D01*
X22971Y169513D01*
X22975D01*
X22982Y169509D01*
X22994Y169501D01*
X23009Y169493D01*
X23028Y169486D01*
X23055Y169474D01*
X23113Y169451D01*
X23186Y169432D01*
X23270Y169413D01*
X23359Y169397D01*
X23458Y169394D01*
X23497D01*
X23528Y169397D01*
X23562Y169401D01*
X23604Y169409D01*
X23647Y169417D01*
X23697Y169428D01*
X23750Y169444D01*
X23804Y169459D01*
X23862Y169482D01*
X23915Y169509D01*
X23973Y169539D01*
X24031Y169578D01*
X24084Y169616D01*
X24134Y169666D01*
X24138Y169670D01*
X24146Y169678D01*
X24157Y169693D01*
X24177Y169716D01*
X24196Y169739D01*
X24219Y169774D01*
X24242Y169808D01*
X24269Y169851D01*
X24292Y169901D01*
X24315Y169950D01*
X24338Y170008D01*
X24357Y170066D01*
X24376Y170131D01*
X24388Y170200D01*
X24395Y170269D01*
X24399Y170346D01*
Y170350D01*
Y170365D01*
Y170384D01*
X24395Y170415D01*
X24392Y170450D01*
X24384Y170492D01*
X24376Y170538D01*
X24365Y170588D01*
X24353Y170642D01*
X24334Y170695D01*
X24311Y170753D01*
X24288Y170811D01*
X24253Y170868D01*
X24219Y170926D01*
X24177Y170979D01*
X24130Y171033D01*
X24126Y171037D01*
X24119Y171045D01*
X24103Y171060D01*
X24084Y171075D01*
X24057Y171095D01*
X24027Y171118D01*
X23988Y171145D01*
X23946Y171168D01*
X23900Y171195D01*
X23850Y171221D01*
X23796Y171245D01*
X23735Y171264D01*
X23673Y171279D01*
X23604Y171294D01*
X23531Y171302D01*
X23458Y171306D01*
D02*
G37*
G36*
X26262Y171260D02*
X25751D01*
Y168737D01*
X26262D01*
Y171260D01*
D02*
G37*
G36*
X163432Y5792D02*
Y5308D01*
X163184D01*
Y5020D01*
X163432D01*
Y4461D01*
Y4458D01*
Y4455D01*
Y4447D01*
Y4435D01*
Y4406D01*
Y4375D01*
X163429Y4340D01*
Y4309D01*
Y4283D01*
X163426Y4271D01*
Y4265D01*
Y4260D01*
X163420Y4248D01*
X163409Y4234D01*
X163394Y4219D01*
X163389Y4216D01*
X163377Y4211D01*
X163357Y4205D01*
X163334Y4202D01*
X163325D01*
X163314Y4205D01*
X163297Y4208D01*
X163276Y4211D01*
X163251Y4216D01*
X163222Y4225D01*
X163187Y4236D01*
X163155Y3954D01*
X163161Y3951D01*
X163179Y3946D01*
X163204Y3937D01*
X163239Y3928D01*
X163282Y3920D01*
X163331Y3911D01*
X163386Y3905D01*
X163444Y3903D01*
X163461D01*
X163478Y3905D01*
X163501D01*
X163530Y3911D01*
X163559Y3917D01*
X163590Y3923D01*
X163619Y3934D01*
X163622Y3937D01*
X163631Y3940D01*
X163645Y3946D01*
X163662Y3957D01*
X163700Y3983D01*
X163720Y4000D01*
X163734Y4018D01*
X163737Y4021D01*
X163740Y4026D01*
X163746Y4041D01*
X163754Y4055D01*
X163763Y4078D01*
X163772Y4101D01*
X163777Y4130D01*
X163783Y4162D01*
Y4165D01*
X163786Y4176D01*
Y4193D01*
X163789Y4216D01*
X163792Y4251D01*
Y4297D01*
X163795Y4352D01*
Y4383D01*
Y4418D01*
Y5020D01*
X163962D01*
Y5308D01*
X163795D01*
Y5579D01*
X163432Y5792D01*
D02*
G37*
G36*
X17948Y171306D02*
X17917D01*
X17883Y171302D01*
X17837Y171294D01*
X17787Y171287D01*
X17733Y171271D01*
X17675Y171252D01*
X17618Y171225D01*
X17610Y171221D01*
X17595Y171210D01*
X17568Y171191D01*
X17537Y171168D01*
X17503Y171133D01*
X17468Y171095D01*
X17433Y171049D01*
X17406Y170999D01*
X17403Y170991D01*
X17399Y170972D01*
X17387Y170937D01*
X17376Y170891D01*
X17364Y170834D01*
X17357Y170765D01*
X17349Y170684D01*
X17345Y170592D01*
Y169432D01*
X17829D01*
Y170277D01*
Y170281D01*
Y170292D01*
Y170311D01*
Y170338D01*
Y170369D01*
Y170404D01*
X17833Y170480D01*
Y170565D01*
X17841Y170642D01*
Y170676D01*
X17844Y170707D01*
X17848Y170734D01*
X17852Y170753D01*
Y170757D01*
X17856Y170768D01*
X17864Y170784D01*
X17875Y170803D01*
X17906Y170845D01*
X17925Y170868D01*
X17948Y170887D01*
X17952Y170891D01*
X17959Y170895D01*
X17979Y170903D01*
X17998Y170910D01*
X18025Y170922D01*
X18056Y170930D01*
X18090Y170933D01*
X18128Y170937D01*
X18148D01*
X18171Y170933D01*
X18201Y170930D01*
X18236Y170922D01*
X18274Y170910D01*
X18309Y170895D01*
X18347Y170872D01*
X18351Y170868D01*
X18363Y170861D01*
X18382Y170845D01*
X18401Y170826D01*
X18424Y170799D01*
X18447Y170772D01*
X18466Y170738D01*
X18482Y170703D01*
Y170699D01*
X18489Y170680D01*
Y170668D01*
X18493Y170649D01*
X18497Y170626D01*
X18501Y170603D01*
X18505Y170572D01*
X18509Y170538D01*
X18512Y170496D01*
Y170450D01*
X18516Y170400D01*
X18520Y170342D01*
Y170277D01*
Y170208D01*
Y169432D01*
X19004D01*
Y171260D01*
X18555D01*
Y170987D01*
X18551Y170995D01*
X18535Y171010D01*
X18516Y171037D01*
X18486Y171072D01*
X18447Y171110D01*
X18401Y171149D01*
X18347Y171187D01*
X18290Y171221D01*
X18282Y171225D01*
X18263Y171233D01*
X18228Y171248D01*
X18186Y171264D01*
X18136Y171279D01*
X18079Y171294D01*
X18013Y171302D01*
X17948Y171306D01*
D02*
G37*
G36*
X20156D02*
X20125D01*
X20102Y171302D01*
X20075Y171298D01*
X20045Y171291D01*
X19972Y171275D01*
X19887Y171245D01*
X19841Y171225D01*
X19795Y171198D01*
X19749Y171171D01*
X19707Y171137D01*
X19661Y171099D01*
X19618Y171053D01*
X19614Y171049D01*
X19611Y171041D01*
X19599Y171026D01*
X19584Y171006D01*
X19568Y170979D01*
X19549Y170949D01*
X19526Y170910D01*
X19507Y170868D01*
X19488Y170822D01*
X19465Y170768D01*
X19446Y170711D01*
X19430Y170645D01*
X19415Y170580D01*
X19407Y170507D01*
X19399Y170427D01*
X19396Y170346D01*
Y170342D01*
Y170327D01*
Y170300D01*
X19399Y170269D01*
X19403Y170231D01*
X19407Y170185D01*
X19415Y170135D01*
X19422Y170085D01*
X19449Y169970D01*
X19488Y169851D01*
X19511Y169793D01*
X19542Y169739D01*
X19572Y169685D01*
X19611Y169639D01*
X19614Y169635D01*
X19622Y169628D01*
X19634Y169616D01*
X19649Y169601D01*
X19672Y169582D01*
X19699Y169563D01*
X19730Y169539D01*
X19760Y169517D01*
X19799Y169493D01*
X19841Y169470D01*
X19937Y169432D01*
X19987Y169417D01*
X20045Y169405D01*
X20102Y169397D01*
X20164Y169394D01*
X20194D01*
X20214Y169397D01*
X20241Y169401D01*
X20271Y169409D01*
X20344Y169424D01*
X20425Y169455D01*
X20471Y169478D01*
X20517Y169501D01*
X20559Y169532D01*
X20605Y169566D01*
X20651Y169605D01*
X20694Y169651D01*
Y168737D01*
X21177D01*
Y171260D01*
X20728D01*
Y170995D01*
X20724Y171003D01*
X20709Y171022D01*
X20682Y171049D01*
X20651Y171083D01*
X20613Y171118D01*
X20567Y171160D01*
X20517Y171195D01*
X20459Y171229D01*
X20452Y171233D01*
X20433Y171241D01*
X20406Y171252D01*
X20367Y171267D01*
X20321Y171283D01*
X20267Y171294D01*
X20214Y171302D01*
X20156Y171306D01*
D02*
G37*
G36*
X178213Y28113D02*
X177729D01*
Y25591D01*
X178179D01*
Y25855D01*
X178182Y25848D01*
X178198Y25829D01*
X178225Y25802D01*
X178255Y25767D01*
X178294Y25733D01*
X178340Y25690D01*
X178390Y25656D01*
X178447Y25621D01*
X178455Y25617D01*
X178474Y25610D01*
X178501Y25598D01*
X178540Y25583D01*
X178586Y25567D01*
X178639Y25556D01*
X178693Y25548D01*
X178751Y25545D01*
X178781D01*
X178805Y25548D01*
X178832Y25552D01*
X178862Y25560D01*
X178935Y25575D01*
X179020Y25606D01*
X179066Y25625D01*
X179112Y25652D01*
X179158Y25679D01*
X179200Y25713D01*
X179246Y25752D01*
X179288Y25798D01*
X179292Y25802D01*
X179296Y25809D01*
X179308Y25825D01*
X179323Y25844D01*
X179338Y25871D01*
X179358Y25902D01*
X179381Y25940D01*
X179400Y25982D01*
X179419Y26028D01*
X179442Y26082D01*
X179461Y26140D01*
X179477Y26205D01*
X179492Y26270D01*
X179500Y26343D01*
X179507Y26424D01*
X179511Y26504D01*
Y26508D01*
Y26524D01*
Y26550D01*
X179507Y26581D01*
X179504Y26620D01*
X179500Y26666D01*
X179492Y26716D01*
X179484Y26766D01*
X179457Y26881D01*
X179419Y27000D01*
X179396Y27057D01*
X179365Y27111D01*
X179334Y27165D01*
X179296Y27211D01*
X179292Y27215D01*
X179285Y27223D01*
X179273Y27234D01*
X179258Y27249D01*
X179235Y27269D01*
X179208Y27288D01*
X179177Y27311D01*
X179146Y27334D01*
X179108Y27357D01*
X179066Y27380D01*
X178970Y27418D01*
X178920Y27434D01*
X178862Y27445D01*
X178805Y27453D01*
X178743Y27457D01*
X178712D01*
X178693Y27453D01*
X178666Y27449D01*
X178636Y27441D01*
X178563Y27426D01*
X178482Y27395D01*
X178436Y27372D01*
X178390Y27349D01*
X178348Y27319D01*
X178302Y27284D01*
X178255Y27246D01*
X178213Y27200D01*
Y28113D01*
D02*
G37*
G36*
X168037D02*
X166044D01*
Y27687D01*
X166785D01*
Y25591D01*
X167296D01*
Y27687D01*
X168037D01*
Y28113D01*
D02*
G37*
G36*
X177253Y27418D02*
X176769D01*
Y25591D01*
X177253D01*
Y27418D01*
D02*
G37*
G36*
X16866Y6886D02*
X16854D01*
X16803Y6880D01*
X16751Y6875D01*
X16664Y6846D01*
X16589Y6800D01*
X16532Y6748D01*
X16491Y6696D01*
X16457Y6656D01*
X16440Y6621D01*
X16434Y6615D01*
Y6610D01*
X16411Y6558D01*
X16394Y6494D01*
X16359Y6356D01*
X16336Y6201D01*
X16324Y6051D01*
X16319Y5982D01*
X16313Y5918D01*
Y5855D01*
X16307Y5803D01*
Y5763D01*
Y5728D01*
Y5705D01*
Y5700D01*
Y5584D01*
X16313Y5481D01*
X16319Y5383D01*
X16330Y5291D01*
X16336Y5210D01*
X16348Y5135D01*
X16359Y5066D01*
X16371Y5008D01*
X16388Y4956D01*
X16399Y4910D01*
X16411Y4876D01*
X16417Y4841D01*
X16428Y4818D01*
X16434Y4801D01*
X16440Y4795D01*
Y4789D01*
X16463Y4743D01*
X16491Y4697D01*
X16555Y4628D01*
X16624Y4582D01*
X16693Y4548D01*
X16756Y4530D01*
X16808Y4519D01*
X16843Y4513D01*
X16854D01*
X16906Y4519D01*
X16952Y4524D01*
X17039Y4559D01*
X17114Y4599D01*
X17171Y4651D01*
X17211Y4703D01*
X17246Y4749D01*
X17263Y4778D01*
X17269Y4784D01*
Y4789D01*
X17292Y4847D01*
X17309Y4910D01*
X17344Y5049D01*
X17367Y5198D01*
X17379Y5348D01*
X17384Y5417D01*
X17390Y5481D01*
Y5538D01*
X17396Y5590D01*
Y5636D01*
Y5665D01*
Y5688D01*
Y5694D01*
Y5809D01*
X17390Y5918D01*
X17384Y6016D01*
X17379Y6109D01*
X17367Y6195D01*
X17356Y6270D01*
X17344Y6333D01*
X17332Y6397D01*
X17327Y6448D01*
X17315Y6489D01*
X17304Y6529D01*
X17292Y6558D01*
X17286Y6581D01*
X17281Y6598D01*
X17275Y6604D01*
Y6610D01*
X17252Y6656D01*
X17223Y6702D01*
X17154Y6771D01*
X17085Y6817D01*
X17016Y6852D01*
X16952Y6875D01*
X16900Y6880D01*
X16866Y6886D01*
D02*
G37*
G36*
X172027Y28156D02*
X172004D01*
X171973Y28152D01*
X171935D01*
X171889Y28144D01*
X171835Y28137D01*
X171774Y28125D01*
X171708Y28113D01*
X171635Y28094D01*
X171566Y28071D01*
X171489Y28041D01*
X171416Y28010D01*
X171344Y27968D01*
X171271Y27921D01*
X171201Y27868D01*
X171136Y27806D01*
X171132Y27802D01*
X171121Y27791D01*
X171105Y27772D01*
X171082Y27741D01*
X171059Y27706D01*
X171029Y27664D01*
X171002Y27614D01*
X170967Y27557D01*
X170936Y27491D01*
X170906Y27418D01*
X170879Y27342D01*
X170856Y27257D01*
X170833Y27165D01*
X170817Y27065D01*
X170806Y26958D01*
X170802Y26846D01*
Y26838D01*
Y26819D01*
X170806Y26789D01*
Y26746D01*
X170814Y26693D01*
X170821Y26635D01*
X170829Y26566D01*
X170844Y26497D01*
X170860Y26420D01*
X170883Y26343D01*
X170910Y26263D01*
X170944Y26182D01*
X170983Y26105D01*
X171025Y26028D01*
X171079Y25955D01*
X171136Y25886D01*
X171140Y25882D01*
X171151Y25871D01*
X171171Y25855D01*
X171198Y25833D01*
X171228Y25806D01*
X171271Y25779D01*
X171317Y25748D01*
X171370Y25717D01*
X171432Y25683D01*
X171497Y25652D01*
X171570Y25625D01*
X171651Y25598D01*
X171735Y25575D01*
X171824Y25560D01*
X171920Y25548D01*
X172023Y25545D01*
X172046D01*
X172077Y25548D01*
X172115D01*
X172161Y25556D01*
X172219Y25564D01*
X172280Y25571D01*
X172346Y25587D01*
X172415Y25606D01*
X172488Y25629D01*
X172561Y25656D01*
X172634Y25690D01*
X172711Y25729D01*
X172780Y25775D01*
X172849Y25825D01*
X172914Y25886D01*
X172918Y25890D01*
X172929Y25902D01*
X172945Y25921D01*
X172964Y25948D01*
X172991Y25982D01*
X173018Y26024D01*
X173048Y26074D01*
X173079Y26132D01*
X173110Y26197D01*
X173141Y26266D01*
X173168Y26343D01*
X173194Y26428D01*
X173214Y26520D01*
X173229Y26616D01*
X173240Y26719D01*
X173244Y26831D01*
Y26835D01*
Y26850D01*
Y26869D01*
Y26896D01*
X173240Y26931D01*
X173237Y26969D01*
Y27011D01*
X173229Y27057D01*
X173217Y27161D01*
X173198Y27269D01*
X173171Y27376D01*
X173133Y27480D01*
Y27484D01*
X173129Y27487D01*
X173118Y27511D01*
X173098Y27549D01*
X173072Y27595D01*
X173037Y27649D01*
X172998Y27706D01*
X172949Y27768D01*
X172899Y27825D01*
X172891Y27833D01*
X172872Y27852D01*
X172841Y27879D01*
X172803Y27910D01*
X172753Y27948D01*
X172699Y27987D01*
X172638Y28021D01*
X172572Y28052D01*
X172568D01*
X172561Y28056D01*
X172549Y28063D01*
X172530Y28067D01*
X172507Y28075D01*
X172480Y28087D01*
X172449Y28094D01*
X172415Y28106D01*
X172334Y28121D01*
X172242Y28140D01*
X172138Y28152D01*
X172027Y28156D01*
D02*
G37*
G36*
X175448Y27457D02*
X175410D01*
X175379Y27453D01*
X175345Y27449D01*
X175303Y27441D01*
X175260Y27434D01*
X175210Y27422D01*
X175157Y27407D01*
X175103Y27391D01*
X175045Y27369D01*
X174992Y27342D01*
X174934Y27311D01*
X174876Y27272D01*
X174822Y27234D01*
X174773Y27184D01*
X174769Y27180D01*
X174761Y27173D01*
X174750Y27157D01*
X174730Y27134D01*
X174711Y27111D01*
X174688Y27077D01*
X174665Y27042D01*
X174638Y27000D01*
X174615Y26950D01*
X174592Y26900D01*
X174569Y26842D01*
X174550Y26785D01*
X174531Y26719D01*
X174519Y26650D01*
X174512Y26581D01*
X174508Y26504D01*
Y26501D01*
Y26485D01*
Y26466D01*
X174512Y26435D01*
X174515Y26401D01*
X174523Y26359D01*
X174531Y26313D01*
X174542Y26263D01*
X174554Y26209D01*
X174573Y26155D01*
X174596Y26097D01*
X174619Y26040D01*
X174653Y25982D01*
X174688Y25925D01*
X174730Y25871D01*
X174776Y25817D01*
X174780Y25813D01*
X174788Y25806D01*
X174803Y25790D01*
X174822Y25775D01*
X174849Y25756D01*
X174880Y25733D01*
X174918Y25706D01*
X174961Y25683D01*
X175007Y25656D01*
X175057Y25629D01*
X175110Y25606D01*
X175172Y25587D01*
X175233Y25571D01*
X175303Y25556D01*
X175375Y25548D01*
X175448Y25545D01*
X175491D01*
X175514Y25548D01*
X175541Y25552D01*
X175602Y25560D01*
X175675Y25571D01*
X175756Y25591D01*
X175840Y25617D01*
X175925Y25656D01*
X175928D01*
X175936Y25660D01*
X175948Y25667D01*
X175963Y25679D01*
X176001Y25706D01*
X176051Y25740D01*
X176109Y25786D01*
X176166Y25844D01*
X176220Y25913D01*
X176270Y25990D01*
Y25994D01*
X176274Y26001D01*
X176282Y26013D01*
X176289Y26028D01*
X176297Y26051D01*
X176305Y26074D01*
X176316Y26105D01*
X176328Y26140D01*
X176347Y26217D01*
X176366Y26309D01*
X176382Y26412D01*
X176385Y26524D01*
Y26528D01*
Y26535D01*
Y26547D01*
X176382Y26566D01*
Y26585D01*
X176378Y26612D01*
X176370Y26673D01*
X176358Y26746D01*
X176336Y26823D01*
X176309Y26908D01*
X176270Y26992D01*
Y26996D01*
X176266Y27004D01*
X176259Y27015D01*
X176247Y27031D01*
X176220Y27069D01*
X176182Y27119D01*
X176136Y27176D01*
X176078Y27234D01*
X176013Y27288D01*
X175936Y27338D01*
X175932D01*
X175925Y27342D01*
X175913Y27349D01*
X175898Y27357D01*
X175879Y27365D01*
X175852Y27376D01*
X175794Y27399D01*
X175721Y27418D01*
X175637Y27438D01*
X175548Y27453D01*
X175448Y27457D01*
D02*
G37*
G36*
X183370Y28113D02*
X182833D01*
X181819Y25591D01*
X182372D01*
X182587Y26163D01*
X183605D01*
X183812Y25591D01*
X184350D01*
X183370Y28113D01*
D02*
G37*
G36*
X183817Y5829D02*
X183065D01*
X183042Y5826D01*
X182990Y5823D01*
X182930Y5821D01*
X182872Y5815D01*
X182815Y5803D01*
X182763Y5792D01*
X182760D01*
X182754Y5789D01*
X182746Y5786D01*
X182734Y5783D01*
X182705Y5769D01*
X182665Y5751D01*
X182622Y5728D01*
X182576Y5697D01*
X182527Y5659D01*
X182481Y5616D01*
X182478D01*
X182475Y5610D01*
X182460Y5593D01*
X182440Y5567D01*
X182411Y5533D01*
X182383Y5486D01*
X182354Y5435D01*
X182325Y5377D01*
X182299Y5311D01*
Y5308D01*
X182296Y5302D01*
X182293Y5294D01*
X182290Y5279D01*
X182285Y5262D01*
X182279Y5239D01*
X182273Y5216D01*
X182267Y5187D01*
X182262Y5155D01*
X182256Y5124D01*
X182244Y5046D01*
X182239Y4959D01*
X182236Y4864D01*
Y4862D01*
Y4853D01*
Y4841D01*
Y4824D01*
X182239Y4804D01*
Y4781D01*
X182244Y4726D01*
X182250Y4663D01*
X182262Y4597D01*
X182276Y4527D01*
X182296Y4461D01*
Y4458D01*
X182299Y4453D01*
X182302Y4441D01*
X182308Y4427D01*
X182316Y4409D01*
X182325Y4389D01*
X182348Y4343D01*
X182377Y4288D01*
X182411Y4234D01*
X182452Y4179D01*
X182498Y4127D01*
X182503Y4124D01*
X182515Y4110D01*
X182538Y4092D01*
X182567Y4072D01*
X182607Y4047D01*
X182653Y4021D01*
X182705Y3997D01*
X182766Y3974D01*
X182771Y3972D01*
X182789Y3969D01*
X182815Y3963D01*
X182855Y3957D01*
X182901Y3949D01*
X182959Y3943D01*
X183028Y3940D01*
X183103Y3937D01*
X183817D01*
Y5829D01*
D02*
G37*
G36*
X186907Y5861D02*
X186872D01*
X186849Y5858D01*
X186821Y5855D01*
X186786Y5852D01*
X186749Y5849D01*
X186705Y5844D01*
X186619Y5823D01*
X186527Y5798D01*
X186484Y5780D01*
X186441Y5760D01*
X186397Y5737D01*
X186360Y5711D01*
X186357Y5708D01*
X186351Y5705D01*
X186340Y5697D01*
X186328Y5685D01*
X186311Y5668D01*
X186294Y5651D01*
X186274Y5630D01*
X186253Y5604D01*
X186230Y5579D01*
X186210Y5547D01*
X186187Y5515D01*
X186167Y5478D01*
X186132Y5400D01*
X186115Y5354D01*
X186103Y5308D01*
X186484Y5236D01*
Y5239D01*
X186487Y5242D01*
X186492Y5259D01*
X186501Y5285D01*
X186518Y5316D01*
X186538Y5351D01*
X186564Y5386D01*
X186596Y5423D01*
X186633Y5455D01*
X186639Y5458D01*
X186654Y5466D01*
X186677Y5481D01*
X186708Y5495D01*
X186749Y5509D01*
X186795Y5524D01*
X186849Y5533D01*
X186907Y5535D01*
X186930D01*
X186947Y5533D01*
X186970Y5530D01*
X186994Y5527D01*
X187051Y5515D01*
X187114Y5495D01*
X187181Y5466D01*
X187212Y5449D01*
X187244Y5429D01*
X187276Y5403D01*
X187304Y5374D01*
X187307Y5371D01*
X187310Y5365D01*
X187319Y5357D01*
X187328Y5345D01*
X187339Y5328D01*
X187351Y5308D01*
X187362Y5285D01*
X187376Y5256D01*
X187391Y5224D01*
X187402Y5190D01*
X187414Y5150D01*
X187425Y5109D01*
X187434Y5063D01*
X187443Y5011D01*
X187446Y4959D01*
X187449Y4902D01*
Y4899D01*
Y4887D01*
Y4870D01*
X187446Y4847D01*
X187443Y4818D01*
X187440Y4787D01*
X187437Y4752D01*
X187431Y4712D01*
X187414Y4631D01*
X187385Y4545D01*
X187371Y4504D01*
X187351Y4467D01*
X187328Y4430D01*
X187302Y4395D01*
X187299Y4392D01*
X187296Y4389D01*
X187287Y4380D01*
X187276Y4369D01*
X187258Y4358D01*
X187241Y4343D01*
X187221Y4326D01*
X187195Y4311D01*
X187140Y4280D01*
X187074Y4254D01*
X187037Y4242D01*
X186996Y4236D01*
X186953Y4231D01*
X186910Y4228D01*
X186890D01*
X186867Y4231D01*
X186835Y4234D01*
X186801Y4239D01*
X186760Y4248D01*
X186717Y4260D01*
X186671Y4274D01*
X186665Y4277D01*
X186651Y4283D01*
X186628Y4291D01*
X186599Y4306D01*
X186567Y4323D01*
X186533Y4343D01*
X186498Y4363D01*
X186463Y4389D01*
Y4631D01*
X186898D01*
Y4951D01*
X186078D01*
Y4193D01*
X186083Y4188D01*
X186101Y4173D01*
X186127Y4153D01*
X186167Y4124D01*
X186216Y4092D01*
X186276Y4058D01*
X186346Y4023D01*
X186426Y3989D01*
X186429D01*
X186438Y3986D01*
X186449Y3980D01*
X186466Y3974D01*
X186487Y3969D01*
X186510Y3963D01*
X186538Y3954D01*
X186570Y3946D01*
X186639Y3931D01*
X186717Y3917D01*
X186801Y3905D01*
X186887Y3903D01*
X186916D01*
X186936Y3905D01*
X186962D01*
X186994Y3908D01*
X187025Y3914D01*
X187063Y3917D01*
X187143Y3934D01*
X187230Y3954D01*
X187319Y3986D01*
X187362Y4003D01*
X187405Y4026D01*
X187408Y4029D01*
X187414Y4032D01*
X187425Y4041D01*
X187440Y4049D01*
X187460Y4061D01*
X187480Y4078D01*
X187529Y4118D01*
X187581Y4167D01*
X187636Y4228D01*
X187688Y4300D01*
X187734Y4380D01*
Y4383D01*
X187739Y4392D01*
X187742Y4404D01*
X187751Y4421D01*
X187759Y4444D01*
X187768Y4470D01*
X187777Y4499D01*
X187788Y4530D01*
X187800Y4568D01*
X187809Y4608D01*
X187826Y4692D01*
X187837Y4787D01*
X187843Y4887D01*
Y4890D01*
Y4902D01*
Y4916D01*
X187840Y4936D01*
Y4962D01*
X187837Y4994D01*
X187831Y5026D01*
X187829Y5063D01*
X187814Y5144D01*
X187791Y5233D01*
X187762Y5322D01*
X187722Y5412D01*
X187719Y5415D01*
X187716Y5423D01*
X187708Y5435D01*
X187699Y5449D01*
X187685Y5469D01*
X187670Y5492D01*
X187630Y5541D01*
X187578Y5599D01*
X187518Y5659D01*
X187443Y5714D01*
X187359Y5766D01*
X187356D01*
X187351Y5769D01*
X187342Y5774D01*
X187328Y5780D01*
X187307Y5789D01*
X187287Y5795D01*
X187261Y5803D01*
X187235Y5815D01*
X187204Y5823D01*
X187169Y5832D01*
X187132Y5838D01*
X187091Y5847D01*
X187005Y5858D01*
X186907Y5861D01*
D02*
G37*
G36*
X185723Y5829D02*
X185355D01*
X184574Y4559D01*
Y5829D01*
X184220D01*
Y3937D01*
X184603D01*
X185369Y5178D01*
Y3937D01*
X185723D01*
Y5829D01*
D02*
G37*
G36*
X181562Y27418D02*
X181078D01*
Y26574D01*
Y26570D01*
Y26558D01*
Y26539D01*
Y26512D01*
Y26481D01*
Y26447D01*
X181074Y26370D01*
Y26286D01*
X181066Y26209D01*
Y26174D01*
X181062Y26144D01*
X181059Y26117D01*
X181055Y26097D01*
Y26094D01*
X181051Y26082D01*
X181043Y26067D01*
X181032Y26048D01*
X181001Y26005D01*
X180982Y25982D01*
X180959Y25963D01*
X180955Y25959D01*
X180947Y25955D01*
X180928Y25948D01*
X180909Y25940D01*
X180882Y25929D01*
X180851Y25921D01*
X180817Y25917D01*
X180778Y25913D01*
X180759D01*
X180736Y25917D01*
X180705Y25921D01*
X180671Y25929D01*
X180632Y25940D01*
X180598Y25955D01*
X180560Y25978D01*
X180556Y25982D01*
X180544Y25990D01*
X180525Y26005D01*
X180506Y26024D01*
X180483Y26051D01*
X180460Y26078D01*
X180440Y26113D01*
X180425Y26147D01*
Y26151D01*
X180417Y26170D01*
Y26182D01*
X180414Y26201D01*
X180410Y26224D01*
X180406Y26247D01*
X180402Y26278D01*
X180398Y26313D01*
X180394Y26355D01*
Y26401D01*
X180391Y26451D01*
X180387Y26508D01*
Y26574D01*
Y26643D01*
Y27418D01*
X179903D01*
Y25591D01*
X180352D01*
Y25863D01*
X180356Y25855D01*
X180371Y25840D01*
X180391Y25813D01*
X180421Y25779D01*
X180460Y25740D01*
X180506Y25702D01*
X180560Y25664D01*
X180617Y25629D01*
X180625Y25625D01*
X180644Y25617D01*
X180678Y25602D01*
X180721Y25587D01*
X180771Y25571D01*
X180828Y25556D01*
X180894Y25548D01*
X180959Y25545D01*
X180990D01*
X181024Y25548D01*
X181070Y25556D01*
X181120Y25564D01*
X181174Y25579D01*
X181231Y25598D01*
X181289Y25625D01*
X181297Y25629D01*
X181312Y25640D01*
X181339Y25660D01*
X181370Y25683D01*
X181404Y25717D01*
X181439Y25756D01*
X181473Y25802D01*
X181500Y25852D01*
X181504Y25859D01*
X181508Y25879D01*
X181519Y25913D01*
X181531Y25959D01*
X181543Y26017D01*
X181550Y26086D01*
X181558Y26167D01*
X181562Y26259D01*
Y27418D01*
D02*
G37*
G36*
X170403Y28113D02*
X169892D01*
Y26743D01*
Y26739D01*
Y26727D01*
Y26712D01*
Y26689D01*
Y26666D01*
Y26635D01*
X169888Y26566D01*
Y26497D01*
X169884Y26428D01*
X169880Y26366D01*
Y26339D01*
X169877Y26320D01*
Y26313D01*
X169869Y26293D01*
X169857Y26266D01*
X169846Y26232D01*
X169823Y26190D01*
X169796Y26147D01*
X169765Y26109D01*
X169723Y26070D01*
X169715Y26067D01*
X169700Y26055D01*
X169673Y26040D01*
X169635Y26024D01*
X169589Y26009D01*
X169531Y25994D01*
X169462Y25982D01*
X169389Y25978D01*
X169354D01*
X169316Y25982D01*
X169266Y25990D01*
X169216Y26001D01*
X169162Y26017D01*
X169112Y26036D01*
X169066Y26067D01*
X169062Y26070D01*
X169047Y26082D01*
X169028Y26101D01*
X169009Y26128D01*
X168986Y26159D01*
X168963Y26193D01*
X168944Y26236D01*
X168932Y26282D01*
Y26289D01*
X168928Y26309D01*
X168924Y26339D01*
X168920Y26385D01*
X168917Y26443D01*
X168913Y26520D01*
Y26562D01*
X168909Y26608D01*
Y26658D01*
Y26712D01*
Y28113D01*
X168398D01*
Y26785D01*
Y26781D01*
Y26766D01*
Y26743D01*
Y26712D01*
Y26673D01*
X168402Y26631D01*
Y26585D01*
Y26535D01*
X168410Y26428D01*
X168417Y26324D01*
X168421Y26274D01*
X168425Y26224D01*
X168433Y26182D01*
X168440Y26144D01*
Y26140D01*
Y26136D01*
X168448Y26113D01*
X168460Y26078D01*
X168475Y26032D01*
X168498Y25982D01*
X168521Y25929D01*
X168556Y25875D01*
X168594Y25825D01*
X168598Y25821D01*
X168613Y25802D01*
X168640Y25779D01*
X168671Y25752D01*
X168717Y25717D01*
X168767Y25683D01*
X168824Y25648D01*
X168890Y25617D01*
X168894D01*
X168897Y25614D01*
X168909Y25610D01*
X168924Y25606D01*
X168940Y25602D01*
X168963Y25594D01*
X169020Y25583D01*
X169089Y25567D01*
X169170Y25556D01*
X169266Y25548D01*
X169374Y25545D01*
X169431D01*
X169462Y25548D01*
X169496D01*
X169577Y25556D01*
X169665Y25564D01*
X169754Y25579D01*
X169842Y25598D01*
X169880Y25610D01*
X169919Y25625D01*
X169923D01*
X169927Y25629D01*
X169949Y25640D01*
X169984Y25660D01*
X170026Y25683D01*
X170072Y25717D01*
X170122Y25752D01*
X170168Y25798D01*
X170214Y25844D01*
X170218Y25852D01*
X170230Y25867D01*
X170249Y25894D01*
X170272Y25929D01*
X170295Y25971D01*
X170318Y26021D01*
X170341Y26070D01*
X170357Y26124D01*
Y26128D01*
Y26136D01*
X170360Y26147D01*
X170364Y26167D01*
X170368Y26186D01*
X170372Y26217D01*
X170376Y26247D01*
X170380Y26286D01*
X170384Y26328D01*
X170387Y26374D01*
X170391Y26428D01*
X170395Y26485D01*
X170399Y26547D01*
Y26616D01*
X170403Y26689D01*
Y26766D01*
Y28113D01*
D02*
G37*
G36*
X177253D02*
X176769D01*
Y27668D01*
X177253D01*
Y28113D01*
D02*
G37*
G36*
X22137Y171260D02*
X21654D01*
Y169432D01*
X22137D01*
Y171260D01*
D02*
G37*
G36*
X143399Y109995D02*
X142654D01*
X142585Y109887D01*
X142523Y109788D01*
X142508Y109741D01*
X142493Y109711D01*
X142477Y109688D01*
Y109680D01*
X142439Y109557D01*
X142423Y109496D01*
X142416Y109450D01*
Y109404D01*
X142408Y109373D01*
Y109350D01*
Y109342D01*
Y109265D01*
X142416Y109204D01*
Y109150D01*
X142423Y109104D01*
Y109073D01*
X142431Y109050D01*
Y109035D01*
Y109027D01*
X142462Y108958D01*
X142493Y108904D01*
X142523Y108866D01*
X142531Y108851D01*
X142577Y108805D01*
X142623Y108774D01*
X142654Y108766D01*
X142662Y108758D01*
X142715Y108751D01*
X142777Y108743D01*
X142838D01*
X142900Y108751D01*
X142953Y108758D01*
X142999Y108774D01*
X143038Y108789D01*
X143069Y108805D01*
X143092Y108812D01*
X143099Y108828D01*
X143107D01*
X143176Y108904D01*
X143230Y108996D01*
X143245Y109027D01*
X143261Y109058D01*
X143268Y109081D01*
Y109089D01*
X143284Y109142D01*
X143299Y109212D01*
X143314Y109342D01*
X143330Y109404D01*
Y109450D01*
X143337Y109480D01*
Y109496D01*
X143353Y109596D01*
X143360Y109688D01*
X143376Y109772D01*
X143384Y109849D01*
X143391Y109911D01*
Y109957D01*
X143399Y109987D01*
Y109995D01*
D02*
G37*
G36*
X143975Y100479D02*
X143959D01*
Y98997D01*
X144090Y99013D01*
X144198Y99043D01*
X144290Y99082D01*
X144367Y99128D01*
X144428Y99166D01*
X144466Y99204D01*
X144489Y99228D01*
X144497Y99235D01*
X144559Y99320D01*
X144597Y99412D01*
X144628Y99496D01*
X144651Y99589D01*
X144666Y99658D01*
X144674Y99719D01*
Y99757D01*
Y99773D01*
X144666Y99896D01*
X144643Y100003D01*
X144612Y100095D01*
X144582Y100172D01*
X144551Y100226D01*
X144520Y100264D01*
X144497Y100287D01*
X144489Y100295D01*
X144413Y100349D01*
X144336Y100395D01*
X144244Y100426D01*
X144159Y100449D01*
X144082Y100464D01*
X144021Y100472D01*
X143975Y100479D01*
D02*
G37*
G36*
X143598Y89804D02*
X143376D01*
X143268Y89797D01*
X143184Y89789D01*
X143107Y89773D01*
X143046Y89766D01*
X143007Y89750D01*
X142976Y89743D01*
X142969D01*
X142838Y89697D01*
X142777Y89666D01*
X142731Y89643D01*
X142692Y89620D01*
X142662Y89597D01*
X142646Y89589D01*
X142639Y89582D01*
X142562Y89505D01*
X142508Y89420D01*
X142485Y89389D01*
X142470Y89359D01*
X142462Y89343D01*
Y89336D01*
X142439Y89236D01*
X142423Y89136D01*
X142416Y89098D01*
Y89067D01*
Y89052D01*
Y89044D01*
X142423Y88913D01*
X142431Y88860D01*
X142446Y88814D01*
X142454Y88767D01*
X142462Y88737D01*
X142470Y88721D01*
Y88714D01*
X142523Y88621D01*
X142577Y88545D01*
X142608Y88514D01*
X142623Y88491D01*
X142639Y88483D01*
X142646Y88476D01*
X142700Y88437D01*
X142754Y88406D01*
X142869Y88360D01*
X142915Y88345D01*
X142953Y88330D01*
X142984Y88322D01*
X142992D01*
X143161Y88291D01*
X143245Y88284D01*
X143322Y88276D01*
X143391Y88268D01*
X143606D01*
X143714Y88276D01*
X143806Y88291D01*
X143890Y88299D01*
X143952Y88314D01*
X143998Y88322D01*
X144029Y88330D01*
X144036D01*
X144113Y88353D01*
X144182Y88383D01*
X144236Y88406D01*
X144290Y88437D01*
X144320Y88453D01*
X144351Y88476D01*
X144367Y88483D01*
X144374Y88491D01*
X144420Y88537D01*
X144459Y88583D01*
X144512Y88660D01*
X144528Y88691D01*
X144543Y88714D01*
X144551Y88729D01*
Y88737D01*
X144582Y88836D01*
X144589Y88936D01*
X144597Y88975D01*
Y89006D01*
Y89029D01*
Y89036D01*
X144589Y89151D01*
X144574Y89244D01*
X144559Y89282D01*
X144551Y89313D01*
X144543Y89328D01*
Y89336D01*
X144489Y89436D01*
X144428Y89512D01*
X144405Y89543D01*
X144382Y89566D01*
X144367Y89574D01*
X144359Y89582D01*
X144305Y89620D01*
X144251Y89651D01*
X144136Y89704D01*
X144090Y89720D01*
X144052Y89735D01*
X144021Y89743D01*
X144013D01*
X143929Y89766D01*
X143844Y89781D01*
X143760Y89789D01*
X143675Y89797D01*
X143598Y89804D01*
D02*
G37*
G36*
X80338Y192913D02*
X79386D01*
Y190391D01*
X80388D01*
X80419Y190394D01*
X80488Y190398D01*
X80569Y190402D01*
X80646Y190410D01*
X80722Y190425D01*
X80791Y190440D01*
X80795D01*
X80803Y190444D01*
X80814Y190448D01*
X80830Y190452D01*
X80868Y190471D01*
X80922Y190494D01*
X80980Y190525D01*
X81041Y190567D01*
X81106Y190617D01*
X81168Y190675D01*
X81172D01*
X81175Y190682D01*
X81195Y190705D01*
X81221Y190740D01*
X81260Y190786D01*
X81298Y190848D01*
X81337Y190917D01*
X81375Y190993D01*
X81410Y191082D01*
Y191086D01*
X81414Y191093D01*
X81417Y191105D01*
X81421Y191124D01*
X81429Y191147D01*
X81437Y191178D01*
X81444Y191208D01*
X81452Y191247D01*
X81460Y191289D01*
X81467Y191331D01*
X81483Y191435D01*
X81490Y191550D01*
X81494Y191677D01*
Y191681D01*
Y191692D01*
Y191708D01*
Y191731D01*
X81490Y191758D01*
Y191788D01*
X81483Y191861D01*
X81475Y191946D01*
X81460Y192034D01*
X81440Y192126D01*
X81414Y192215D01*
Y192218D01*
X81410Y192226D01*
X81406Y192241D01*
X81398Y192261D01*
X81387Y192284D01*
X81375Y192311D01*
X81344Y192372D01*
X81306Y192445D01*
X81260Y192518D01*
X81206Y192591D01*
X81145Y192660D01*
X81137Y192664D01*
X81122Y192683D01*
X81091Y192706D01*
X81053Y192733D01*
X80999Y192768D01*
X80937Y192802D01*
X80868Y192833D01*
X80788Y192864D01*
X80780Y192867D01*
X80757Y192871D01*
X80722Y192879D01*
X80668Y192886D01*
X80607Y192898D01*
X80530Y192906D01*
X80438Y192910D01*
X80338Y192913D01*
D02*
G37*
G36*
X54903Y192241D02*
X53958D01*
Y191758D01*
X54903D01*
Y192241D01*
D02*
G37*
G36*
X58593Y192956D02*
X58570D01*
X58543Y192952D01*
X58509D01*
X58466Y192944D01*
X58416Y192936D01*
X58363Y192929D01*
X58301Y192913D01*
X58236Y192894D01*
X58171Y192871D01*
X58102Y192844D01*
X58032Y192810D01*
X57963Y192771D01*
X57894Y192725D01*
X57829Y192675D01*
X57767Y192614D01*
X57764Y192610D01*
X57752Y192598D01*
X57737Y192579D01*
X57718Y192552D01*
X57695Y192518D01*
X57664Y192476D01*
X57637Y192426D01*
X57606Y192368D01*
X57576Y192307D01*
X57549Y192234D01*
X57522Y192157D01*
X57495Y192072D01*
X57476Y191984D01*
X57460Y191888D01*
X57449Y191784D01*
X57445Y191677D01*
Y191669D01*
Y191650D01*
X57449Y191615D01*
Y191573D01*
X57456Y191519D01*
X57460Y191458D01*
X57472Y191393D01*
X57487Y191320D01*
X57503Y191239D01*
X57526Y191162D01*
X57549Y191078D01*
X57579Y190997D01*
X57618Y190917D01*
X57660Y190840D01*
X57710Y190767D01*
X57767Y190698D01*
X57771Y190694D01*
X57783Y190682D01*
X57802Y190667D01*
X57825Y190644D01*
X57860Y190617D01*
X57898Y190586D01*
X57944Y190556D01*
X57998Y190521D01*
X58056Y190490D01*
X58121Y190460D01*
X58190Y190429D01*
X58267Y190402D01*
X58347Y190379D01*
X58436Y190364D01*
X58528Y190352D01*
X58624Y190348D01*
X58670D01*
X58701Y190352D01*
X58739Y190356D01*
X58785Y190364D01*
X58835Y190371D01*
X58889Y190383D01*
X58950Y190398D01*
X59008Y190417D01*
X59073Y190437D01*
X59135Y190463D01*
X59196Y190498D01*
X59257Y190533D01*
X59315Y190575D01*
X59373Y190625D01*
X59376D01*
X59380Y190632D01*
X59399Y190656D01*
X59430Y190690D01*
X59469Y190744D01*
X59511Y190809D01*
X59557Y190886D01*
X59599Y190978D01*
X59634Y191086D01*
X59131Y191205D01*
Y191201D01*
X59127Y191197D01*
X59123Y191174D01*
X59108Y191139D01*
X59088Y191093D01*
X59065Y191043D01*
X59031Y190993D01*
X58992Y190944D01*
X58943Y190897D01*
X58935Y190893D01*
X58916Y190878D01*
X58889Y190859D01*
X58846Y190840D01*
X58797Y190817D01*
X58735Y190801D01*
X58670Y190786D01*
X58597Y190782D01*
X58570D01*
X58551Y190786D01*
X58528Y190790D01*
X58501Y190794D01*
X58436Y190809D01*
X58363Y190832D01*
X58286Y190867D01*
X58251Y190890D01*
X58213Y190917D01*
X58178Y190951D01*
X58144Y190986D01*
Y190989D01*
X58136Y190993D01*
X58128Y191009D01*
X58117Y191024D01*
X58105Y191047D01*
X58090Y191074D01*
X58075Y191105D01*
X58059Y191143D01*
X58040Y191185D01*
X58025Y191232D01*
X58009Y191285D01*
X57998Y191347D01*
X57986Y191408D01*
X57979Y191481D01*
X57975Y191558D01*
X57971Y191639D01*
Y191642D01*
Y191658D01*
Y191685D01*
X57975Y191715D01*
Y191758D01*
X57979Y191800D01*
X57986Y191850D01*
X57994Y191903D01*
X58013Y192015D01*
X58044Y192130D01*
X58063Y192184D01*
X58086Y192234D01*
X58109Y192280D01*
X58140Y192322D01*
X58144Y192326D01*
X58148Y192330D01*
X58171Y192353D01*
X58209Y192384D01*
X58259Y192422D01*
X58324Y192460D01*
X58401Y192491D01*
X58489Y192514D01*
X58535Y192518D01*
X58585Y192522D01*
X58605D01*
X58620Y192518D01*
X58658Y192514D01*
X58704Y192506D01*
X58762Y192491D01*
X58820Y192468D01*
X58877Y192437D01*
X58935Y192395D01*
X58943Y192387D01*
X58958Y192372D01*
X58985Y192337D01*
X59016Y192295D01*
X59050Y192237D01*
X59085Y192165D01*
X59119Y192084D01*
X59146Y191984D01*
X59641Y192138D01*
Y192141D01*
X59638Y192157D01*
X59630Y192176D01*
X59618Y192207D01*
X59607Y192241D01*
X59592Y192280D01*
X59572Y192326D01*
X59549Y192372D01*
X59499Y192472D01*
X59434Y192576D01*
X59353Y192672D01*
X59311Y192718D01*
X59261Y192756D01*
X59257Y192760D01*
X59250Y192764D01*
X59234Y192775D01*
X59215Y192787D01*
X59188Y192802D01*
X59158Y192817D01*
X59119Y192837D01*
X59077Y192856D01*
X59031Y192875D01*
X58981Y192894D01*
X58927Y192910D01*
X58870Y192925D01*
X58804Y192936D01*
X58739Y192948D01*
X58666Y192952D01*
X58593Y192956D01*
D02*
G37*
G36*
X61135D02*
X61112D01*
X61085Y192952D01*
X61051D01*
X61009Y192944D01*
X60958Y192936D01*
X60905Y192929D01*
X60843Y192913D01*
X60778Y192894D01*
X60713Y192871D01*
X60644Y192844D01*
X60575Y192810D01*
X60505Y192771D01*
X60436Y192725D01*
X60371Y192675D01*
X60310Y192614D01*
X60306Y192610D01*
X60294Y192598D01*
X60279Y192579D01*
X60260Y192552D01*
X60237Y192518D01*
X60206Y192476D01*
X60179Y192426D01*
X60148Y192368D01*
X60118Y192307D01*
X60091Y192234D01*
X60064Y192157D01*
X60037Y192072D01*
X60018Y191984D01*
X60002Y191888D01*
X59991Y191784D01*
X59987Y191677D01*
Y191669D01*
Y191650D01*
X59991Y191615D01*
Y191573D01*
X59999Y191519D01*
X60002Y191458D01*
X60014Y191393D01*
X60029Y191320D01*
X60045Y191239D01*
X60068Y191162D01*
X60091Y191078D01*
X60121Y190997D01*
X60160Y190917D01*
X60202Y190840D01*
X60252Y190767D01*
X60310Y190698D01*
X60313Y190694D01*
X60325Y190682D01*
X60344Y190667D01*
X60367Y190644D01*
X60402Y190617D01*
X60440Y190586D01*
X60486Y190556D01*
X60540Y190521D01*
X60598Y190490D01*
X60663Y190460D01*
X60732Y190429D01*
X60809Y190402D01*
X60889Y190379D01*
X60978Y190364D01*
X61070Y190352D01*
X61166Y190348D01*
X61212D01*
X61243Y190352D01*
X61281Y190356D01*
X61327Y190364D01*
X61377Y190371D01*
X61431Y190383D01*
X61492Y190398D01*
X61550Y190417D01*
X61615Y190437D01*
X61677Y190463D01*
X61738Y190498D01*
X61800Y190533D01*
X61857Y190575D01*
X61915Y190625D01*
X61918D01*
X61922Y190632D01*
X61942Y190656D01*
X61972Y190690D01*
X62011Y190744D01*
X62053Y190809D01*
X62099Y190886D01*
X62141Y190978D01*
X62176Y191086D01*
X61673Y191205D01*
Y191201D01*
X61669Y191197D01*
X61665Y191174D01*
X61650Y191139D01*
X61630Y191093D01*
X61607Y191043D01*
X61573Y190993D01*
X61535Y190944D01*
X61485Y190897D01*
X61477Y190893D01*
X61458Y190878D01*
X61431Y190859D01*
X61389Y190840D01*
X61339Y190817D01*
X61277Y190801D01*
X61212Y190786D01*
X61139Y190782D01*
X61112D01*
X61093Y190786D01*
X61070Y190790D01*
X61043Y190794D01*
X60978Y190809D01*
X60905Y190832D01*
X60828Y190867D01*
X60793Y190890D01*
X60755Y190917D01*
X60720Y190951D01*
X60686Y190986D01*
Y190989D01*
X60678Y190993D01*
X60671Y191009D01*
X60659Y191024D01*
X60647Y191047D01*
X60632Y191074D01*
X60617Y191105D01*
X60601Y191143D01*
X60582Y191185D01*
X60567Y191232D01*
X60552Y191285D01*
X60540Y191347D01*
X60528Y191408D01*
X60521Y191481D01*
X60517Y191558D01*
X60513Y191639D01*
Y191642D01*
Y191658D01*
Y191685D01*
X60517Y191715D01*
Y191758D01*
X60521Y191800D01*
X60528Y191850D01*
X60536Y191903D01*
X60555Y192015D01*
X60586Y192130D01*
X60605Y192184D01*
X60628Y192234D01*
X60651Y192280D01*
X60682Y192322D01*
X60686Y192326D01*
X60690Y192330D01*
X60713Y192353D01*
X60751Y192384D01*
X60801Y192422D01*
X60866Y192460D01*
X60943Y192491D01*
X61032Y192514D01*
X61078Y192518D01*
X61128Y192522D01*
X61147D01*
X61162Y192518D01*
X61200Y192514D01*
X61247Y192506D01*
X61304Y192491D01*
X61362Y192468D01*
X61419Y192437D01*
X61477Y192395D01*
X61485Y192387D01*
X61500Y192372D01*
X61527Y192337D01*
X61558Y192295D01*
X61592Y192237D01*
X61627Y192165D01*
X61661Y192084D01*
X61688Y191984D01*
X62183Y192138D01*
Y192141D01*
X62180Y192157D01*
X62172Y192176D01*
X62160Y192207D01*
X62149Y192241D01*
X62134Y192280D01*
X62114Y192326D01*
X62091Y192372D01*
X62041Y192472D01*
X61976Y192576D01*
X61896Y192672D01*
X61853Y192718D01*
X61803Y192756D01*
X61800Y192760D01*
X61792Y192764D01*
X61776Y192775D01*
X61757Y192787D01*
X61730Y192802D01*
X61700Y192817D01*
X61661Y192837D01*
X61619Y192856D01*
X61573Y192875D01*
X61523Y192894D01*
X61469Y192910D01*
X61412Y192925D01*
X61346Y192936D01*
X61281Y192948D01*
X61208Y192952D01*
X61135Y192956D01*
D02*
G37*
G36*
X95266Y192913D02*
X94716D01*
X93814Y190391D01*
X94363D01*
X95004Y192257D01*
X95619Y190391D01*
X96164D01*
X95266Y192913D01*
D02*
G37*
G36*
X97477Y192956D02*
X97454D01*
X97427Y192952D01*
X97393D01*
X97351Y192944D01*
X97301Y192936D01*
X97247Y192929D01*
X97186Y192913D01*
X97120Y192894D01*
X97055Y192871D01*
X96986Y192844D01*
X96917Y192810D01*
X96848Y192771D01*
X96779Y192725D01*
X96713Y192675D01*
X96652Y192614D01*
X96648Y192610D01*
X96636Y192598D01*
X96621Y192579D01*
X96602Y192552D01*
X96579Y192518D01*
X96548Y192476D01*
X96521Y192426D01*
X96491Y192368D01*
X96460Y192307D01*
X96433Y192234D01*
X96406Y192157D01*
X96379Y192072D01*
X96360Y191984D01*
X96345Y191888D01*
X96333Y191784D01*
X96329Y191677D01*
Y191669D01*
Y191650D01*
X96333Y191615D01*
Y191573D01*
X96341Y191519D01*
X96345Y191458D01*
X96356Y191393D01*
X96372Y191320D01*
X96387Y191239D01*
X96410Y191162D01*
X96433Y191078D01*
X96464Y190997D01*
X96502Y190917D01*
X96544Y190840D01*
X96594Y190767D01*
X96652Y190698D01*
X96656Y190694D01*
X96667Y190682D01*
X96686Y190667D01*
X96709Y190644D01*
X96744Y190617D01*
X96782Y190586D01*
X96828Y190556D01*
X96882Y190521D01*
X96940Y190490D01*
X97005Y190460D01*
X97074Y190429D01*
X97151Y190402D01*
X97232Y190379D01*
X97320Y190364D01*
X97412Y190352D01*
X97508Y190348D01*
X97554D01*
X97585Y190352D01*
X97623Y190356D01*
X97669Y190364D01*
X97719Y190371D01*
X97773Y190383D01*
X97834Y190398D01*
X97892Y190417D01*
X97957Y190437D01*
X98019Y190463D01*
X98080Y190498D01*
X98142Y190533D01*
X98199Y190575D01*
X98257Y190625D01*
X98261D01*
X98265Y190632D01*
X98284Y190656D01*
X98314Y190690D01*
X98353Y190744D01*
X98395Y190809D01*
X98441Y190886D01*
X98484Y190978D01*
X98518Y191086D01*
X98015Y191205D01*
Y191201D01*
X98011Y191197D01*
X98007Y191174D01*
X97992Y191139D01*
X97973Y191093D01*
X97950Y191043D01*
X97915Y190993D01*
X97877Y190944D01*
X97827Y190897D01*
X97819Y190893D01*
X97800Y190878D01*
X97773Y190859D01*
X97731Y190840D01*
X97681Y190817D01*
X97619Y190801D01*
X97554Y190786D01*
X97481Y190782D01*
X97454D01*
X97435Y190786D01*
X97412Y190790D01*
X97385Y190794D01*
X97320Y190809D01*
X97247Y190832D01*
X97170Y190867D01*
X97136Y190890D01*
X97097Y190917D01*
X97063Y190951D01*
X97028Y190986D01*
Y190989D01*
X97021Y190993D01*
X97013Y191009D01*
X97001Y191024D01*
X96990Y191047D01*
X96974Y191074D01*
X96959Y191105D01*
X96944Y191143D01*
X96925Y191185D01*
X96909Y191232D01*
X96894Y191285D01*
X96882Y191347D01*
X96871Y191408D01*
X96863Y191481D01*
X96859Y191558D01*
X96855Y191639D01*
Y191642D01*
Y191658D01*
Y191685D01*
X96859Y191715D01*
Y191758D01*
X96863Y191800D01*
X96871Y191850D01*
X96878Y191903D01*
X96898Y192015D01*
X96928Y192130D01*
X96947Y192184D01*
X96970Y192234D01*
X96994Y192280D01*
X97024Y192322D01*
X97028Y192326D01*
X97032Y192330D01*
X97055Y192353D01*
X97093Y192384D01*
X97143Y192422D01*
X97209Y192460D01*
X97285Y192491D01*
X97374Y192514D01*
X97420Y192518D01*
X97470Y192522D01*
X97489D01*
X97504Y192518D01*
X97543Y192514D01*
X97589Y192506D01*
X97646Y192491D01*
X97704Y192468D01*
X97762Y192437D01*
X97819Y192395D01*
X97827Y192387D01*
X97842Y192372D01*
X97869Y192337D01*
X97900Y192295D01*
X97934Y192237D01*
X97969Y192165D01*
X98004Y192084D01*
X98030Y191984D01*
X98526Y192138D01*
Y192141D01*
X98522Y192157D01*
X98514Y192176D01*
X98503Y192207D01*
X98491Y192241D01*
X98476Y192280D01*
X98457Y192326D01*
X98434Y192372D01*
X98384Y192472D01*
X98318Y192576D01*
X98238Y192672D01*
X98195Y192718D01*
X98146Y192756D01*
X98142Y192760D01*
X98134Y192764D01*
X98119Y192775D01*
X98099Y192787D01*
X98073Y192802D01*
X98042Y192817D01*
X98004Y192837D01*
X97961Y192856D01*
X97915Y192875D01*
X97865Y192894D01*
X97812Y192910D01*
X97754Y192925D01*
X97689Y192936D01*
X97623Y192948D01*
X97550Y192952D01*
X97477Y192956D01*
D02*
G37*
G36*
X100020D02*
X99997D01*
X99970Y192952D01*
X99935D01*
X99893Y192944D01*
X99843Y192936D01*
X99789Y192929D01*
X99728Y192913D01*
X99662Y192894D01*
X99597Y192871D01*
X99528Y192844D01*
X99459Y192810D01*
X99390Y192771D01*
X99321Y192725D01*
X99255Y192675D01*
X99194Y192614D01*
X99190Y192610D01*
X99178Y192598D01*
X99163Y192579D01*
X99144Y192552D01*
X99121Y192518D01*
X99090Y192476D01*
X99063Y192426D01*
X99033Y192368D01*
X99002Y192307D01*
X98975Y192234D01*
X98948Y192157D01*
X98921Y192072D01*
X98902Y191984D01*
X98887Y191888D01*
X98875Y191784D01*
X98871Y191677D01*
Y191669D01*
Y191650D01*
X98875Y191615D01*
Y191573D01*
X98883Y191519D01*
X98887Y191458D01*
X98898Y191393D01*
X98914Y191320D01*
X98929Y191239D01*
X98952Y191162D01*
X98975Y191078D01*
X99006Y190997D01*
X99044Y190917D01*
X99086Y190840D01*
X99136Y190767D01*
X99194Y190698D01*
X99198Y190694D01*
X99209Y190682D01*
X99228Y190667D01*
X99252Y190644D01*
X99286Y190617D01*
X99325Y190586D01*
X99370Y190556D01*
X99424Y190521D01*
X99482Y190490D01*
X99547Y190460D01*
X99616Y190429D01*
X99693Y190402D01*
X99774Y190379D01*
X99862Y190364D01*
X99954Y190352D01*
X100050Y190348D01*
X100096D01*
X100127Y190352D01*
X100165Y190356D01*
X100212Y190364D01*
X100261Y190371D01*
X100315Y190383D01*
X100377Y190398D01*
X100434Y190417D01*
X100499Y190437D01*
X100561Y190463D01*
X100622Y190498D01*
X100684Y190533D01*
X100741Y190575D01*
X100799Y190625D01*
X100803D01*
X100807Y190632D01*
X100826Y190656D01*
X100857Y190690D01*
X100895Y190744D01*
X100937Y190809D01*
X100983Y190886D01*
X101026Y190978D01*
X101060Y191086D01*
X100557Y191205D01*
Y191201D01*
X100553Y191197D01*
X100549Y191174D01*
X100534Y191139D01*
X100515Y191093D01*
X100492Y191043D01*
X100457Y190993D01*
X100419Y190944D01*
X100369Y190897D01*
X100361Y190893D01*
X100342Y190878D01*
X100315Y190859D01*
X100273Y190840D01*
X100223Y190817D01*
X100162Y190801D01*
X100096Y190786D01*
X100023Y190782D01*
X99997D01*
X99977Y190786D01*
X99954Y190790D01*
X99927Y190794D01*
X99862Y190809D01*
X99789Y190832D01*
X99712Y190867D01*
X99678Y190890D01*
X99639Y190917D01*
X99605Y190951D01*
X99570Y190986D01*
Y190989D01*
X99563Y190993D01*
X99555Y191009D01*
X99543Y191024D01*
X99532Y191047D01*
X99516Y191074D01*
X99501Y191105D01*
X99486Y191143D01*
X99467Y191185D01*
X99451Y191232D01*
X99436Y191285D01*
X99424Y191347D01*
X99413Y191408D01*
X99405Y191481D01*
X99401Y191558D01*
X99397Y191639D01*
Y191642D01*
Y191658D01*
Y191685D01*
X99401Y191715D01*
Y191758D01*
X99405Y191800D01*
X99413Y191850D01*
X99420Y191903D01*
X99440Y192015D01*
X99470Y192130D01*
X99490Y192184D01*
X99513Y192234D01*
X99536Y192280D01*
X99566Y192322D01*
X99570Y192326D01*
X99574Y192330D01*
X99597Y192353D01*
X99635Y192384D01*
X99685Y192422D01*
X99751Y192460D01*
X99827Y192491D01*
X99916Y192514D01*
X99962Y192518D01*
X100012Y192522D01*
X100031D01*
X100046Y192518D01*
X100085Y192514D01*
X100131Y192506D01*
X100189Y192491D01*
X100246Y192468D01*
X100304Y192437D01*
X100361Y192395D01*
X100369Y192387D01*
X100384Y192372D01*
X100411Y192337D01*
X100442Y192295D01*
X100476Y192237D01*
X100511Y192165D01*
X100546Y192084D01*
X100573Y191984D01*
X101068Y192138D01*
Y192141D01*
X101064Y192157D01*
X101056Y192176D01*
X101045Y192207D01*
X101033Y192241D01*
X101018Y192280D01*
X100999Y192326D01*
X100976Y192372D01*
X100926Y192472D01*
X100861Y192576D01*
X100780Y192672D01*
X100738Y192718D01*
X100688Y192756D01*
X100684Y192760D01*
X100676Y192764D01*
X100661Y192775D01*
X100642Y192787D01*
X100615Y192802D01*
X100584Y192817D01*
X100546Y192837D01*
X100503Y192856D01*
X100457Y192875D01*
X100407Y192894D01*
X100354Y192910D01*
X100296Y192925D01*
X100231Y192936D01*
X100165Y192948D01*
X100092Y192952D01*
X100020Y192956D01*
D02*
G37*
G36*
X75292Y192959D02*
X75254D01*
X75227Y192956D01*
X75193D01*
X75151Y192952D01*
X75108Y192944D01*
X75058Y192940D01*
X74951Y192917D01*
X74836Y192890D01*
X74717Y192848D01*
X74659Y192825D01*
X74601Y192794D01*
X74598Y192790D01*
X74590Y192787D01*
X74575Y192775D01*
X74555Y192764D01*
X74528Y192748D01*
X74502Y192725D01*
X74436Y192672D01*
X74367Y192606D01*
X74294Y192525D01*
X74225Y192429D01*
X74164Y192322D01*
Y192318D01*
X74156Y192307D01*
X74152Y192291D01*
X74141Y192268D01*
X74129Y192237D01*
X74117Y192203D01*
X74106Y192165D01*
X74091Y192122D01*
X74075Y192072D01*
X74064Y192019D01*
X74041Y191907D01*
X74025Y191781D01*
X74018Y191646D01*
Y191642D01*
Y191627D01*
Y191608D01*
X74022Y191581D01*
Y191546D01*
X74025Y191504D01*
X74033Y191462D01*
X74037Y191412D01*
X74056Y191304D01*
X74087Y191185D01*
X74125Y191066D01*
X74179Y190947D01*
X74183Y190944D01*
X74187Y190932D01*
X74198Y190917D01*
X74210Y190897D01*
X74229Y190870D01*
X74248Y190840D01*
X74302Y190775D01*
X74371Y190698D01*
X74452Y190617D01*
X74551Y190544D01*
X74663Y190475D01*
X74667D01*
X74674Y190471D01*
X74686Y190463D01*
X74705Y190456D01*
X74732Y190444D01*
X74759Y190437D01*
X74793Y190425D01*
X74828Y190410D01*
X74870Y190398D01*
X74916Y190387D01*
X74966Y190379D01*
X75020Y190367D01*
X75135Y190352D01*
X75266Y190348D01*
X75312D01*
X75342Y190352D01*
X75381Y190356D01*
X75427Y190360D01*
X75477Y190364D01*
X75534Y190371D01*
X75650Y190398D01*
X75773Y190433D01*
X75830Y190456D01*
X75888Y190483D01*
X75945Y190513D01*
X75995Y190548D01*
X75999Y190552D01*
X76007Y190556D01*
X76022Y190567D01*
X76038Y190583D01*
X76060Y190605D01*
X76084Y190629D01*
X76111Y190656D01*
X76137Y190690D01*
X76168Y190725D01*
X76195Y190767D01*
X76226Y190809D01*
X76253Y190859D01*
X76299Y190963D01*
X76322Y191024D01*
X76337Y191086D01*
X75830Y191182D01*
Y191178D01*
X75826Y191174D01*
X75819Y191151D01*
X75807Y191116D01*
X75784Y191074D01*
X75757Y191028D01*
X75723Y190982D01*
X75680Y190932D01*
X75630Y190890D01*
X75623Y190886D01*
X75604Y190874D01*
X75573Y190855D01*
X75531Y190836D01*
X75477Y190817D01*
X75415Y190797D01*
X75342Y190786D01*
X75266Y190782D01*
X75235D01*
X75212Y190786D01*
X75181Y190790D01*
X75151Y190794D01*
X75074Y190809D01*
X74989Y190836D01*
X74901Y190874D01*
X74859Y190897D01*
X74816Y190924D01*
X74774Y190959D01*
X74736Y190997D01*
X74732Y191001D01*
X74728Y191009D01*
X74717Y191020D01*
X74705Y191036D01*
X74690Y191059D01*
X74674Y191086D01*
X74659Y191116D01*
X74640Y191155D01*
X74620Y191197D01*
X74605Y191243D01*
X74590Y191297D01*
X74575Y191350D01*
X74563Y191412D01*
X74551Y191481D01*
X74548Y191550D01*
X74544Y191627D01*
Y191631D01*
Y191646D01*
Y191669D01*
X74548Y191700D01*
X74551Y191738D01*
X74555Y191781D01*
X74559Y191827D01*
X74567Y191880D01*
X74590Y191988D01*
X74628Y192103D01*
X74647Y192157D01*
X74674Y192207D01*
X74705Y192257D01*
X74740Y192303D01*
X74743Y192307D01*
X74747Y192311D01*
X74759Y192322D01*
X74774Y192337D01*
X74797Y192353D01*
X74820Y192372D01*
X74847Y192395D01*
X74882Y192414D01*
X74955Y192456D01*
X75043Y192491D01*
X75093Y192506D01*
X75147Y192514D01*
X75204Y192522D01*
X75262Y192525D01*
X75289D01*
X75319Y192522D01*
X75362Y192518D01*
X75408Y192510D01*
X75462Y192499D01*
X75519Y192483D01*
X75581Y192464D01*
X75588Y192460D01*
X75607Y192453D01*
X75638Y192441D01*
X75677Y192422D01*
X75719Y192399D01*
X75765Y192372D01*
X75811Y192345D01*
X75857Y192311D01*
Y191988D01*
X75277D01*
Y191562D01*
X76372D01*
Y192572D01*
X76364Y192579D01*
X76341Y192598D01*
X76306Y192625D01*
X76253Y192664D01*
X76187Y192706D01*
X76107Y192752D01*
X76014Y192798D01*
X75907Y192844D01*
X75903D01*
X75892Y192848D01*
X75876Y192856D01*
X75853Y192864D01*
X75826Y192871D01*
X75796Y192879D01*
X75757Y192890D01*
X75715Y192902D01*
X75623Y192921D01*
X75519Y192940D01*
X75408Y192956D01*
X75292Y192959D01*
D02*
G37*
G36*
X144942Y85296D02*
X144912D01*
X144774Y85288D01*
X144720Y85281D01*
X144666Y85273D01*
X144628Y85258D01*
X144597Y85250D01*
X144582Y85242D01*
X144574D01*
X144482Y85196D01*
X144405Y85135D01*
X144374Y85112D01*
X144351Y85089D01*
X144343Y85081D01*
X144336Y85073D01*
X144267Y84966D01*
X144213Y84851D01*
X144198Y84804D01*
X144190Y84766D01*
X144182Y84743D01*
Y84735D01*
X144175Y84659D01*
X144167Y84574D01*
X144159Y84490D01*
Y84405D01*
X144151Y84336D01*
Y84282D01*
Y84244D01*
Y84228D01*
Y83891D01*
X145542D01*
Y84090D01*
Y84198D01*
Y84290D01*
X145534Y84374D01*
Y84444D01*
Y84497D01*
X145526Y84536D01*
Y84559D01*
Y84566D01*
X145511Y84705D01*
X145495Y84766D01*
X145488Y84820D01*
X145473Y84866D01*
X145457Y84904D01*
X145449Y84927D01*
Y84935D01*
X145396Y85035D01*
X145326Y85119D01*
X145296Y85150D01*
X145273Y85173D01*
X145257Y85181D01*
X145250Y85189D01*
X145196Y85227D01*
X145142Y85250D01*
X145027Y85281D01*
X144981Y85288D01*
X144942Y85296D01*
D02*
G37*
G36*
X144221Y168841D02*
X143929D01*
X143790Y168833D01*
X143660Y168825D01*
X143537Y168810D01*
X143430Y168802D01*
X143330Y168787D01*
X143238Y168772D01*
X143161Y168756D01*
X143092Y168733D01*
X143030Y168718D01*
X142984Y168702D01*
X142938Y168695D01*
X142907Y168679D01*
X142884Y168672D01*
X142877Y168664D01*
X142869D01*
X142807Y168633D01*
X142746Y168595D01*
X142654Y168510D01*
X142593Y168418D01*
X142546Y168326D01*
X142523Y168242D01*
X142508Y168173D01*
X142500Y168126D01*
Y168119D01*
Y168111D01*
X142508Y168042D01*
X142516Y167981D01*
X142562Y167865D01*
X142615Y167765D01*
X142685Y167689D01*
X142754Y167635D01*
X142815Y167589D01*
X142854Y167566D01*
X142861Y167558D01*
X142869D01*
X142946Y167527D01*
X143030Y167504D01*
X143214Y167458D01*
X143414Y167428D01*
X143614Y167412D01*
X143706Y167404D01*
X143790Y167397D01*
X143867D01*
X143936Y167389D01*
X144228D01*
X144374Y167397D01*
X144505Y167404D01*
X144628Y167412D01*
X144743Y167428D01*
X144843Y167443D01*
X144927Y167458D01*
X145012Y167474D01*
X145081Y167481D01*
X145134Y167497D01*
X145188Y167512D01*
X145227Y167527D01*
X145257Y167535D01*
X145280Y167543D01*
X145288Y167551D01*
X145296D01*
X145357Y167581D01*
X145419Y167620D01*
X145511Y167712D01*
X145572Y167804D01*
X145618Y167896D01*
X145649Y167981D01*
X145657Y168050D01*
X145665Y168096D01*
Y168103D01*
Y168111D01*
X145657Y168180D01*
X145649Y168249D01*
X145611Y168365D01*
X145549Y168464D01*
X145480Y168541D01*
X145411Y168595D01*
X145357Y168641D01*
X145311Y168664D01*
X145303Y168672D01*
X145296D01*
X145227Y168702D01*
X145142Y168726D01*
X144958Y168772D01*
X144750Y168802D01*
X144551Y168818D01*
X144459Y168825D01*
X144374Y168833D01*
X144290D01*
X144221Y168841D01*
D02*
G37*
G36*
X78848Y192913D02*
X78338D01*
X77316Y191258D01*
Y192913D01*
X76844D01*
Y190391D01*
X77335D01*
X78376Y192084D01*
Y190391D01*
X78848D01*
Y192913D01*
D02*
G37*
G36*
X17088Y171260D02*
X16535D01*
X16320Y170688D01*
X15302D01*
X15095Y171260D01*
X14557D01*
X15537Y168737D01*
X16074D01*
X17088Y171260D01*
D02*
G37*
G36*
X30887Y192913D02*
X30504D01*
Y191021D01*
X30887D01*
Y192913D01*
D02*
G37*
G36*
X32488D02*
X32125D01*
Y192216D01*
Y192214D01*
Y192208D01*
Y192196D01*
Y192182D01*
Y192162D01*
Y192142D01*
X32122Y192098D01*
X32120Y192049D01*
X32114Y192003D01*
X32108Y191963D01*
X32105Y191946D01*
X32100Y191931D01*
Y191928D01*
X32097Y191920D01*
X32091Y191908D01*
X32082Y191894D01*
X32059Y191859D01*
X32025Y191828D01*
X32022Y191825D01*
X32016Y191822D01*
X32004Y191816D01*
X31990Y191807D01*
X31973Y191802D01*
X31950Y191796D01*
X31927Y191793D01*
X31901Y191790D01*
X31883D01*
X31866Y191793D01*
X31843Y191796D01*
X31817Y191802D01*
X31788Y191813D01*
X31760Y191825D01*
X31731Y191842D01*
X31728Y191845D01*
X31719Y191851D01*
X31708Y191862D01*
X31690Y191879D01*
X31676Y191900D01*
X31659Y191923D01*
X31642Y191949D01*
X31630Y191980D01*
Y191983D01*
X31627Y191998D01*
X31621Y192018D01*
X31618Y192049D01*
X31616Y192070D01*
X31613Y192093D01*
X31610Y192119D01*
X31607Y192147D01*
Y192179D01*
X31604Y192214D01*
Y192254D01*
Y192294D01*
Y192913D01*
X31241D01*
Y191542D01*
X31578D01*
Y191744D01*
X31581Y191741D01*
X31587Y191735D01*
X31596Y191724D01*
X31610Y191707D01*
X31627Y191689D01*
X31650Y191672D01*
X31673Y191649D01*
X31702Y191629D01*
X31734Y191609D01*
X31765Y191586D01*
X31803Y191568D01*
X31843Y191548D01*
X31886Y191534D01*
X31930Y191522D01*
X31978Y191517D01*
X32028Y191514D01*
X32048D01*
X32071Y191517D01*
X32100Y191519D01*
X32134Y191525D01*
X32171Y191531D01*
X32209Y191542D01*
X32246Y191557D01*
X32252Y191560D01*
X32264Y191566D01*
X32281Y191574D01*
X32301Y191586D01*
X32327Y191603D01*
X32350Y191623D01*
X32376Y191643D01*
X32396Y191669D01*
X32399Y191672D01*
X32405Y191681D01*
X32413Y191695D01*
X32425Y191712D01*
X32436Y191735D01*
X32448Y191761D01*
X32460Y191790D01*
X32468Y191822D01*
Y191825D01*
X32471Y191836D01*
X32474Y191856D01*
X32480Y191882D01*
X32482Y191917D01*
X32485Y191960D01*
X32488Y192009D01*
Y192064D01*
Y192913D01*
D02*
G37*
G36*
X151796Y104130D02*
Y102126D01*
X154701Y103121D01*
X151796Y104130D01*
D02*
G37*
G36*
X28750Y171260D02*
X28239D01*
X27218Y169605D01*
Y171260D01*
X26745D01*
Y168737D01*
X27237D01*
X28278Y170430D01*
Y168737D01*
X28750D01*
Y171260D01*
D02*
G37*
G36*
X152872Y167856D02*
X152738D01*
X152442Y167843D01*
X152186Y167816D01*
X151958Y167762D01*
X151756Y167721D01*
X151594Y167668D01*
X151473Y167614D01*
X151406Y167587D01*
X151379Y167574D01*
X151178Y167466D01*
X151003Y167332D01*
X150855Y167183D01*
X150734Y167049D01*
X150626Y166928D01*
X150559Y166820D01*
X150505Y166753D01*
X150492Y166740D01*
Y166726D01*
X150384Y166484D01*
X150344Y166363D01*
X150303Y166255D01*
X150276Y166175D01*
X150263Y166094D01*
X150250Y166054D01*
Y166040D01*
X150223Y165892D01*
X150209Y165717D01*
X150196Y165529D01*
Y165354D01*
X150182Y165180D01*
Y165045D01*
Y164991D01*
Y164964D01*
Y164937D01*
Y164924D01*
Y164399D01*
X155293D01*
Y164924D01*
Y165166D01*
X155280Y165368D01*
X155266Y165543D01*
Y165691D01*
X155253Y165798D01*
X155239Y165879D01*
X155226Y165933D01*
Y165946D01*
X155172Y166202D01*
X155132Y166309D01*
X155105Y166417D01*
X155065Y166498D01*
X155038Y166565D01*
X155024Y166605D01*
X155011Y166619D01*
X154876Y166847D01*
X154728Y167036D01*
X154580Y167197D01*
X154446Y167332D01*
X154311Y167439D01*
X154204Y167506D01*
X154137Y167547D01*
X154123Y167560D01*
X154110D01*
X153894Y167654D01*
X153652Y167735D01*
X153424Y167789D01*
X153208Y167816D01*
X153020Y167843D01*
X152872Y167856D01*
D02*
G37*
G36*
X152859Y139665D02*
X152482D01*
X152253Y139638D01*
X152052Y139611D01*
X151877Y139584D01*
X151729Y139557D01*
X151621Y139530D01*
X151554Y139517D01*
X151527Y139503D01*
X151339Y139436D01*
X151178Y139369D01*
X151030Y139288D01*
X150895Y139221D01*
X150801Y139154D01*
X150720Y139100D01*
X150666Y139060D01*
X150653Y139046D01*
X150532Y138938D01*
X150438Y138831D01*
X150344Y138723D01*
X150276Y138629D01*
X150223Y138535D01*
X150182Y138468D01*
X150169Y138414D01*
X150155Y138400D01*
X150101Y138266D01*
X150075Y138118D01*
X150048Y137984D01*
X150021Y137876D01*
Y137768D01*
X150007Y137688D01*
Y137634D01*
Y137620D01*
X150021Y137472D01*
X150034Y137325D01*
X150061Y137190D01*
X150088Y137069D01*
X150115Y136975D01*
X150128Y136894D01*
X150155Y136840D01*
Y136827D01*
X150223Y136692D01*
X150290Y136571D01*
X150371Y136464D01*
X150451Y136370D01*
X150532Y136289D01*
X150586Y136235D01*
X150626Y136195D01*
X150640Y136181D01*
X150774Y136087D01*
X150909Y135993D01*
X151043Y135926D01*
X151178Y135859D01*
X151299Y135805D01*
X151393Y135764D01*
X151447Y135751D01*
X151473Y135737D01*
X151675Y135684D01*
X151890Y135643D01*
X152106Y135616D01*
X152294Y135603D01*
X152469Y135590D01*
X152603Y135576D01*
X152724D01*
X152993Y135590D01*
X153235Y135603D01*
X153451Y135630D01*
X153626Y135657D01*
X153787Y135684D01*
X153894Y135711D01*
X153962Y135737D01*
X153989D01*
X154190Y135805D01*
X154352Y135885D01*
X154500Y135966D01*
X154621Y136033D01*
X154728Y136101D01*
X154796Y136154D01*
X154836Y136181D01*
X154849Y136195D01*
X154957Y136302D01*
X155065Y136423D01*
X155145Y136531D01*
X155213Y136639D01*
X155253Y136719D01*
X155293Y136786D01*
X155320Y136840D01*
Y136854D01*
X155374Y136988D01*
X155401Y137123D01*
X155428Y137257D01*
X155455Y137378D01*
Y137472D01*
X155468Y137553D01*
Y137607D01*
Y137620D01*
Y137768D01*
X155441Y137903D01*
X155414Y138024D01*
X155387Y138145D01*
X155360Y138239D01*
X155334Y138306D01*
X155320Y138360D01*
X155307Y138374D01*
X155239Y138508D01*
X155172Y138643D01*
X155092Y138750D01*
X155011Y138844D01*
X154944Y138925D01*
X154890Y138979D01*
X154849Y139019D01*
X154836Y139033D01*
X154701Y139140D01*
X154567Y139221D01*
X154432Y139302D01*
X154298Y139369D01*
X154177Y139423D01*
X154083Y139463D01*
X154016Y139477D01*
X153989Y139490D01*
X153787Y139544D01*
X153572Y139598D01*
X153370Y139625D01*
X153168Y139638D01*
X152993Y139651D01*
X152859Y139665D01*
D02*
G37*
G36*
X9963Y192948D02*
X9935D01*
X9915Y192945D01*
X9889D01*
X9857Y192942D01*
X9825Y192936D01*
X9788Y192933D01*
X9707Y192916D01*
X9621Y192896D01*
X9532Y192864D01*
X9488Y192847D01*
X9445Y192824D01*
X9442Y192821D01*
X9437Y192818D01*
X9425Y192810D01*
X9411Y192801D01*
X9390Y192790D01*
X9370Y192772D01*
X9321Y192732D01*
X9269Y192683D01*
X9215Y192622D01*
X9163Y192551D01*
X9117Y192470D01*
Y192467D01*
X9111Y192458D01*
X9108Y192447D01*
X9100Y192429D01*
X9091Y192406D01*
X9082Y192381D01*
X9074Y192352D01*
X9062Y192320D01*
X9051Y192283D01*
X9042Y192242D01*
X9025Y192159D01*
X9013Y192064D01*
X9007Y191963D01*
Y191960D01*
Y191949D01*
Y191934D01*
X9010Y191914D01*
Y191888D01*
X9013Y191856D01*
X9019Y191825D01*
X9022Y191787D01*
X9036Y191707D01*
X9059Y191617D01*
X9088Y191528D01*
X9128Y191439D01*
X9131Y191436D01*
X9134Y191427D01*
X9143Y191416D01*
X9151Y191401D01*
X9166Y191381D01*
X9180Y191358D01*
X9221Y191309D01*
X9272Y191252D01*
X9333Y191191D01*
X9408Y191136D01*
X9491Y191085D01*
X9494D01*
X9500Y191082D01*
X9509Y191076D01*
X9523Y191070D01*
X9543Y191062D01*
X9563Y191056D01*
X9589Y191047D01*
X9615Y191036D01*
X9647Y191027D01*
X9681Y191018D01*
X9719Y191013D01*
X9759Y191004D01*
X9845Y190992D01*
X9943Y190990D01*
X9978D01*
X10001Y190992D01*
X10030Y190995D01*
X10064Y190998D01*
X10102Y191001D01*
X10145Y191007D01*
X10231Y191027D01*
X10324Y191053D01*
X10367Y191070D01*
X10410Y191090D01*
X10453Y191113D01*
X10491Y191139D01*
X10493Y191142D01*
X10499Y191145D01*
X10511Y191154D01*
X10522Y191165D01*
X10539Y191182D01*
X10557Y191200D01*
X10577Y191220D01*
X10597Y191246D01*
X10620Y191272D01*
X10640Y191304D01*
X10663Y191335D01*
X10684Y191373D01*
X10718Y191450D01*
X10735Y191496D01*
X10747Y191542D01*
X10367Y191614D01*
Y191612D01*
X10364Y191609D01*
X10358Y191592D01*
X10350Y191566D01*
X10332Y191534D01*
X10312Y191499D01*
X10286Y191465D01*
X10254Y191427D01*
X10217Y191396D01*
X10211Y191393D01*
X10197Y191384D01*
X10174Y191370D01*
X10142Y191355D01*
X10102Y191341D01*
X10056Y191326D01*
X10001Y191318D01*
X9943Y191315D01*
X9920D01*
X9903Y191318D01*
X9880Y191321D01*
X9857Y191324D01*
X9799Y191335D01*
X9736Y191355D01*
X9670Y191384D01*
X9638Y191401D01*
X9606Y191422D01*
X9575Y191447D01*
X9546Y191476D01*
X9543Y191479D01*
X9540Y191485D01*
X9532Y191494D01*
X9523Y191505D01*
X9511Y191522D01*
X9500Y191542D01*
X9488Y191566D01*
X9474Y191594D01*
X9460Y191626D01*
X9448Y191661D01*
X9437Y191701D01*
X9425Y191741D01*
X9416Y191787D01*
X9408Y191839D01*
X9405Y191891D01*
X9402Y191949D01*
Y191952D01*
Y191963D01*
Y191980D01*
X9405Y192003D01*
X9408Y192032D01*
X9411Y192064D01*
X9414Y192098D01*
X9419Y192139D01*
X9437Y192219D01*
X9465Y192306D01*
X9480Y192346D01*
X9500Y192384D01*
X9523Y192421D01*
X9549Y192455D01*
X9552Y192458D01*
X9555Y192461D01*
X9563Y192470D01*
X9575Y192481D01*
X9592Y192493D01*
X9609Y192507D01*
X9629Y192525D01*
X9655Y192539D01*
X9710Y192571D01*
X9776Y192597D01*
X9814Y192608D01*
X9854Y192614D01*
X9897Y192620D01*
X9940Y192622D01*
X9961D01*
X9984Y192620D01*
X10015Y192617D01*
X10050Y192611D01*
X10090Y192602D01*
X10133Y192591D01*
X10180Y192576D01*
X10185Y192574D01*
X10200Y192568D01*
X10223Y192559D01*
X10252Y192545D01*
X10283Y192527D01*
X10318Y192507D01*
X10352Y192487D01*
X10387Y192461D01*
Y192219D01*
X9952D01*
Y191900D01*
X10773D01*
Y192657D01*
X10767Y192663D01*
X10750Y192677D01*
X10724Y192697D01*
X10684Y192726D01*
X10635Y192758D01*
X10574Y192792D01*
X10505Y192827D01*
X10424Y192862D01*
X10422D01*
X10413Y192864D01*
X10401Y192870D01*
X10384Y192876D01*
X10364Y192882D01*
X10341Y192887D01*
X10312Y192896D01*
X10280Y192905D01*
X10211Y192919D01*
X10133Y192933D01*
X10050Y192945D01*
X9963Y192948D01*
D02*
G37*
G36*
X56381Y192913D02*
X55832D01*
X54930Y190391D01*
X55479D01*
X56120Y192257D01*
X56735Y190391D01*
X57280D01*
X56381Y192913D01*
D02*
G37*
G36*
X143614Y121546D02*
X143529D01*
X143345Y121538D01*
X143184Y121515D01*
X143046Y121476D01*
X142938Y121438D01*
X142846Y121392D01*
X142784Y121361D01*
X142754Y121331D01*
X142738Y121323D01*
X142654Y121231D01*
X142585Y121123D01*
X142539Y121008D01*
X142508Y120900D01*
X142493Y120801D01*
X142485Y120724D01*
X142477Y120693D01*
Y120670D01*
Y120655D01*
Y120647D01*
Y120555D01*
X142485Y120470D01*
Y120432D01*
Y120409D01*
Y120394D01*
Y120386D01*
X142500Y120294D01*
X142523Y120217D01*
X142531Y120186D01*
X142539Y120163D01*
X142546Y120156D01*
Y120148D01*
X144320D01*
X144382Y120263D01*
X144428Y120371D01*
X144443Y120409D01*
X144451Y120440D01*
X144459Y120463D01*
Y120470D01*
X144489Y120593D01*
X144497Y120647D01*
X144505Y120701D01*
X144512Y120739D01*
Y120770D01*
Y120793D01*
Y120801D01*
X144505Y120939D01*
X144474Y121054D01*
X144436Y121146D01*
X144397Y121223D01*
X144351Y121284D01*
X144313Y121331D01*
X144282Y121354D01*
X144274Y121361D01*
X144175Y121423D01*
X144059Y121469D01*
X143936Y121500D01*
X143814Y121523D01*
X143706Y121538D01*
X143614Y121546D01*
D02*
G37*
G36*
X12630Y192913D02*
X12247D01*
X11481Y191672D01*
Y192913D01*
X11127D01*
Y191021D01*
X11496D01*
X12276Y192291D01*
Y191021D01*
X12630D01*
Y192913D01*
D02*
G37*
G36*
X152872Y88259D02*
X152738D01*
X152442Y88245D01*
X152186Y88219D01*
X151958Y88165D01*
X151756Y88124D01*
X151594Y88071D01*
X151473Y88017D01*
X151406Y87990D01*
X151379Y87976D01*
X151178Y87869D01*
X151003Y87734D01*
X150855Y87586D01*
X150734Y87452D01*
X150626Y87331D01*
X150559Y87223D01*
X150505Y87156D01*
X150492Y87143D01*
Y87129D01*
X150384Y86887D01*
X150344Y86766D01*
X150303Y86658D01*
X150276Y86578D01*
X150263Y86497D01*
X150250Y86457D01*
Y86443D01*
X150223Y86295D01*
X150209Y86120D01*
X150196Y85932D01*
Y85757D01*
X150182Y85582D01*
Y85448D01*
Y85394D01*
Y85367D01*
Y85340D01*
Y85327D01*
Y84802D01*
X155293D01*
Y85327D01*
Y85569D01*
X155280Y85771D01*
X155266Y85945D01*
Y86093D01*
X155253Y86201D01*
X155239Y86282D01*
X155226Y86336D01*
Y86349D01*
X155172Y86605D01*
X155132Y86712D01*
X155105Y86820D01*
X155065Y86901D01*
X155038Y86968D01*
X155024Y87008D01*
X155011Y87021D01*
X154876Y87250D01*
X154728Y87438D01*
X154580Y87600D01*
X154446Y87734D01*
X154311Y87842D01*
X154204Y87909D01*
X154137Y87950D01*
X154123Y87963D01*
X154110D01*
X153894Y88057D01*
X153652Y88138D01*
X153424Y88192D01*
X153208Y88219D01*
X153020Y88245D01*
X152872Y88259D01*
D02*
G37*
G36*
X13748Y192913D02*
X13034D01*
Y191021D01*
X13785D01*
X13808Y191024D01*
X13860Y191027D01*
X13921Y191030D01*
X13978Y191036D01*
X14036Y191047D01*
X14088Y191059D01*
X14091D01*
X14096Y191062D01*
X14105Y191064D01*
X14117Y191067D01*
X14145Y191082D01*
X14186Y191099D01*
X14229Y191122D01*
X14275Y191154D01*
X14324Y191191D01*
X14370Y191234D01*
X14373D01*
X14376Y191240D01*
X14390Y191257D01*
X14410Y191283D01*
X14439Y191318D01*
X14468Y191364D01*
X14497Y191416D01*
X14525Y191473D01*
X14551Y191540D01*
Y191542D01*
X14554Y191548D01*
X14557Y191557D01*
X14560Y191571D01*
X14566Y191589D01*
X14571Y191612D01*
X14577Y191635D01*
X14583Y191664D01*
X14589Y191695D01*
X14595Y191727D01*
X14606Y191805D01*
X14612Y191891D01*
X14615Y191986D01*
Y191989D01*
Y191998D01*
Y192009D01*
Y192026D01*
X14612Y192046D01*
Y192070D01*
X14606Y192124D01*
X14600Y192188D01*
X14589Y192254D01*
X14574Y192323D01*
X14554Y192389D01*
Y192392D01*
X14551Y192398D01*
X14548Y192409D01*
X14543Y192424D01*
X14534Y192441D01*
X14525Y192461D01*
X14502Y192507D01*
X14474Y192562D01*
X14439Y192617D01*
X14399Y192672D01*
X14353Y192723D01*
X14347Y192726D01*
X14335Y192741D01*
X14312Y192758D01*
X14284Y192778D01*
X14243Y192804D01*
X14197Y192830D01*
X14145Y192853D01*
X14085Y192876D01*
X14079Y192879D01*
X14062Y192882D01*
X14036Y192887D01*
X13996Y192893D01*
X13950Y192902D01*
X13892Y192908D01*
X13823Y192911D01*
X13748Y192913D01*
D02*
G37*
G36*
X143975Y135255D02*
X143959D01*
Y133772D01*
X144090Y133788D01*
X144198Y133818D01*
X144290Y133857D01*
X144367Y133903D01*
X144428Y133941D01*
X144466Y133980D01*
X144489Y134003D01*
X144497Y134010D01*
X144559Y134095D01*
X144597Y134187D01*
X144628Y134271D01*
X144651Y134364D01*
X144666Y134433D01*
X144674Y134494D01*
Y134532D01*
Y134548D01*
X144666Y134671D01*
X144643Y134778D01*
X144612Y134871D01*
X144582Y134947D01*
X144551Y135001D01*
X144520Y135039D01*
X144497Y135063D01*
X144489Y135070D01*
X144413Y135124D01*
X144336Y135170D01*
X144244Y135201D01*
X144159Y135224D01*
X144082Y135239D01*
X144021Y135247D01*
X143975Y135255D01*
D02*
G37*
%LPD*%
G36*
X166678Y5533D02*
X166698Y5530D01*
X166721Y5527D01*
X166773Y5515D01*
X166833Y5495D01*
X166865Y5484D01*
X166897Y5466D01*
X166928Y5446D01*
X166960Y5426D01*
X166989Y5400D01*
X167017Y5371D01*
X167020Y5368D01*
X167023Y5363D01*
X167029Y5354D01*
X167041Y5342D01*
X167049Y5325D01*
X167061Y5302D01*
X167075Y5279D01*
X167087Y5250D01*
X167101Y5219D01*
X167113Y5181D01*
X167127Y5141D01*
X167136Y5098D01*
X167144Y5049D01*
X167153Y4997D01*
X167156Y4942D01*
X167159Y4882D01*
Y4879D01*
Y4867D01*
Y4850D01*
X167156Y4830D01*
X167153Y4801D01*
X167150Y4772D01*
X167147Y4738D01*
X167141Y4700D01*
X167124Y4620D01*
X167095Y4539D01*
X167081Y4499D01*
X167061Y4461D01*
X167038Y4424D01*
X167012Y4392D01*
X167009Y4389D01*
X167006Y4386D01*
X166997Y4378D01*
X166986Y4366D01*
X166972Y4355D01*
X166954Y4340D01*
X166911Y4311D01*
X166856Y4280D01*
X166793Y4254D01*
X166755Y4242D01*
X166718Y4234D01*
X166678Y4231D01*
X166637Y4228D01*
X166614D01*
X166600Y4231D01*
X166580Y4234D01*
X166557Y4236D01*
X166505Y4248D01*
X166447Y4268D01*
X166416Y4283D01*
X166384Y4297D01*
X166352Y4317D01*
X166321Y4337D01*
X166292Y4363D01*
X166263Y4392D01*
X166260Y4395D01*
X166257Y4401D01*
X166249Y4409D01*
X166240Y4424D01*
X166228Y4441D01*
X166217Y4461D01*
X166202Y4487D01*
X166188Y4516D01*
X166177Y4548D01*
X166162Y4585D01*
X166151Y4625D01*
X166139Y4671D01*
X166130Y4718D01*
X166122Y4772D01*
X166119Y4827D01*
X166116Y4887D01*
Y4890D01*
Y4902D01*
Y4919D01*
X166119Y4942D01*
Y4968D01*
X166125Y5000D01*
X166128Y5034D01*
X166133Y5072D01*
X166151Y5150D01*
X166177Y5230D01*
X166194Y5271D01*
X166211Y5308D01*
X166234Y5342D01*
X166260Y5374D01*
X166263Y5377D01*
X166266Y5380D01*
X166274Y5389D01*
X166286Y5400D01*
X166300Y5412D01*
X166318Y5426D01*
X166338Y5440D01*
X166361Y5455D01*
X166413Y5484D01*
X166479Y5509D01*
X166554Y5530D01*
X166594Y5533D01*
X166637Y5535D01*
X166660D01*
X166678Y5533D01*
D02*
G37*
G36*
X13788Y192591D02*
X13823D01*
X13863Y192585D01*
X13898Y192582D01*
X13926Y192576D01*
X13929D01*
X13944Y192571D01*
X13961Y192565D01*
X13981Y192559D01*
X14033Y192533D01*
X14059Y192519D01*
X14082Y192499D01*
X14085Y192496D01*
X14094Y192487D01*
X14102Y192476D01*
X14117Y192455D01*
X14134Y192429D01*
X14148Y192398D01*
X14165Y192360D01*
X14180Y192317D01*
Y192314D01*
X14183Y192312D01*
Y192303D01*
X14186Y192294D01*
X14191Y192265D01*
X14200Y192225D01*
X14209Y192176D01*
X14214Y192116D01*
X14217Y192046D01*
X14220Y191969D01*
Y191966D01*
Y191960D01*
Y191949D01*
Y191931D01*
Y191914D01*
X14217Y191894D01*
X14214Y191845D01*
X14211Y191790D01*
X14203Y191735D01*
X14194Y191681D01*
X14180Y191635D01*
X14177Y191629D01*
X14174Y191614D01*
X14165Y191594D01*
X14154Y191568D01*
X14137Y191537D01*
X14119Y191508D01*
X14099Y191476D01*
X14073Y191450D01*
X14070Y191447D01*
X14062Y191439D01*
X14044Y191427D01*
X14024Y191413D01*
X14001Y191399D01*
X13970Y191384D01*
X13935Y191373D01*
X13898Y191361D01*
X13895D01*
X13880Y191358D01*
X13860Y191355D01*
X13828Y191349D01*
X13808D01*
X13785Y191347D01*
X13762D01*
X13734Y191344D01*
X13702D01*
X13667Y191341D01*
X13417D01*
Y192594D01*
X13754D01*
X13788Y192591D01*
D02*
G37*
G36*
X23489Y170907D02*
X23524Y170903D01*
X23570Y170891D01*
X23620Y170876D01*
X23670Y170849D01*
X23723Y170814D01*
X23773Y170768D01*
X23777Y170761D01*
X23792Y170741D01*
X23816Y170707D01*
X23839Y170661D01*
X23862Y170603D01*
X23885Y170530D01*
X23900Y170446D01*
X23904Y170350D01*
Y170346D01*
Y170338D01*
Y170323D01*
Y170304D01*
X23900Y170284D01*
X23896Y170258D01*
X23889Y170196D01*
X23873Y170131D01*
X23850Y170062D01*
X23816Y169997D01*
X23773Y169935D01*
X23769Y169927D01*
X23750Y169912D01*
X23723Y169889D01*
X23685Y169862D01*
X23643Y169835D01*
X23589Y169812D01*
X23528Y169797D01*
X23458Y169789D01*
X23451D01*
X23428Y169793D01*
X23393Y169797D01*
X23347Y169808D01*
X23297Y169824D01*
X23247Y169851D01*
X23193Y169885D01*
X23144Y169935D01*
X23140Y169943D01*
X23124Y169962D01*
X23105Y169997D01*
X23082Y170043D01*
X23055Y170100D01*
X23036Y170173D01*
X23021Y170254D01*
X23017Y170350D01*
Y170354D01*
Y170361D01*
Y170377D01*
X23021Y170396D01*
Y170419D01*
X23024Y170442D01*
X23032Y170503D01*
X23047Y170572D01*
X23070Y170642D01*
X23101Y170707D01*
X23144Y170768D01*
X23151Y170776D01*
X23167Y170791D01*
X23193Y170814D01*
X23232Y170837D01*
X23278Y170864D01*
X23332Y170887D01*
X23389Y170903D01*
X23458Y170910D01*
X23466D01*
X23489Y170907D01*
D02*
G37*
G36*
X20321Y170922D02*
X20352Y170918D01*
X20390Y170907D01*
X20436Y170891D01*
X20482Y170864D01*
X20528Y170830D01*
X20574Y170784D01*
X20578Y170776D01*
X20594Y170757D01*
X20613Y170722D01*
X20636Y170676D01*
X20655Y170619D01*
X20674Y170546D01*
X20690Y170457D01*
X20694Y170357D01*
Y170354D01*
Y170342D01*
Y170327D01*
Y170308D01*
X20690Y170281D01*
X20686Y170250D01*
X20678Y170181D01*
X20667Y170108D01*
X20644Y170035D01*
X20617Y169962D01*
X20598Y169931D01*
X20578Y169904D01*
X20574Y169897D01*
X20559Y169881D01*
X20532Y169858D01*
X20502Y169831D01*
X20459Y169808D01*
X20409Y169785D01*
X20352Y169770D01*
X20290Y169762D01*
X20283D01*
X20264Y169766D01*
X20233Y169770D01*
X20190Y169778D01*
X20148Y169797D01*
X20098Y169820D01*
X20052Y169854D01*
X20006Y169901D01*
X20002Y169908D01*
X19987Y169927D01*
X19972Y169958D01*
X19949Y170004D01*
X19929Y170062D01*
X19910Y170131D01*
X19895Y170215D01*
X19891Y170311D01*
Y170315D01*
Y170323D01*
Y170338D01*
Y170361D01*
X19895Y170384D01*
Y170411D01*
X19903Y170476D01*
X19910Y170546D01*
X19922Y170615D01*
X19941Y170680D01*
X19956Y170711D01*
X19968Y170738D01*
Y170741D01*
X19972Y170745D01*
X19991Y170768D01*
X20018Y170795D01*
X20052Y170830D01*
X20098Y170864D01*
X20156Y170895D01*
X20221Y170918D01*
X20256Y170922D01*
X20294Y170926D01*
X20302D01*
X20321Y170922D01*
D02*
G37*
G36*
X15801Y169325D02*
X15460Y170261D01*
X16155D01*
X15801Y169325D01*
D02*
G37*
G36*
X183434Y4257D02*
X183097D01*
X183062Y4260D01*
X183028D01*
X182987Y4265D01*
X182953Y4268D01*
X182924Y4274D01*
X182921D01*
X182907Y4280D01*
X182889Y4285D01*
X182869Y4291D01*
X182817Y4317D01*
X182791Y4332D01*
X182768Y4352D01*
X182766Y4355D01*
X182757Y4363D01*
X182748Y4375D01*
X182734Y4395D01*
X182717Y4421D01*
X182702Y4453D01*
X182685Y4490D01*
X182671Y4533D01*
Y4536D01*
X182668Y4539D01*
Y4548D01*
X182665Y4556D01*
X182659Y4585D01*
X182650Y4625D01*
X182642Y4674D01*
X182636Y4735D01*
X182633Y4804D01*
X182630Y4882D01*
Y4885D01*
Y4890D01*
Y4902D01*
Y4919D01*
Y4936D01*
X182633Y4956D01*
X182636Y5006D01*
X182639Y5060D01*
X182648Y5115D01*
X182656Y5170D01*
X182671Y5216D01*
X182674Y5221D01*
X182676Y5236D01*
X182685Y5256D01*
X182696Y5282D01*
X182714Y5314D01*
X182731Y5342D01*
X182751Y5374D01*
X182777Y5400D01*
X182780Y5403D01*
X182789Y5412D01*
X182806Y5423D01*
X182826Y5438D01*
X182849Y5452D01*
X182881Y5466D01*
X182915Y5478D01*
X182953Y5489D01*
X182956D01*
X182970Y5492D01*
X182990Y5495D01*
X183022Y5501D01*
X183042D01*
X183065Y5504D01*
X183088D01*
X183117Y5507D01*
X183149D01*
X183183Y5509D01*
X183434D01*
Y4257D01*
D02*
G37*
G36*
X175479Y27057D02*
X175514Y27054D01*
X175560Y27042D01*
X175610Y27027D01*
X175660Y27000D01*
X175713Y26965D01*
X175763Y26915D01*
X175767Y26908D01*
X175783Y26888D01*
X175802Y26854D01*
X175825Y26808D01*
X175852Y26750D01*
X175871Y26677D01*
X175886Y26597D01*
X175890Y26501D01*
Y26497D01*
Y26489D01*
Y26474D01*
X175886Y26455D01*
Y26432D01*
X175882Y26408D01*
X175875Y26347D01*
X175859Y26278D01*
X175836Y26209D01*
X175805Y26144D01*
X175763Y26082D01*
X175756Y26074D01*
X175740Y26059D01*
X175713Y26036D01*
X175675Y26013D01*
X175629Y25986D01*
X175575Y25963D01*
X175518Y25948D01*
X175448Y25940D01*
X175441D01*
X175418Y25944D01*
X175383Y25948D01*
X175337Y25959D01*
X175287Y25975D01*
X175237Y26001D01*
X175183Y26036D01*
X175134Y26082D01*
X175130Y26090D01*
X175114Y26109D01*
X175091Y26144D01*
X175068Y26190D01*
X175045Y26247D01*
X175022Y26320D01*
X175007Y26405D01*
X175003Y26501D01*
Y26504D01*
Y26512D01*
Y26528D01*
Y26547D01*
X175007Y26566D01*
X175011Y26593D01*
X175018Y26654D01*
X175034Y26719D01*
X175057Y26789D01*
X175091Y26854D01*
X175134Y26915D01*
X175137Y26923D01*
X175157Y26938D01*
X175183Y26961D01*
X175222Y26988D01*
X175264Y27015D01*
X175318Y27038D01*
X175379Y27054D01*
X175448Y27061D01*
X175456D01*
X175479Y27057D01*
D02*
G37*
G36*
X178643Y27084D02*
X178674Y27081D01*
X178716Y27073D01*
X178759Y27054D01*
X178808Y27031D01*
X178855Y26996D01*
X178901Y26950D01*
X178904Y26942D01*
X178920Y26923D01*
X178935Y26892D01*
X178958Y26846D01*
X178977Y26789D01*
X178997Y26719D01*
X179012Y26635D01*
X179016Y26539D01*
Y26535D01*
Y26528D01*
Y26512D01*
Y26489D01*
X179012Y26466D01*
Y26439D01*
X179004Y26374D01*
X178997Y26305D01*
X178985Y26236D01*
X178966Y26170D01*
X178951Y26140D01*
X178939Y26113D01*
Y26109D01*
X178935Y26105D01*
X178916Y26082D01*
X178889Y26055D01*
X178855Y26021D01*
X178808Y25986D01*
X178751Y25955D01*
X178685Y25932D01*
X178651Y25929D01*
X178613Y25925D01*
X178605D01*
X178586Y25929D01*
X178555Y25932D01*
X178517Y25944D01*
X178471Y25959D01*
X178424Y25986D01*
X178378Y26021D01*
X178332Y26067D01*
X178328Y26074D01*
X178313Y26094D01*
X178294Y26128D01*
X178271Y26174D01*
X178252Y26232D01*
X178232Y26305D01*
X178217Y26393D01*
X178213Y26493D01*
Y26497D01*
Y26508D01*
Y26524D01*
Y26543D01*
X178217Y26570D01*
X178221Y26601D01*
X178229Y26670D01*
X178240Y26743D01*
X178263Y26816D01*
X178290Y26888D01*
X178309Y26919D01*
X178328Y26946D01*
X178332Y26954D01*
X178348Y26969D01*
X178375Y26992D01*
X178405Y27019D01*
X178447Y27042D01*
X178497Y27065D01*
X178555Y27081D01*
X178616Y27088D01*
X178624D01*
X178643Y27084D01*
D02*
G37*
G36*
X80392Y192483D02*
X80438D01*
X80492Y192476D01*
X80538Y192472D01*
X80576Y192464D01*
X80580D01*
X80599Y192456D01*
X80623Y192449D01*
X80649Y192441D01*
X80718Y192406D01*
X80753Y192387D01*
X80784Y192360D01*
X80788Y192357D01*
X80799Y192345D01*
X80811Y192330D01*
X80830Y192303D01*
X80853Y192268D01*
X80872Y192226D01*
X80895Y192176D01*
X80914Y192119D01*
Y192115D01*
X80918Y192111D01*
Y192099D01*
X80922Y192088D01*
X80930Y192049D01*
X80941Y191996D01*
X80953Y191930D01*
X80960Y191850D01*
X80964Y191758D01*
X80968Y191654D01*
Y191650D01*
Y191642D01*
Y191627D01*
Y191604D01*
Y191581D01*
X80964Y191554D01*
X80960Y191489D01*
X80957Y191416D01*
X80945Y191343D01*
X80933Y191270D01*
X80914Y191208D01*
X80910Y191201D01*
X80907Y191182D01*
X80895Y191155D01*
X80880Y191120D01*
X80857Y191078D01*
X80834Y191040D01*
X80807Y190997D01*
X80772Y190963D01*
X80768Y190959D01*
X80757Y190947D01*
X80734Y190932D01*
X80707Y190913D01*
X80676Y190893D01*
X80634Y190874D01*
X80588Y190859D01*
X80538Y190844D01*
X80534D01*
X80515Y190840D01*
X80488Y190836D01*
X80446Y190828D01*
X80419D01*
X80388Y190824D01*
X80357D01*
X80319Y190821D01*
X80277D01*
X80231Y190817D01*
X79897D01*
Y192487D01*
X80346D01*
X80392Y192483D01*
D02*
G37*
G36*
X183447Y26589D02*
X182752D01*
X183105Y27526D01*
X183447Y26589D01*
D02*
G37*
G36*
X172077Y27718D02*
X172104Y27714D01*
X172134Y27710D01*
X172204Y27695D01*
X172284Y27668D01*
X172327Y27653D01*
X172369Y27630D01*
X172411Y27603D01*
X172453Y27576D01*
X172492Y27541D01*
X172530Y27503D01*
X172534Y27499D01*
X172538Y27491D01*
X172545Y27480D01*
X172561Y27465D01*
X172572Y27441D01*
X172588Y27411D01*
X172607Y27380D01*
X172622Y27342D01*
X172641Y27299D01*
X172657Y27249D01*
X172676Y27196D01*
X172687Y27138D01*
X172699Y27073D01*
X172711Y27004D01*
X172714Y26931D01*
X172718Y26850D01*
Y26846D01*
Y26831D01*
Y26808D01*
X172714Y26781D01*
X172711Y26743D01*
X172707Y26704D01*
X172703Y26658D01*
X172695Y26608D01*
X172672Y26501D01*
X172634Y26393D01*
X172615Y26339D01*
X172588Y26289D01*
X172557Y26239D01*
X172522Y26197D01*
X172519Y26193D01*
X172515Y26190D01*
X172503Y26178D01*
X172488Y26163D01*
X172469Y26147D01*
X172446Y26128D01*
X172388Y26090D01*
X172315Y26048D01*
X172231Y26013D01*
X172181Y25998D01*
X172131Y25986D01*
X172077Y25982D01*
X172023Y25978D01*
X171992D01*
X171973Y25982D01*
X171946Y25986D01*
X171916Y25990D01*
X171846Y26005D01*
X171770Y26032D01*
X171728Y26051D01*
X171685Y26070D01*
X171643Y26097D01*
X171601Y26124D01*
X171562Y26159D01*
X171524Y26197D01*
X171520Y26201D01*
X171516Y26209D01*
X171505Y26220D01*
X171493Y26239D01*
X171478Y26263D01*
X171463Y26289D01*
X171443Y26324D01*
X171424Y26362D01*
X171409Y26405D01*
X171390Y26455D01*
X171374Y26508D01*
X171359Y26570D01*
X171347Y26631D01*
X171336Y26704D01*
X171332Y26777D01*
X171328Y26858D01*
Y26862D01*
Y26877D01*
Y26900D01*
X171332Y26931D01*
Y26965D01*
X171340Y27007D01*
X171344Y27054D01*
X171351Y27103D01*
X171374Y27207D01*
X171409Y27315D01*
X171432Y27369D01*
X171455Y27418D01*
X171485Y27465D01*
X171520Y27507D01*
X171524Y27511D01*
X171528Y27514D01*
X171539Y27526D01*
X171555Y27541D01*
X171574Y27557D01*
X171597Y27576D01*
X171624Y27595D01*
X171654Y27614D01*
X171724Y27653D01*
X171812Y27687D01*
X171912Y27714D01*
X171966Y27718D01*
X172023Y27722D01*
X172054D01*
X172077Y27718D01*
D02*
G37*
D61*
X143701Y175197D02*
Y196850D01*
X151575Y59055D02*
X196850D01*
X143701Y66929D02*
X151575Y59055D01*
X143701Y66929D02*
Y76772D01*
M02*
