%FSLAX25Y25*%
%MOIN*%
G70*
G01*
G75*
G04 Layer_Color=16711935*
%ADD10R,0.04528X0.05315*%
G04:AMPARAMS|DCode=11|XSize=35.43mil|YSize=27.56mil|CornerRadius=6.89mil|HoleSize=0mil|Usage=FLASHONLY|Rotation=90.000|XOffset=0mil|YOffset=0mil|HoleType=Round|Shape=RoundedRectangle|*
%AMROUNDEDRECTD11*
21,1,0.03543,0.01378,0,0,90.0*
21,1,0.02165,0.02756,0,0,90.0*
1,1,0.01378,0.00689,0.01083*
1,1,0.01378,0.00689,-0.01083*
1,1,0.01378,-0.00689,-0.01083*
1,1,0.01378,-0.00689,0.01083*
%
%ADD11ROUNDEDRECTD11*%
G04:AMPARAMS|DCode=12|XSize=23.62mil|YSize=27.56mil|CornerRadius=5.91mil|HoleSize=0mil|Usage=FLASHONLY|Rotation=90.000|XOffset=0mil|YOffset=0mil|HoleType=Round|Shape=RoundedRectangle|*
%AMROUNDEDRECTD12*
21,1,0.02362,0.01575,0,0,90.0*
21,1,0.01181,0.02756,0,0,90.0*
1,1,0.01181,0.00787,0.00591*
1,1,0.01181,0.00787,-0.00591*
1,1,0.01181,-0.00787,-0.00591*
1,1,0.01181,-0.00787,0.00591*
%
%ADD12ROUNDEDRECTD12*%
%ADD13R,0.05315X0.04528*%
%ADD14R,0.03740X0.02559*%
G04:AMPARAMS|DCode=15|XSize=25.59mil|YSize=37.4mil|CornerRadius=0mil|HoleSize=0mil|Usage=FLASHONLY|Rotation=45.000|XOffset=0mil|YOffset=0mil|HoleType=Round|Shape=Rectangle|*
%AMROTATEDRECTD15*
4,1,4,0.00418,-0.02227,-0.02227,0.00418,-0.00418,0.02227,0.02227,-0.00418,0.00418,-0.02227,0.0*
%
%ADD15ROTATEDRECTD15*%

%ADD16O,0.02362X0.05709*%
%ADD17R,0.05512X0.04528*%
%ADD18R,0.06496X0.13386*%
%ADD19R,0.13386X0.06496*%
%ADD20C,0.03000*%
%ADD21C,0.02000*%
%ADD22C,0.02500*%
%ADD23C,0.05000*%
%ADD24C,0.15748*%
%ADD25O,0.07874X0.11811*%
%ADD26C,0.05906*%
%ADD27R,0.05906X0.05906*%
%ADD28O,0.05906X0.09843*%
%ADD29O,0.09843X0.05906*%
%ADD30C,0.07874*%
%ADD31R,0.05906X0.05906*%
%ADD32C,0.19685*%
%ADD33C,0.04000*%
%ADD34C,0.06000*%
%ADD35C,0.01969*%
%ADD36C,0.00984*%
%ADD37C,0.01000*%
%ADD38C,0.02362*%
%ADD39C,0.00787*%
%ADD40R,0.05328X0.06115*%
G04:AMPARAMS|DCode=41|XSize=43.43mil|YSize=35.56mil|CornerRadius=10.89mil|HoleSize=0mil|Usage=FLASHONLY|Rotation=90.000|XOffset=0mil|YOffset=0mil|HoleType=Round|Shape=RoundedRectangle|*
%AMROUNDEDRECTD41*
21,1,0.04343,0.01378,0,0,90.0*
21,1,0.02165,0.03556,0,0,90.0*
1,1,0.02178,0.00689,0.01083*
1,1,0.02178,0.00689,-0.01083*
1,1,0.02178,-0.00689,-0.01083*
1,1,0.02178,-0.00689,0.01083*
%
%ADD41ROUNDEDRECTD41*%
G04:AMPARAMS|DCode=42|XSize=31.62mil|YSize=35.56mil|CornerRadius=9.91mil|HoleSize=0mil|Usage=FLASHONLY|Rotation=90.000|XOffset=0mil|YOffset=0mil|HoleType=Round|Shape=RoundedRectangle|*
%AMROUNDEDRECTD42*
21,1,0.03162,0.01575,0,0,90.0*
21,1,0.01181,0.03556,0,0,90.0*
1,1,0.01981,0.00787,0.00591*
1,1,0.01981,0.00787,-0.00591*
1,1,0.01981,-0.00787,-0.00591*
1,1,0.01981,-0.00787,0.00591*
%
%ADD42ROUNDEDRECTD42*%
%ADD43R,0.06115X0.05328*%
%ADD44R,0.04540X0.03359*%
G04:AMPARAMS|DCode=45|XSize=33.59mil|YSize=45.4mil|CornerRadius=0mil|HoleSize=0mil|Usage=FLASHONLY|Rotation=45.000|XOffset=0mil|YOffset=0mil|HoleType=Round|Shape=Rectangle|*
%AMROTATEDRECTD45*
4,1,4,0.00418,-0.02793,-0.02793,0.00418,-0.00418,0.02793,0.02793,-0.00418,0.00418,-0.02793,0.0*
%
%ADD45ROTATEDRECTD45*%

%ADD46O,0.03162X0.06509*%
%ADD47R,0.06312X0.05328*%
%ADD48R,0.07296X0.14186*%
%ADD49R,0.14186X0.07296*%
%ADD50C,0.16548*%
%ADD51O,0.08674X0.12611*%
%ADD52C,0.06706*%
%ADD53R,0.06706X0.06706*%
%ADD54O,0.06706X0.10642*%
%ADD55O,0.10642X0.06706*%
%ADD56C,0.08674*%
%ADD57R,0.06706X0.06706*%
%ADD58C,0.20485*%
%ADD59C,0.04800*%
%ADD60C,0.06800*%
D50*
X11811Y153543D02*
D03*
X185039Y43307D02*
D03*
X37402Y65945D02*
D03*
D51*
X31496Y181102D02*
D03*
X11811D02*
D03*
X77756Y181102D02*
D03*
X97441D02*
D03*
X58071D02*
D03*
X165354Y15748D02*
D03*
X185039D02*
D03*
D52*
X160512Y43307D02*
D03*
X130984Y187008D02*
D03*
X111221Y61929D02*
D03*
X134921Y85630D02*
D03*
X9843Y65866D02*
D03*
X99410Y61929D02*
D03*
X134921Y97441D02*
D03*
D53*
X150512Y43307D02*
D03*
X120984Y187008D02*
D03*
X124921Y85630D02*
D03*
Y97441D02*
D03*
D54*
X61024Y11811D02*
D03*
X70866D02*
D03*
X80709D02*
D03*
D55*
X185039Y116142D02*
D03*
Y125984D02*
D03*
Y135827D02*
D03*
X129921Y156496D02*
D03*
Y166339D02*
D03*
D56*
Y116142D02*
D03*
Y135827D02*
D03*
D57*
X111221Y71929D02*
D03*
X9843Y75866D02*
D03*
X99410Y71929D02*
D03*
D58*
X170276Y175984D02*
D03*
Y75984D02*
D03*
X20866Y26575D02*
D03*
X120866D02*
D03*
D59*
X70866Y143701D02*
D03*
X46260Y130905D02*
D03*
X54134D02*
D03*
X62008D02*
D03*
X93504Y150591D02*
D03*
X101378D02*
D03*
X46260Y87598D02*
D03*
X54134D02*
D03*
X62008D02*
D03*
X93504Y107283D02*
D03*
X101378D02*
D03*
X109252D02*
D03*
X93504Y115157D02*
D03*
X73819Y97441D02*
D03*
X81693D02*
D03*
X109252Y150591D02*
D03*
X121063Y66929D02*
D03*
X142717Y54134D02*
D03*
X62008Y115157D02*
D03*
X62008Y123031D02*
D03*
X113189Y83661D02*
D03*
X101378Y130905D02*
D03*
X93504D02*
D03*
Y123031D02*
D03*
X70866Y137795D02*
D03*
X84646Y143701D02*
D03*
D60*
X70866Y43307D02*
D03*
X164370Y147638D02*
D03*
M02*
