%FSLAX25Y25*%
%MOIN*%
G70*
G01*
G75*
G04 Layer_Physical_Order=1*
G04 Layer_Color=255*
%ADD10R,0.04528X0.05315*%
%ADD11R,0.05315X0.04528*%
%ADD12O,0.05709X0.02362*%
%ADD13R,0.04528X0.05512*%
%ADD14R,0.04921X0.07087*%
%ADD15R,0.05512X0.04528*%
%ADD16C,0.03000*%
%ADD17C,0.01500*%
%ADD18R,0.15748X0.15748*%
%ADD19O,0.07874X0.11811*%
%ADD20O,0.09843X0.05906*%
%ADD21O,0.05906X0.09843*%
%ADD22O,0.11811X0.07874*%
%ADD23C,0.04000*%
G36*
X43791Y64936D02*
X44425Y64110D01*
X44695Y63903D01*
Y62992D01*
X44889Y62017D01*
X45442Y61190D01*
X54792Y51839D01*
X55619Y51287D01*
X56595Y51093D01*
X58910D01*
X59079Y50924D01*
X58927Y50237D01*
X58810Y50197D01*
X52842D01*
X52190Y50697D01*
X51229Y51095D01*
X50197Y51231D01*
X49165Y51095D01*
X48204Y50697D01*
X47552Y50197D01*
X42999D01*
X42348Y50697D01*
X41386Y51095D01*
X40354Y51231D01*
X39323Y51095D01*
X38361Y50697D01*
X37709Y50197D01*
X34045D01*
Y59968D01*
X37502Y63425D01*
X38338Y63078D01*
X39370Y62942D01*
X40402Y63078D01*
X41363Y63477D01*
X42189Y64110D01*
X42823Y64936D01*
X42982Y65321D01*
X43632D01*
X43791Y64936D01*
D02*
G37*
G36*
X136599Y70722D02*
Y66323D01*
X137510D01*
Y58760D01*
X137704Y57784D01*
X138257Y56958D01*
X140196Y55018D01*
X139850Y54181D01*
X139714Y53150D01*
X139850Y52118D01*
X140248Y51156D01*
X140882Y50331D01*
X141707Y49697D01*
X142093Y49537D01*
Y48888D01*
X141707Y48728D01*
X140882Y48095D01*
X140248Y47269D01*
X139850Y46308D01*
X139714Y45276D01*
X139850Y44244D01*
X140196Y43407D01*
X129269Y32480D01*
X112205D01*
X109176Y35509D01*
X109424Y36110D01*
X114453D01*
Y34630D01*
X121768D01*
Y34630D01*
X122228D01*
Y34630D01*
X129740D01*
Y40920D01*
X129740Y41520D01*
Y41635D01*
X130037Y42235D01*
X133366D01*
X133608Y42283D01*
X133858Y42250D01*
X134642Y42353D01*
X135371Y42655D01*
X135998Y43136D01*
X136479Y43763D01*
X136781Y44493D01*
X136884Y45276D01*
X136781Y46059D01*
X136479Y46789D01*
X135998Y47415D01*
X135371Y47896D01*
X134642Y48198D01*
X133858Y48302D01*
X133075Y48198D01*
X132345Y47896D01*
X131719Y47415D01*
X131655Y47333D01*
X129740D01*
Y48047D01*
X122368D01*
X122228Y48047D01*
X121768D01*
X121628Y48047D01*
X114453D01*
Y47333D01*
X111713D01*
X111471Y47284D01*
X111221Y47317D01*
X110654Y47243D01*
X110374Y47811D01*
X113853Y51290D01*
X114453Y51042D01*
Y50378D01*
X121768D01*
Y50378D01*
X122327D01*
Y50378D01*
X129642D01*
Y56668D01*
X129642Y57268D01*
Y57383D01*
X129939Y57983D01*
X133366D01*
X133608Y58031D01*
X133858Y57998D01*
X134642Y58101D01*
X135371Y58403D01*
X135998Y58884D01*
X136479Y59511D01*
X136781Y60241D01*
X136884Y61024D01*
X136781Y61807D01*
X136479Y62537D01*
X135998Y63163D01*
X135371Y63644D01*
X134642Y63946D01*
X133858Y64050D01*
X133075Y63946D01*
X132345Y63644D01*
X131719Y63163D01*
X131655Y63081D01*
X129642D01*
Y63795D01*
X122368D01*
X122327Y63795D01*
X121768D01*
X121727Y63795D01*
X120659D01*
Y66126D01*
X121866D01*
Y66126D01*
X122327D01*
Y66126D01*
X129642D01*
Y72654D01*
X129642D01*
Y73016D01*
X129642D01*
Y73731D01*
X133590D01*
X136599Y70722D01*
D02*
G37*
G36*
X6874Y94488D02*
Y77740D01*
X24622D01*
Y94064D01*
X25046Y94488D01*
X164354Y94488D01*
Y77740D01*
X182102D01*
Y94064D01*
X182527Y94488D01*
X188976D01*
X188976Y424D01*
X188552Y0D01*
X158465D01*
Y8930D01*
X158769Y8970D01*
X159970Y9467D01*
X161002Y10259D01*
X161793Y11290D01*
X162290Y12491D01*
X162460Y13780D01*
Y17717D01*
X162290Y19005D01*
X161793Y20206D01*
X161002Y21238D01*
X159970Y22029D01*
X158769Y22526D01*
X158465Y22567D01*
Y29528D01*
X155512Y32480D01*
X137263D01*
X137033Y33035D01*
X145287Y41289D01*
X147638D01*
X148670Y41425D01*
X149631Y41823D01*
X150457Y42456D01*
X151091Y43282D01*
X151489Y44244D01*
X151625Y45276D01*
X151489Y46308D01*
X151091Y47269D01*
X150457Y48095D01*
X149631Y48728D01*
X149246Y48888D01*
Y49537D01*
X149631Y49697D01*
X150457Y50331D01*
X151091Y51156D01*
X151489Y52118D01*
X151625Y53150D01*
X151489Y54181D01*
X151091Y55143D01*
X150457Y55969D01*
X149631Y56602D01*
X148670Y57001D01*
X147638Y57136D01*
X145287D01*
X142608Y59816D01*
Y66323D01*
X143520D01*
Y75410D01*
X139121D01*
X136448Y78082D01*
X135621Y78635D01*
X134646Y78829D01*
X129642D01*
Y79543D01*
X122466D01*
X122327Y79543D01*
X121866D01*
X121727Y79543D01*
X120659D01*
Y80564D01*
X121083Y80988D01*
X122228Y80988D01*
X122466Y80988D01*
X128756D01*
Y82097D01*
X132252D01*
X132345Y82025D01*
X133075Y81723D01*
X133858Y81620D01*
X134642Y81723D01*
X135371Y82025D01*
X135998Y82506D01*
X136479Y83133D01*
X136781Y83863D01*
X136884Y84646D01*
X136781Y85429D01*
X136479Y86159D01*
X135998Y86785D01*
X135371Y87266D01*
X134642Y87568D01*
X133858Y87672D01*
X133075Y87568D01*
X132345Y87266D01*
X132252Y87195D01*
X128756D01*
Y88303D01*
X122466D01*
X121866Y88303D01*
X121628Y88303D01*
X115339D01*
Y80988D01*
X115561D01*
Y79543D01*
X114354D01*
Y78829D01*
X111713D01*
X111471Y78780D01*
X111221Y78813D01*
X110437Y78710D01*
X109708Y78408D01*
X109081Y77927D01*
X108600Y77300D01*
X108298Y76571D01*
X108195Y75788D01*
X108298Y75004D01*
X108600Y74274D01*
X109081Y73648D01*
X109708Y73167D01*
X110437Y72865D01*
X111221Y72762D01*
X112004Y72865D01*
X112733Y73167D01*
X113360Y73648D01*
X113363Y73651D01*
X113983Y73677D01*
X114354Y73306D01*
X114354Y72654D01*
X114354Y72416D01*
Y66126D01*
X115561D01*
Y63795D01*
X114453D01*
Y61858D01*
X109486Y56891D01*
X108835Y57089D01*
X108756Y57486D01*
X108318Y58141D01*
X107663Y58579D01*
X106890Y58733D01*
X105717D01*
Y56713D01*
Y54693D01*
X105886D01*
X106207Y54093D01*
X106103Y53936D01*
X103543D01*
X102692Y53767D01*
X101971Y53285D01*
X101489Y52564D01*
X101320Y51713D01*
X101489Y50862D01*
X101971Y50140D01*
X102692Y49658D01*
X103394Y49518D01*
Y48907D01*
X102692Y48767D01*
X101971Y48285D01*
X101489Y47564D01*
X101320Y46713D01*
X101489Y45862D01*
X101971Y45140D01*
X102692Y44658D01*
X103394Y44519D01*
Y43907D01*
X102692Y43767D01*
X101971Y43285D01*
X101451Y43234D01*
X94488Y50197D01*
X94375D01*
X94156Y50726D01*
X93675Y51352D01*
X93048Y51833D01*
X92319Y52135D01*
X91536Y52239D01*
X90752Y52135D01*
X90022Y51833D01*
X89396Y51352D01*
X88915Y50726D01*
X88696Y50197D01*
X87680D01*
X87397Y50726D01*
X87488Y50862D01*
X87657Y51713D01*
X87488Y52564D01*
X87006Y53285D01*
X86284Y53767D01*
X85583Y53907D01*
Y54519D01*
X86284Y54658D01*
X86689Y54928D01*
X94036D01*
X94459Y54467D01*
X94415Y54134D01*
X94518Y53351D01*
X94820Y52621D01*
X95301Y51994D01*
X95928Y51513D01*
X96658Y51211D01*
X97441Y51108D01*
X98224Y51211D01*
X98954Y51513D01*
X99581Y51994D01*
X100062Y52621D01*
X100364Y53351D01*
X100467Y54134D01*
X100364Y54917D01*
X100062Y55647D01*
X99581Y56274D01*
X98954Y56754D01*
X98224Y57057D01*
X97441Y57160D01*
X96997Y57101D01*
X96124Y57974D01*
X95545Y58361D01*
X94862Y58497D01*
X86689D01*
X86284Y58767D01*
X85433Y58937D01*
X84059D01*
X81203Y61793D01*
X80624Y62180D01*
X79941Y62316D01*
X74524D01*
Y63795D01*
X67209D01*
Y63795D01*
X66650D01*
Y63795D01*
X59335D01*
Y57268D01*
X59335D01*
Y56906D01*
X59335D01*
Y56191D01*
X57650D01*
X50043Y63798D01*
X50063Y64110D01*
X50697Y64936D01*
X51095Y65897D01*
X51155Y66349D01*
X53150D01*
X54125Y66543D01*
X54952Y67095D01*
X61124Y73267D01*
X61960Y72921D01*
X62992Y72785D01*
X64024Y72921D01*
X64986Y73319D01*
X65811Y73953D01*
X66445Y74778D01*
X66605Y75164D01*
X67254D01*
X67414Y74778D01*
X68047Y73953D01*
X68873Y73319D01*
X69834Y72921D01*
X70866Y72785D01*
X71898Y72921D01*
X72860Y73319D01*
X73685Y73953D01*
X74319Y74778D01*
X74717Y75740D01*
X74853Y76772D01*
Y80709D01*
X74717Y81741D01*
X74319Y82702D01*
X73685Y83528D01*
X72860Y84161D01*
X71898Y84560D01*
X70866Y84696D01*
X69834Y84560D01*
X68873Y84161D01*
X68047Y83528D01*
X67414Y82702D01*
X67254Y82317D01*
X66605D01*
X66445Y82702D01*
X65811Y83528D01*
X64986Y84161D01*
X64024Y84560D01*
X62992Y84696D01*
X61960Y84560D01*
X60999Y84161D01*
X60173Y83528D01*
X59539Y82702D01*
X59141Y81741D01*
X59005Y80709D01*
Y78358D01*
X52094Y71447D01*
X51155D01*
X51095Y71898D01*
X50697Y72860D01*
X50063Y73685D01*
X49238Y74319D01*
X48276Y74717D01*
X47244Y74853D01*
X46212Y74717D01*
X45251Y74319D01*
X44425Y73685D01*
X43791Y72860D01*
X43632Y72474D01*
X42982D01*
X42823Y72860D01*
X42189Y73685D01*
X41363Y74319D01*
X40402Y74717D01*
X39370Y74853D01*
X38338Y74717D01*
X37377Y74319D01*
X36551Y73685D01*
X35917Y72860D01*
X35519Y71898D01*
X35383Y70866D01*
Y68516D01*
X29694Y62826D01*
X29141Y61999D01*
X28947Y61024D01*
Y50197D01*
X21674D01*
X21238Y50765D01*
X20206Y51557D01*
X19005Y52054D01*
X17717Y52224D01*
X13780D01*
X12491Y52054D01*
X11290Y51557D01*
X10259Y50765D01*
X9822Y50197D01*
X0D01*
Y94064D01*
X424Y94488D01*
X6874D01*
D02*
G37*
G36*
X78770Y47828D02*
X76494Y45553D01*
X76108Y44974D01*
X75972Y44291D01*
Y32235D01*
X74924Y31187D01*
X74524Y31353D01*
Y32299D01*
X67209D01*
Y25809D01*
X67209Y25772D01*
Y25409D01*
X67209Y25372D01*
Y24695D01*
X63484D01*
X63242Y24647D01*
X62992Y24679D01*
X62209Y24576D01*
X61479Y24274D01*
X60852Y23793D01*
X60372Y23167D01*
X60069Y22437D01*
X59966Y21654D01*
X60069Y20870D01*
X60372Y20141D01*
X60852Y19514D01*
X61479Y19033D01*
X62209Y18731D01*
X62992Y18628D01*
X63775Y18731D01*
X64505Y19033D01*
X65132Y19514D01*
X65195Y19597D01*
X67209D01*
Y18882D01*
X74524D01*
Y25372D01*
X74524Y25409D01*
Y25772D01*
X74524Y25809D01*
Y27251D01*
X75295D01*
X75978Y27387D01*
X76557Y27774D01*
X79018Y30234D01*
X79018Y30234D01*
X79404Y30813D01*
X79540Y31496D01*
X79540Y31496D01*
Y43552D01*
X80882Y44894D01*
X81236Y44658D01*
X82087Y44489D01*
X85433D01*
X86284Y44658D01*
X86689Y44928D01*
X89035D01*
X89718Y45064D01*
X90297Y45451D01*
X91091Y46245D01*
X91536Y46187D01*
X92319Y46290D01*
X93048Y46592D01*
X93675Y47073D01*
X94156Y47700D01*
X94243Y47908D01*
X94714Y48002D01*
X101398Y41319D01*
X101489Y40862D01*
X101971Y40140D01*
X102692Y39658D01*
X103149Y39567D01*
X112205Y30512D01*
X126778D01*
X126931Y30142D01*
X125219Y28430D01*
X124819Y28596D01*
Y29248D01*
X118329D01*
X118291Y29248D01*
X117929D01*
X117891Y29248D01*
X111402D01*
Y28140D01*
X105937D01*
X105844Y28211D01*
X105114Y28513D01*
X104331Y28616D01*
X103548Y28513D01*
X102818Y28211D01*
X102725Y28140D01*
X101480D01*
X101197Y28422D01*
Y29309D01*
X101197Y29346D01*
Y29709D01*
X101197Y29746D01*
Y30916D01*
X102725D01*
X102818Y30844D01*
X103548Y30542D01*
X104331Y30439D01*
X105114Y30542D01*
X105844Y30844D01*
X106470Y31325D01*
X106951Y31952D01*
X107254Y32682D01*
X107357Y33465D01*
X107254Y34248D01*
X106951Y34978D01*
X106470Y35604D01*
X105844Y36085D01*
X105114Y36387D01*
X104331Y36490D01*
X103548Y36387D01*
X102818Y36085D01*
X102725Y36014D01*
X101197D01*
Y37220D01*
X94707D01*
X94669Y37220D01*
X94307D01*
X94269Y37220D01*
X92043D01*
Y33465D01*
X91043D01*
Y32465D01*
X87780D01*
Y29746D01*
X87780Y29709D01*
Y29346D01*
X87780Y29309D01*
Y26591D01*
X91043D01*
Y24591D01*
X87780D01*
Y21872D01*
X87780Y21835D01*
Y21473D01*
X87780Y21435D01*
Y18717D01*
X91043D01*
Y17717D01*
X92043D01*
Y13961D01*
X94269D01*
X94307Y13961D01*
X94669D01*
X94707Y13961D01*
X101197D01*
Y21473D01*
X101197D01*
Y21835D01*
X101197D01*
Y23042D01*
X102725D01*
X102818Y22970D01*
X103548Y22668D01*
X104331Y22565D01*
X105114Y22668D01*
X105844Y22970D01*
X105937Y23042D01*
X111402D01*
Y21933D01*
X117891D01*
X117929Y21933D01*
X118291D01*
X118329Y21933D01*
X124819D01*
Y23042D01*
X125984D01*
X126960Y23236D01*
X127787Y23788D01*
X134510Y30512D01*
X154528D01*
X156496Y28543D01*
Y22567D01*
X156192Y22526D01*
X154991Y22029D01*
X153959Y21238D01*
X153168Y20206D01*
X152670Y19005D01*
X152501Y17717D01*
Y13780D01*
X152670Y12491D01*
X153168Y11290D01*
X153959Y10259D01*
X154991Y9467D01*
X156192Y8970D01*
X156496Y8930D01*
Y0D01*
X126984D01*
Y16748D01*
X109236D01*
Y0D01*
X79740D01*
Y16748D01*
X61992D01*
Y0D01*
X0D01*
Y48228D01*
X8626D01*
X8890Y47928D01*
X8800Y47244D01*
X8970Y45955D01*
X9467Y44754D01*
X10259Y43723D01*
X11290Y42932D01*
X12491Y42434D01*
X13780Y42265D01*
X17717D01*
X19005Y42434D01*
X20206Y42932D01*
X21238Y43723D01*
X22029Y44754D01*
X22526Y45955D01*
X22696Y47244D01*
X22606Y47928D01*
X22870Y48228D01*
X28947D01*
Y21984D01*
X27975Y21238D01*
X27184Y20206D01*
X26686Y19005D01*
X26517Y17717D01*
Y13780D01*
X26686Y12491D01*
X27184Y11290D01*
X27975Y10259D01*
X29006Y9467D01*
X30207Y8970D01*
X31496Y8800D01*
X32785Y8970D01*
X33986Y9467D01*
X35017Y10259D01*
X35809Y11290D01*
X36306Y12491D01*
X36476Y13780D01*
Y17717D01*
X36306Y19005D01*
X35809Y20206D01*
X35017Y21238D01*
X34045Y21984D01*
Y48228D01*
X36194D01*
X36457Y47928D01*
X36367Y47244D01*
Y43307D01*
X36503Y42275D01*
X36902Y41314D01*
X37535Y40488D01*
X38361Y39854D01*
X39323Y39456D01*
X40354Y39320D01*
X41386Y39456D01*
X42348Y39854D01*
X43174Y40488D01*
X43807Y41314D01*
X44205Y42275D01*
X44341Y43307D01*
Y47244D01*
X44251Y47928D01*
X44515Y48228D01*
X46036D01*
X46300Y47928D01*
X46210Y47244D01*
Y43307D01*
X46346Y42275D01*
X46744Y41314D01*
X47378Y40488D01*
X48204Y39854D01*
X48632Y39677D01*
Y21984D01*
X47660Y21238D01*
X46869Y20206D01*
X46371Y19005D01*
X46202Y17717D01*
Y13780D01*
X46371Y12491D01*
X46869Y11290D01*
X47660Y10259D01*
X48691Y9467D01*
X49892Y8970D01*
X51181Y8800D01*
X52470Y8970D01*
X53671Y9467D01*
X54702Y10259D01*
X55494Y11290D01*
X55991Y12491D01*
X56161Y13780D01*
Y17717D01*
X55991Y19005D01*
X55494Y20206D01*
X54702Y21238D01*
X53730Y21984D01*
Y41508D01*
X54048Y42275D01*
X54184Y43307D01*
Y47244D01*
X54094Y47928D01*
X54357Y48228D01*
X66884D01*
X67209Y48047D01*
Y41557D01*
X67209Y41520D01*
Y41157D01*
X67209Y41120D01*
Y40443D01*
X63484D01*
X63242Y40395D01*
X62992Y40428D01*
X62209Y40324D01*
X61479Y40022D01*
X60852Y39541D01*
X60372Y38915D01*
X60069Y38185D01*
X59966Y37402D01*
X60069Y36619D01*
X60372Y35889D01*
X60852Y35262D01*
X61479Y34781D01*
X62209Y34479D01*
X62992Y34376D01*
X63775Y34479D01*
X64505Y34781D01*
X65132Y35262D01*
X65195Y35345D01*
X67209D01*
Y34630D01*
X74524D01*
Y41120D01*
X74524Y41157D01*
Y41520D01*
X74524Y41557D01*
Y48047D01*
X74849Y48228D01*
X78604D01*
X78770Y47828D01*
D02*
G37*
%LPC*%
G36*
X138795Y22565D02*
Y16748D01*
X142775D01*
Y17717D01*
X142605Y19005D01*
X142108Y20206D01*
X141316Y21238D01*
X140285Y22029D01*
X139084Y22526D01*
X138795Y22565D01*
D02*
G37*
G36*
X176165D02*
X175877Y22526D01*
X174676Y22029D01*
X173644Y21238D01*
X172853Y20206D01*
X172355Y19005D01*
X172186Y17717D01*
Y16748D01*
X176165D01*
Y22565D01*
D02*
G37*
G36*
X83260Y41213D02*
X80166D01*
X80221Y40940D01*
X80658Y40284D01*
X81314Y39847D01*
X82087Y39693D01*
X83260D01*
Y41213D01*
D02*
G37*
G36*
X90043Y37220D02*
X87780D01*
Y34465D01*
X90043D01*
Y37220D01*
D02*
G37*
G36*
X178165Y22565D02*
Y16748D01*
X182145D01*
Y17717D01*
X181975Y19005D01*
X181478Y20206D01*
X180686Y21238D01*
X179655Y22029D01*
X178454Y22526D01*
X178165Y22565D01*
D02*
G37*
G36*
X136795D02*
X136506Y22526D01*
X135306Y22029D01*
X134274Y21238D01*
X133483Y20206D01*
X132985Y19005D01*
X132816Y17717D01*
Y16748D01*
X136795D01*
Y22565D01*
D02*
G37*
G36*
X142775Y14748D02*
X138795D01*
Y8932D01*
X139084Y8970D01*
X140285Y9467D01*
X141316Y10259D01*
X142108Y11290D01*
X142605Y12491D01*
X142775Y13780D01*
Y14748D01*
D02*
G37*
G36*
X136795D02*
X132816D01*
Y13780D01*
X132985Y12491D01*
X133483Y11290D01*
X134274Y10259D01*
X135306Y9467D01*
X136506Y8970D01*
X136795Y8932D01*
Y14748D01*
D02*
G37*
G36*
X11811Y22696D02*
X10522Y22526D01*
X9321Y22029D01*
X8290Y21238D01*
X7499Y20206D01*
X7001Y19005D01*
X6831Y17717D01*
Y13780D01*
X7001Y12491D01*
X7499Y11290D01*
X8290Y10259D01*
X9321Y9467D01*
X10522Y8970D01*
X11811Y8800D01*
X13100Y8970D01*
X14301Y9467D01*
X15332Y10259D01*
X16124Y11290D01*
X16621Y12491D01*
X16791Y13780D01*
Y17717D01*
X16621Y19005D01*
X16124Y20206D01*
X15332Y21238D01*
X14301Y22029D01*
X13100Y22526D01*
X11811Y22696D01*
D02*
G37*
G36*
X90043Y16717D02*
X87780D01*
Y13961D01*
X90043D01*
Y16717D01*
D02*
G37*
G36*
X182145Y14748D02*
X178165D01*
Y8932D01*
X178454Y8970D01*
X179655Y9467D01*
X180686Y10259D01*
X181478Y11290D01*
X181975Y12491D01*
X182145Y13780D01*
Y14748D01*
D02*
G37*
G36*
X176165D02*
X172186D01*
Y13780D01*
X172355Y12491D01*
X172853Y11290D01*
X173644Y10259D01*
X174676Y9467D01*
X175877Y8970D01*
X176165Y8932D01*
Y14748D01*
D02*
G37*
G36*
X151575Y83735D02*
X150792Y83631D01*
X150062Y83329D01*
X149435Y82848D01*
X148954Y82222D01*
X148652Y81492D01*
X148549Y80709D01*
X148652Y79926D01*
X148731Y79736D01*
Y75410D01*
X147819D01*
Y66323D01*
X154740D01*
Y75410D01*
X153829D01*
Y78718D01*
X154195Y79196D01*
X154498Y79926D01*
X154601Y80709D01*
X154498Y81492D01*
X154195Y82222D01*
X153715Y82848D01*
X153088Y83329D01*
X152358Y83631D01*
X151575Y83735D01*
D02*
G37*
G36*
X175197Y71909D02*
X171260D01*
X169971Y71739D01*
X168770Y71242D01*
X167739Y70450D01*
X166947Y69419D01*
X166450Y68218D01*
X166280Y66929D01*
X166450Y65640D01*
X166947Y64439D01*
X167739Y63408D01*
X168770Y62617D01*
X169971Y62119D01*
X171260Y61950D01*
X175197D01*
X176486Y62119D01*
X177687Y62617D01*
X178718Y63408D01*
X179509Y64439D01*
X180007Y65640D01*
X180176Y66929D01*
X180007Y68218D01*
X179509Y69419D01*
X178718Y70450D01*
X177687Y71242D01*
X176486Y71739D01*
X175197Y71909D01*
D02*
G37*
G36*
X101197Y63961D02*
X98933D01*
Y61205D01*
X101197D01*
Y63961D01*
D02*
G37*
G36*
X94307Y84465D02*
X94069Y84465D01*
X87780D01*
Y83258D01*
X86252D01*
X86159Y83329D01*
X85429Y83631D01*
X84646Y83735D01*
X83863Y83631D01*
X83133Y83329D01*
X82506Y82848D01*
X82025Y82222D01*
X81723Y81492D01*
X81620Y80709D01*
X81723Y79926D01*
X82025Y79196D01*
X82506Y78569D01*
X83133Y78088D01*
X83863Y77786D01*
X84646Y77683D01*
X85429Y77786D01*
X86159Y78088D01*
X86252Y78160D01*
X87355D01*
X87780Y77736D01*
X87780Y76591D01*
X87780Y76353D01*
Y75384D01*
X86252D01*
X86159Y75455D01*
X85429Y75757D01*
X84646Y75861D01*
X83863Y75757D01*
X83133Y75455D01*
X82506Y74974D01*
X82025Y74348D01*
X81723Y73618D01*
X81620Y72835D01*
X81723Y72052D01*
X82025Y71322D01*
X82506Y70695D01*
X83133Y70214D01*
X83863Y69912D01*
X84646Y69809D01*
X85429Y69912D01*
X86159Y70214D01*
X86252Y70286D01*
X87355D01*
X87780Y69862D01*
X87780Y68717D01*
X87780Y68479D01*
Y67510D01*
X86252D01*
X86159Y67581D01*
X85429Y67883D01*
X84646Y67987D01*
X83863Y67883D01*
X83133Y67581D01*
X82506Y67100D01*
X82025Y66474D01*
X81723Y65744D01*
X81620Y64961D01*
X81723Y64178D01*
X82025Y63448D01*
X82506Y62821D01*
X83133Y62340D01*
X83863Y62038D01*
X84646Y61935D01*
X85429Y62038D01*
X86159Y62340D01*
X86252Y62412D01*
X87780D01*
Y61205D01*
X94069D01*
X94669Y61205D01*
X94907Y61205D01*
X96933D01*
Y64961D01*
X97933D01*
Y65961D01*
X101197D01*
Y68479D01*
X101197Y69079D01*
X101197Y69317D01*
Y71835D01*
X97933D01*
Y73835D01*
X101197D01*
Y76353D01*
X101197Y76953D01*
X101197Y77191D01*
Y79709D01*
X97933D01*
Y80709D01*
X96933D01*
Y84465D01*
X94907D01*
X94307Y84465D01*
D02*
G37*
G36*
X98933Y84465D02*
Y81709D01*
X101197D01*
Y84465D01*
X98933D01*
D02*
G37*
G36*
X43126Y88303D02*
X42888Y88303D01*
X36599D01*
Y87195D01*
X36417D01*
X35442Y87001D01*
X34615Y86448D01*
X19642Y71475D01*
X19005Y71739D01*
X17717Y71909D01*
X13780D01*
X12491Y71739D01*
X11290Y71242D01*
X10259Y70450D01*
X9467Y69419D01*
X8970Y68218D01*
X8800Y66929D01*
X8970Y65640D01*
X9467Y64439D01*
X10259Y63408D01*
X11290Y62617D01*
X12491Y62119D01*
X13780Y61950D01*
X17717D01*
X19005Y62119D01*
X20206Y62617D01*
X21238Y63408D01*
X22029Y64439D01*
X22526Y65640D01*
X22696Y66929D01*
X22651Y67274D01*
X36105Y80728D01*
X36599Y80988D01*
Y80988D01*
X36599Y80988D01*
X42888D01*
X43488Y80988D01*
X43726Y80988D01*
X50016D01*
Y82097D01*
X51543D01*
X51637Y82025D01*
X52367Y81723D01*
X53150Y81620D01*
X53933Y81723D01*
X54663Y82025D01*
X55289Y82506D01*
X55770Y83133D01*
X56072Y83863D01*
X56176Y84646D01*
X56072Y85429D01*
X55770Y86159D01*
X55289Y86785D01*
X54663Y87266D01*
X53933Y87568D01*
X53150Y87672D01*
X52367Y87568D01*
X51637Y87266D01*
X51543Y87195D01*
X50016D01*
Y88303D01*
X43726D01*
X43126Y88303D01*
D02*
G37*
G36*
X85433Y43733D02*
X84260D01*
Y42213D01*
X87354D01*
X87299Y42486D01*
X86861Y43141D01*
X86206Y43579D01*
X85433Y43733D01*
D02*
G37*
G36*
X83260D02*
X82087D01*
X81314Y43579D01*
X80658Y43141D01*
X80221Y42486D01*
X80166Y42213D01*
X83260D01*
Y43733D01*
D02*
G37*
G36*
X87354Y41213D02*
X84260D01*
Y39693D01*
X85433D01*
X86206Y39847D01*
X86861Y40284D01*
X87299Y40940D01*
X87354Y41213D01*
D02*
G37*
G36*
X104717Y58733D02*
X103543D01*
X102770Y58579D01*
X102115Y58141D01*
X101677Y57486D01*
X101623Y57213D01*
X104717D01*
Y58733D01*
D02*
G37*
G36*
Y56213D02*
X101623D01*
X101677Y55940D01*
X102115Y55284D01*
X102770Y54847D01*
X103543Y54693D01*
X104717D01*
Y56213D01*
D02*
G37*
G36*
X175197Y52224D02*
X171260D01*
X169971Y52054D01*
X168770Y51557D01*
X167739Y50765D01*
X166947Y49734D01*
X166450Y48533D01*
X166280Y47244D01*
X166450Y45955D01*
X166947Y44754D01*
X167739Y43723D01*
X168770Y42932D01*
X169971Y42434D01*
X171260Y42265D01*
X175197D01*
X176486Y42434D01*
X177687Y42932D01*
X178718Y43723D01*
X179509Y44754D01*
X180007Y45955D01*
X180176Y47244D01*
X180007Y48533D01*
X179509Y49734D01*
X178718Y50765D01*
X177687Y51557D01*
X176486Y52054D01*
X175197Y52224D01*
D02*
G37*
%LPD*%
D10*
X114665Y25591D02*
D03*
X121555D02*
D03*
X118602Y84646D02*
D03*
X125492D02*
D03*
X39862D02*
D03*
X46752D02*
D03*
D11*
X125984Y69390D02*
D03*
Y76280D02*
D03*
X118110Y60532D02*
D03*
Y53642D02*
D03*
X125984D02*
D03*
Y60532D02*
D03*
X118110Y37894D02*
D03*
Y44783D02*
D03*
X70866Y53642D02*
D03*
Y60532D02*
D03*
Y37894D02*
D03*
Y44783D02*
D03*
X62992Y53642D02*
D03*
Y60532D02*
D03*
X70866Y29035D02*
D03*
Y22146D02*
D03*
D12*
X105217Y41713D02*
D03*
Y46713D02*
D03*
Y51713D02*
D03*
Y56713D02*
D03*
X83760Y41713D02*
D03*
Y46713D02*
D03*
Y51713D02*
D03*
Y56713D02*
D03*
D13*
X91043Y17717D02*
D03*
X97933D02*
D03*
X91043Y80709D02*
D03*
X97933D02*
D03*
X91043Y25591D02*
D03*
X97933D02*
D03*
X91043Y72835D02*
D03*
X97933D02*
D03*
X91043Y33465D02*
D03*
X97933D02*
D03*
X91043Y64961D02*
D03*
X97933D02*
D03*
D14*
X151280Y70866D02*
D03*
X140059D02*
D03*
D15*
X118110Y69390D02*
D03*
Y76280D02*
D03*
X125984Y44783D02*
D03*
Y37894D02*
D03*
D16*
X36417Y84646D02*
X39862D01*
X18701Y66929D02*
X36417Y84646D01*
X15748Y66929D02*
X18701D01*
X31496Y61024D02*
X39370Y68898D01*
X31496Y15748D02*
Y61024D01*
X53150Y68898D02*
X62992Y78740D01*
X47244Y68898D02*
X53150D01*
X47244Y62992D02*
Y68898D01*
Y62992D02*
X56595Y53642D01*
X62992D01*
X46752Y84646D02*
X53150D01*
X51181Y15748D02*
Y44291D01*
X50197Y45276D02*
X51181Y44291D01*
X118110Y53642D02*
X125984D01*
X118110Y69390D02*
X125984D01*
X118110Y76280D02*
Y84154D01*
X84646Y80709D02*
X91043D01*
X84646Y72835D02*
X91043D01*
X84646Y64961D02*
X91043D01*
X63484Y37894D02*
X70866D01*
X62992Y37402D02*
X63484Y37894D01*
Y22146D02*
X70866D01*
X62992Y21654D02*
X63484Y22146D01*
X97933Y25591D02*
X104331D01*
X125984Y44783D02*
X133366D01*
X133858Y45276D01*
X125984Y60532D02*
X133366D01*
X133858Y61024D01*
X140059Y58760D02*
X145669Y53150D01*
X140059Y58760D02*
Y70866D01*
X125984Y76280D02*
X134646D01*
X140059Y70866D01*
X151280D02*
Y80413D01*
X151575Y80709D01*
X118110Y37894D02*
X125984D01*
X111713Y76280D02*
X118110D01*
Y62992D02*
Y69390D01*
X125492Y84646D02*
X133858D01*
X111713Y44783D02*
X118110D01*
X62992Y60532D02*
X70866D01*
Y44783D02*
Y53642D01*
X97933Y33465D02*
X104331D01*
X97933Y17717D02*
Y25591D01*
X104331D02*
X114665D01*
X121555D02*
X125984D01*
X145669Y45276D01*
D17*
X106831Y51713D02*
X118110Y62992D01*
X105217Y41713D02*
X109036Y37894D01*
X118110D01*
X111221Y75788D02*
X111713Y76280D01*
X80177Y46713D02*
X83760D01*
X77756Y44291D02*
X80177Y46713D01*
X70866Y29035D02*
X75295D01*
X77756Y31496D01*
Y44291D01*
X105217Y51713D02*
X106831D01*
X83760Y46713D02*
X89035D01*
X91536Y49213D01*
X83760Y56713D02*
X94862D01*
X97441Y54134D01*
X111221Y44291D02*
X111713Y44783D01*
X79941Y60532D02*
X83760Y56713D01*
X70866Y60532D02*
X79941D01*
X82146Y51713D02*
X83760D01*
X80217Y53642D02*
X82146Y51713D01*
X70866Y53642D02*
X80217D01*
X113681D02*
X118110D01*
X105217Y46713D02*
X106752D01*
X113681Y53642D01*
D18*
X15748Y86614D02*
D03*
X173228D02*
D03*
X70866Y7874D02*
D03*
X118110D02*
D03*
D19*
X31496Y15748D02*
D03*
X51181D02*
D03*
X11811D02*
D03*
X157480D02*
D03*
X177165D02*
D03*
X137795D02*
D03*
D20*
X145669Y53150D02*
D03*
Y45276D02*
D03*
D21*
X62992Y78740D02*
D03*
X70866D02*
D03*
X39370Y68898D02*
D03*
X47244D02*
D03*
X40354Y45276D02*
D03*
X50197D02*
D03*
D22*
X15748Y47244D02*
D03*
Y66929D02*
D03*
X173228Y47244D02*
D03*
Y66929D02*
D03*
D23*
X53150Y84646D02*
D03*
X84646Y80709D02*
D03*
Y72835D02*
D03*
Y64961D02*
D03*
X62992Y37402D02*
D03*
Y21654D02*
D03*
X104331Y25591D02*
D03*
X133858Y45276D02*
D03*
Y61024D02*
D03*
X151575Y80709D02*
D03*
X111221Y75788D02*
D03*
X133858Y84646D02*
D03*
X97441Y54134D02*
D03*
X91536Y49213D02*
D03*
X111221Y44291D02*
D03*
X104331Y33465D02*
D03*
M02*
