M48
;Layer_Color=9474304
;FILE_FORMAT=2:4
INCH,TZ
;TYPE=PLATED
T1F00S00C0.0200
T2F00S00C0.0394
T3F00S00C0.0472
T4F00S00C0.1181
%
T01
X6299Y2165
Y3740
X9154Y4921
X9744Y5413
X11122Y4429
X10433Y3346
Y2559
X13386Y4528
Y6102
Y8465
X15157Y8071
X11122Y7579
X8465Y7283
Y8071
Y6496
X5315Y8465
T02
X4035Y4528
X5020
X14567
Y5315
X7087Y7874
X6299
X4724Y6890
X3937
T03
X1181Y1575
X3150
X5118
X1575Y4724
X13780Y1575
X15748
X17717
X17323Y4724
Y6693
X1575
T04
X7087Y787
X11811
X17323Y8661
X1575
M30
